<svg width="48" height="32" viewBox="0 0 48 32" fill="none" xmlns="http://www.w3.org/2000/svg">
<rect x="0.799662" y="0.799662" width="46.4007" height="30.4007" rx="3.20034" fill="#016FD0"/>
<path fill-rule="evenodd" clip-rule="evenodd" d="M9.17575 11.2L4.80078 20.8816H10.0382L10.6875 19.3379H12.1717L12.8209 20.8816H18.5859V19.7034L19.0996 20.8816H22.0817L22.5954 19.6785V20.8816H34.5849L36.0428 19.378L37.4079 20.8816L43.5659 20.8941L39.1772 16.0678L43.5659 11.2H37.5034L36.0842 12.6757L34.7621 11.2H21.7191L20.5991 13.6989L19.4528 11.2H14.2263V12.338L13.6449 11.2H9.17575ZM27.0797 12.5748H33.9646L36.0704 14.8494L38.2441 12.5748H40.3499L37.1503 16.0664L40.3499 19.5179H38.1486L36.0428 17.2168L33.858 19.5179H27.0797V12.5748ZM28.7799 15.2814V14.012H33.0759L34.9504 16.0402L32.9928 18.0794H28.7799V16.6949H32.5359V15.2814H28.7799ZM10.1892 12.5748H12.7421L15.6441 19.1399V12.5748H18.4407L20.6821 17.282L22.7478 12.5748H25.5305V19.522H23.8373L23.8235 14.0782L21.3549 19.522H19.8403L17.3579 14.0782V19.522H13.8746L13.2142 17.9645H9.64647L8.98746 19.5206H7.12113L10.1892 12.5748ZM10.2557 16.5247L11.4311 13.7502L12.6052 16.5247H10.2557Z" fill="white"/>
<rect x="0.799662" y="0.799662" width="46.4007" height="30.4007" rx="3.20034" stroke="#CDD2D8" stroke-width="1.59932"/>
</svg>
