<svg width="32" height="32" viewBox="0 0 32 32" fill="none" xmlns="http://www.w3.org/2000/svg">
<mask id="mask0_2109_3345" style="mask-type:alpha" maskUnits="userSpaceOnUse" x="0" y="0" width="32" height="32">
<rect width="32" height="32" fill="#D9D9D9"/>
</mask>
<g mask="url(#mask0_2109_3345)">
<path d="M6.66667 29.3332C5.93333 29.3332 5.30533 29.0723 4.78267 28.5505C4.26089 28.0278 4 27.3998 4 26.6665V7.99984C4 7.2665 4.26089 6.63895 4.78267 6.11717C5.30533 5.5945 5.93333 5.33317 6.66667 5.33317H8V2.6665H10.6667V5.33317H21.3333V2.6665H24V5.33317H25.3333C26.0667 5.33317 26.6947 5.5945 27.2173 6.11717C27.7391 6.63895 28 7.2665 28 7.99984V26.6665C28 27.3998 27.7391 28.0278 27.2173 28.5505C26.6947 29.0723 26.0667 29.3332 25.3333 29.3332H6.66667ZM6.66667 26.6665H25.3333V13.3332H6.66667V26.6665ZM6.66667 10.6665H25.3333V7.99984H6.66667V10.6665ZM16 18.6665C15.6222 18.6665 15.3058 18.5385 15.0507 18.2825C14.7947 18.0274 14.6667 17.7109 14.6667 17.3332C14.6667 16.9554 14.7947 16.6385 15.0507 16.3825C15.3058 16.1274 15.6222 15.9998 16 15.9998C16.3778 15.9998 16.6947 16.1274 16.9507 16.3825C17.2058 16.6385 17.3333 16.9554 17.3333 17.3332C17.3333 17.7109 17.2058 18.0274 16.9507 18.2825C16.6947 18.5385 16.3778 18.6665 16 18.6665ZM10.6667 18.6665C10.2889 18.6665 9.972 18.5385 9.716 18.2825C9.46089 18.0274 9.33333 17.7109 9.33333 17.3332C9.33333 16.9554 9.46089 16.6385 9.716 16.3825C9.972 16.1274 10.2889 15.9998 10.6667 15.9998C11.0444 15.9998 11.3613 16.1274 11.6173 16.3825C11.8724 16.6385 12 16.9554 12 17.3332C12 17.7109 11.8724 18.0274 11.6173 18.2825C11.3613 18.5385 11.0444 18.6665 10.6667 18.6665ZM21.3333 18.6665C20.9556 18.6665 20.6391 18.5385 20.384 18.2825C20.128 18.0274 20 17.7109 20 17.3332C20 16.9554 20.128 16.6385 20.384 16.3825C20.6391 16.1274 20.9556 15.9998 21.3333 15.9998C21.7111 15.9998 22.0276 16.1274 22.2827 16.3825C22.5387 16.6385 22.6667 16.9554 22.6667 17.3332C22.6667 17.7109 22.5387 18.0274 22.2827 18.2825C22.0276 18.5385 21.7111 18.6665 21.3333 18.6665ZM16 23.9998C15.6222 23.9998 15.3058 23.8718 15.0507 23.6158C14.7947 23.3607 14.6667 23.0443 14.6667 22.6665C14.6667 22.2887 14.7947 21.9723 15.0507 21.7172C15.3058 21.4612 15.6222 21.3332 16 21.3332C16.3778 21.3332 16.6947 21.4612 16.9507 21.7172C17.2058 21.9723 17.3333 22.2887 17.3333 22.6665C17.3333 23.0443 17.2058 23.3607 16.9507 23.6158C16.6947 23.8718 16.3778 23.9998 16 23.9998ZM10.6667 23.9998C10.2889 23.9998 9.972 23.8718 9.716 23.6158C9.46089 23.3607 9.33333 23.0443 9.33333 22.6665C9.33333 22.2887 9.46089 21.9723 9.716 21.7172C9.972 21.4612 10.2889 21.3332 10.6667 21.3332C11.0444 21.3332 11.3613 21.4612 11.6173 21.7172C11.8724 21.9723 12 22.2887 12 22.6665C12 23.0443 11.8724 23.3607 11.6173 23.6158C11.3613 23.8718 11.0444 23.9998 10.6667 23.9998ZM21.3333 23.9998C20.9556 23.9998 20.6391 23.8718 20.384 23.6158C20.128 23.3607 20 23.0443 20 22.6665C20 22.2887 20.128 21.9723 20.384 21.7172C20.6391 21.4612 20.9556 21.3332 21.3333 21.3332C21.7111 21.3332 22.0276 21.4612 22.2827 21.7172C22.5387 21.9723 22.6667 22.2887 22.6667 22.6665C22.6667 23.0443 22.5387 23.3607 22.2827 23.6158C22.0276 23.8718 21.7111 23.9998 21.3333 23.9998Z" fill="#061C3D"/>
</g>
</svg>
