<svg width="32" height="32" viewBox="0 0 32 32" fill="none" xmlns="http://www.w3.org/2000/svg">
<path d="M25.5648 28.1809C25.5452 28.1731 25.5263 28.1646 25.5139 28.1594C25.7144 28.0974 25.9202 28.0289 26.1292 27.9689C26.8844 27.7524 27.5893 27.4308 28.2223 26.9651C29.063 26.348 29.679 25.5483 30.1128 24.6045C30.3284 24.1355 30.476 23.6437 30.6295 23.1532C30.655 23.0717 30.6635 22.9829 30.6641 22.8968C30.6674 22.36 30.6681 21.8232 30.6635 21.287C30.6622 21.1807 30.6452 21.0705 30.6119 20.97C30.4786 20.5669 30.3551 20.1592 30.1938 19.7672C29.6705 18.494 28.8108 17.5058 27.618 16.8137C26.6858 16.273 25.6791 16.0088 24.598 16.0062C23.7396 16.0042 22.9263 16.1915 22.1365 16.5104C22.066 16.5391 21.9948 16.5652 21.9144 16.5959C21.8942 16.5672 21.87 16.5359 21.8491 16.5026C21.5231 15.9873 21.1991 15.4713 20.8712 14.9573C20.7732 14.8041 20.6556 14.6664 20.4969 14.5666C20.3335 14.4642 20.1617 14.4597 19.9893 14.5236C19.8887 14.5608 19.7933 14.6175 19.7051 14.6795C19.4654 14.8478 19.3889 15.0819 19.4673 15.365C19.5248 15.5718 19.6372 15.7505 19.7482 15.9299C20.0324 16.3884 20.3159 16.847 20.5994 17.3049C20.6177 17.3349 20.638 17.3636 20.6608 17.3975C20.5922 17.4666 20.5256 17.5364 20.4551 17.6036C20.0135 18.0256 19.6287 18.4933 19.3164 19.0191C18.8814 19.7516 18.6187 20.5402 18.5201 21.3862C18.3686 22.6933 18.6187 23.9209 19.2602 25.0657C19.7404 25.9221 20.4021 26.6161 21.2246 27.1562C21.8001 27.5345 22.4233 27.8065 23.0877 27.9865C23.2183 28.0218 23.3451 28.0713 23.4737 28.1131C23.5273 28.1307 23.5815 28.145 23.6344 28.16C23.6279 28.1653 23.6181 28.1731 23.6077 28.1809C24.2596 28.1809 24.9116 28.1809 25.5629 28.1809H25.5648ZM22.6774 17.8417C22.7088 17.8254 22.7297 17.8137 22.7512 17.8039C23.8206 17.3238 24.9174 17.252 26.0345 17.6075C27.0699 17.9369 27.8891 18.5631 28.4901 19.4646C29.1897 20.5147 29.4386 21.6699 29.2231 22.9125C29.0343 23.9985 28.5188 24.9163 27.682 25.6377C26.5878 26.5802 25.3114 26.939 23.884 26.7355C22.763 26.575 21.8112 26.0708 21.06 25.2255C20.0638 24.1042 19.6881 22.7892 19.9266 21.3086C20.0722 20.4032 20.4701 19.6192 21.1168 18.9643C21.2109 18.869 21.3141 18.7816 21.4173 18.6864C21.4467 18.7184 21.4702 18.7373 21.4865 18.7614C21.6283 18.9728 21.7746 19.1815 21.9099 19.3967C22.4873 20.3171 23.0602 21.2394 23.6371 22.1598C23.7364 22.3176 23.8409 22.4735 23.9545 22.6209C24.0545 22.7507 24.1904 22.8381 24.3563 22.8629C24.6261 22.9034 24.8358 22.7801 25.0194 22.604C25.1938 22.4363 25.2597 22.2283 25.1905 21.996C25.152 21.8656 25.0938 21.7364 25.0226 21.6203C24.434 20.6661 23.8402 19.7144 23.2484 18.7621C23.0596 18.4588 22.8721 18.1541 22.6781 17.8411L22.6774 17.8417Z" fill="#061C3D"/>
<path d="M8.03071 28.1806C8.00916 28.1715 7.9876 28.1624 7.95428 28.1487C8.09865 28.12 8.23192 28.0945 8.36518 28.0678C9.35029 27.8662 10.2805 27.5349 11.0958 26.927C11.9496 26.2903 12.5911 25.4861 13.0255 24.5162C13.3907 23.7008 13.5671 22.8444 13.5664 21.9534C13.5651 20.4564 13.0752 19.1414 12.0718 18.0221C11.3695 17.2394 10.5196 16.6758 9.53059 16.3197C9.07723 16.1566 8.61146 16.049 8.13197 15.9948C7.56429 15.9303 6.99988 15.9479 6.43742 16.0438C5.15639 16.2623 4.05435 16.8324 3.1424 17.7514C2.25005 18.6502 1.69936 19.7311 1.47856 20.9789C1.45765 21.0956 1.41976 21.2098 1.39886 21.3265C1.37273 21.472 1.34137 21.6188 1.3368 21.7655C1.3257 22.1354 1.33876 22.4993 1.43936 22.8659C1.55042 23.269 1.61247 23.6865 1.7588 24.0804C2.34543 25.6616 3.39652 26.822 4.92317 27.5492C5.41312 27.7828 5.93246 27.9243 6.45833 28.0489C6.59224 28.0808 6.72551 28.1154 6.86465 28.15C6.84897 28.1617 6.83722 28.1709 6.8248 28.18H8.03071V28.1806ZM7.45846 26.7215C4.85524 26.7274 2.77854 24.646 2.77004 22.0251C2.76155 19.4865 4.74876 17.3235 7.47871 17.3261C10.1845 17.3287 12.1586 19.4793 12.1933 21.939C12.2311 24.6297 10.063 26.7398 7.45846 26.7215Z" fill="#061C3D"/>
<path d="M16.516 10.6729C16.4749 10.6761 16.4376 10.6807 16.4004 10.6814C15.8843 10.6879 15.3689 10.6924 14.8528 10.7009C14.4295 10.7081 14.0062 10.7238 13.5829 10.729C13.0126 10.7355 12.443 10.7374 11.8727 10.7381C11.5545 10.7381 11.2449 10.7779 10.9862 10.9768C10.8431 11.0864 10.7223 11.2247 10.5936 11.3525C10.2735 11.6695 9.95341 11.9859 9.63593 12.3049C9.30669 12.6362 9.07805 13.0237 9.00162 13.4887C8.91147 14.0386 9.05649 14.5233 9.42362 14.9433C9.65945 15.2134 9.95211 15.4058 10.2624 15.578C11.3854 16.2022 12.5057 16.8304 13.6286 17.4559C13.8723 17.5916 14.1199 17.7214 14.3655 17.8538C14.7052 18.0364 14.8568 18.3182 14.8515 18.7043C14.8372 19.7799 14.8306 20.8562 14.8287 21.9318C14.828 22.3708 14.8404 22.8098 14.8613 23.2481C14.8737 23.507 14.9495 23.7556 15.0906 23.9767C15.3669 24.4078 15.7805 24.5592 16.2717 24.5285C16.4076 24.52 16.5474 24.4907 16.6761 24.445C17.0621 24.3087 17.2816 24.0139 17.379 23.6316C17.4293 23.434 17.4593 23.2259 17.46 23.0224C17.4659 21.35 17.4619 19.6775 17.4632 18.0051C17.4632 17.6607 17.4704 17.3169 17.4789 16.9725C17.4979 16.1866 17.151 15.6139 16.4611 15.2499C15.7615 14.8807 15.056 14.5219 14.3524 14.1593C14.1597 14.0601 13.967 13.961 13.7743 13.8612C13.7652 13.8566 13.758 13.8481 13.7416 13.8351C13.7625 13.8116 13.7802 13.7888 13.7998 13.7686C14.538 13.0028 15.2742 12.2364 16.015 11.4732C16.207 11.2756 16.3573 11.0545 16.4631 10.802C16.4801 10.7609 16.5023 10.7218 16.5271 10.6722C16.6264 10.8125 16.7205 10.9416 16.8106 11.0734C17.2431 11.7067 17.6756 12.3394 18.106 12.9748C18.4209 13.4398 18.8501 13.6851 19.4197 13.6831C20.7452 13.6773 22.07 13.6773 23.3955 13.6727C23.5993 13.672 23.8005 13.6453 23.9945 13.5735C24.3917 13.4255 24.5824 13.1104 24.5191 12.6923C24.5047 12.5964 24.4838 12.4999 24.4492 12.4099C24.3342 12.1111 24.0892 11.9696 23.7907 11.9383C23.5006 11.9076 23.206 11.9168 22.9134 11.9089C22.8101 11.9063 22.7076 11.8998 22.6044 11.9005C21.9883 11.9037 21.3723 11.9096 20.7563 11.9122C20.561 11.9128 20.365 11.9148 20.1703 11.8998C19.8529 11.875 19.6242 11.695 19.4583 11.4393C19.2061 11.0512 18.971 10.6513 18.7195 10.2626C18.253 9.54118 17.7827 8.82302 17.3091 8.10617C17.1379 7.84722 16.9361 7.61566 16.6826 7.42911C16.0672 6.97643 15.4042 6.97121 14.7562 7.35475C14.5334 7.48651 14.3348 7.65023 14.1506 7.83156C13.4281 8.54385 12.7043 9.25483 11.9811 9.96581C11.9661 9.98081 11.953 9.99712 11.9276 10.0258C11.97 10.0278 11.9981 10.031 12.0262 10.031C13.1589 10.031 14.291 10.031 15.4238 10.031C15.6054 10.031 15.7876 10.018 15.9679 10.0336C16.3207 10.0643 16.55 10.3337 16.5186 10.6722L16.516 10.6729Z" fill="#061C3D"/>
<path d="M19.0395 8.15546C20.3695 8.14437 21.3546 7.06747 21.3095 5.78901C21.2677 4.60839 20.25 3.57714 18.9637 3.60454C17.797 3.62998 16.7387 4.70688 16.7537 5.88228C16.7694 7.12356 17.8185 8.16655 19.0401 8.15481L19.0395 8.15546Z" fill="#061C3D"/>
<path d="M11.8793 5.1629L13.1759 6.45756C13.4941 6.77521 13.4941 7.29022 13.1759 7.60787L9.49534 11.2829C9.17722 11.6006 8.66144 11.6006 8.34331 11.2829L7.0467 9.98827C6.72857 9.67062 6.72857 9.15561 7.0467 8.83796L10.7273 5.1629C11.0454 4.84525 11.5612 4.84525 11.8793 5.1629Z" fill="#061C3D"/>
</svg>
