<svg width="25" height="25" viewBox="0 0 25 25" fill="none" xmlns="http://www.w3.org/2000/svg">
<path d="M20.9022 10.3773C20.8854 10.2833 20.803 10.2159 20.7076 10.2159H12.2469C12.1364 10.2159 12.0469 10.3054 12.0469 10.4159V13.6159C12.0469 13.7263 12.1364 13.8159 12.2469 13.8159H17.1332C16.3912 15.9115 14.3972 17.4159 12.0469 17.4159C9.06472 17.4159 6.64687 14.998 6.64687 12.0159C6.64687 9.03372 9.06472 6.61587 12.0469 6.61587C13.3556 6.61587 14.5521 7.08527 15.4862 7.86048C15.5678 7.92812 15.6878 7.92492 15.7627 7.85002L18.0285 5.58426C18.1085 5.5042 18.1064 5.37355 18.0218 5.29825C16.4322 3.88257 14.343 3.01587 12.0469 3.01587C7.07662 3.01587 3.04688 7.04562 3.04688 12.0159C3.04688 16.9861 7.07662 21.0159 12.0469 21.0159C17.0171 21.0159 21.0469 16.9861 21.0469 12.0159C21.0469 11.4689 20.9958 10.903 20.9022 10.3773Z" fill="white"/>
</svg>
