<svg width="44" height="44" viewBox="0 0 44 44" fill="none" xmlns="http://www.w3.org/2000/svg">
<rect width="44" height="44" rx="5" fill="#FBBC05" fill-opacity="0.1"/>
<mask id="mask0_3064_3865" style="mask-type:luminance" maskUnits="userSpaceOnUse" x="12" y="12" width="19" height="20">
<path d="M30.5404 20.3333H21.9987V23.8749H26.9154C26.457 26.1249 24.5404 27.4166 21.9987 27.4166C18.9987 27.4166 16.582 24.9999 16.582 21.9999C16.582 18.9999 18.9987 16.5833 21.9987 16.5833C23.2904 16.5833 24.457 17.0416 25.3737 17.7916L28.0404 15.1249C26.4154 13.7083 24.332 12.8333 21.9987 12.8333C16.9154 12.8333 12.832 16.9166 12.832 21.9999C12.832 27.0833 16.9154 31.1666 21.9987 31.1666C26.582 31.1666 30.7487 27.8333 30.7487 21.9999C30.7487 21.4583 30.6654 20.8749 30.5404 20.3333Z" fill="white"/>
</mask>
<g mask="url(#mask0_3064_3865)">
<path d="M12 27.4166V16.5833L19.0833 21.9999L12 27.4166Z" fill="#FBBC05"/>
</g>
<mask id="mask1_3064_3865" style="mask-type:luminance" maskUnits="userSpaceOnUse" x="12" y="12" width="19" height="20">
<path d="M30.5404 20.3333H21.9987V23.8749H26.9154C26.457 26.1249 24.5404 27.4166 21.9987 27.4166C18.9987 27.4166 16.582 24.9999 16.582 21.9999C16.582 18.9999 18.9987 16.5833 21.9987 16.5833C23.2904 16.5833 24.457 17.0416 25.3737 17.7916L28.0404 15.1249C26.4154 13.7083 24.332 12.8333 21.9987 12.8333C16.9154 12.8333 12.832 16.9166 12.832 21.9999C12.832 27.0833 16.9154 31.1666 21.9987 31.1666C26.582 31.1666 30.7487 27.8333 30.7487 21.9999C30.7487 21.4583 30.6654 20.8749 30.5404 20.3333Z" fill="white"/>
</mask>
<g mask="url(#mask1_3064_3865)">
<path d="M12 16.5833L19.0833 22L22 19.4583L32 17.8333V12H12V16.5833Z" fill="#EA4335"/>
</g>
<mask id="mask2_3064_3865" style="mask-type:luminance" maskUnits="userSpaceOnUse" x="12" y="12" width="19" height="20">
<path d="M30.5404 20.3333H21.9987V23.8749H26.9154C26.457 26.1249 24.5404 27.4166 21.9987 27.4166C18.9987 27.4166 16.582 24.9999 16.582 21.9999C16.582 18.9999 18.9987 16.5833 21.9987 16.5833C23.2904 16.5833 24.457 17.0416 25.3737 17.7916L28.0404 15.1249C26.4154 13.7083 24.332 12.8333 21.9987 12.8333C16.9154 12.8333 12.832 16.9166 12.832 21.9999C12.832 27.0833 16.9154 31.1666 21.9987 31.1666C26.582 31.1666 30.7487 27.8333 30.7487 21.9999C30.7487 21.4583 30.6654 20.8749 30.5404 20.3333Z" fill="white"/>
</mask>
<g mask="url(#mask2_3064_3865)">
<path d="M12 27.4167L24.5 17.8333L27.7917 18.25L32 12V32H12V27.4167Z" fill="#34A853"/>
</g>
<mask id="mask3_3064_3865" style="mask-type:luminance" maskUnits="userSpaceOnUse" x="12" y="12" width="19" height="20">
<path d="M30.5404 20.3333H21.9987V23.8749H26.9154C26.457 26.1249 24.5404 27.4166 21.9987 27.4166C18.9987 27.4166 16.582 24.9999 16.582 21.9999C16.582 18.9999 18.9987 16.5833 21.9987 16.5833C23.2904 16.5833 24.457 17.0416 25.3737 17.7916L28.0404 15.1249C26.4154 13.7083 24.332 12.8333 21.9987 12.8333C16.9154 12.8333 12.832 16.9166 12.832 21.9999C12.832 27.0833 16.9154 31.1666 21.9987 31.1666C26.582 31.1666 30.7487 27.8333 30.7487 21.9999C30.7487 21.4583 30.6654 20.8749 30.5404 20.3333Z" fill="white"/>
</mask>
<g mask="url(#mask3_3064_3865)">
<path d="M31.9974 31.9999L19.0807 21.9999L17.4141 20.7499L31.9974 16.5833V31.9999Z" fill="#4285F4"/>
</g>
</svg>
