<svg width="20" height="21" viewBox="0 0 20 21" fill="none" xmlns="http://www.w3.org/2000/svg">
<g clip-path="url(#clip0_3040_5504)">
<path fill-rule="evenodd" clip-rule="evenodd" d="M10 19.1826C10 19.1826 17.5 14.1826 17.5 8.34924C17.5 6.36012 16.7098 4.45246 15.3033 3.04594C13.8968 1.63942 11.9891 0.849243 10 0.849243C8.01088 0.849243 6.10322 1.63942 4.6967 3.04594C3.29018 4.45246 2.5 6.36012 2.5 8.34924C2.5 14.1826 10 19.1826 10 19.1826ZM12.5 8.34924C12.5 9.72995 11.3807 10.8492 10 10.8492C8.61929 10.8492 7.5 9.72995 7.5 8.34924C7.5 6.96853 8.61929 5.84924 10 5.84924C11.3807 5.84924 12.5 6.96853 12.5 8.34924Z" fill="white"/>
</g>
<defs>
<clipPath id="clip0_3040_5504">
<rect width="20" height="20" fill="white" transform="translate(0 0.0158691)"/>
</clipPath>
</defs>
</svg>
