<svg width="32" height="32" viewBox="0 0 32 32" fill="none" xmlns="http://www.w3.org/2000/svg">
<g clip-path="url(#clip0_2109_3332)">
<mask id="mask0_2109_3332" style="mask-type:luminance" maskUnits="userSpaceOnUse" x="0" y="7" width="32" height="18">
<path d="M31.5 7H0.5V25H31.5V7Z" fill="white"/>
</mask>
<g mask="url(#mask0_2109_3332)">
<path d="M31.5025 8.41015C31.3221 9.25977 31.1352 10.1085 30.963 10.9608C30.5891 12.8099 30.2284 14.6617 29.8529 16.5116C29.8192 16.819 29.6788 17.1002 29.461 17.2964C29.2432 17.4927 28.9649 17.5889 28.6841 17.5649C28.6147 17.5649 28.5453 17.5739 28.4327 17.582C28.48 17.7237 28.5143 17.8439 28.56 17.9597C29.2301 19.7047 29.9125 21.4443 30.563 23.1983C30.6752 23.5132 30.7115 23.8547 30.6683 24.1896C30.6225 24.4083 30.5131 24.6046 30.3567 24.7487C30.2003 24.8928 30.0053 24.9769 29.8015 24.9881C29.5785 25.017 29.353 24.9643 29.1599 24.8384C28.9668 24.7124 28.8168 24.52 28.733 24.291C28.4547 23.6029 28.1968 22.9049 27.9299 22.2114C27.5495 21.2245 27.1643 20.2376 26.7937 19.2399C26.7745 19.1566 26.7288 19.0837 26.6649 19.0343C26.6009 18.9849 26.523 18.9624 26.4452 18.9708C25.5269 18.9816 24.6079 18.9824 23.6896 18.9708C23.6064 18.9614 23.5228 18.9858 23.4548 19.0393C23.3867 19.0928 23.3387 19.1718 23.3199 19.2615C22.7028 20.8871 22.0735 22.5065 21.454 24.1304C21.3944 24.3434 21.2836 24.5347 21.1334 24.6843C20.9831 24.8338 20.7989 24.936 20.6002 24.9801C20.4207 25.0206 20.2344 25.0049 20.0625 24.9348C19.8907 24.8647 19.7402 24.743 19.6281 24.5835C19.4986 24.4183 19.416 24.215 19.3908 23.9987C19.3655 23.7824 19.3987 23.5627 19.4861 23.3669C19.867 22.3663 20.2509 21.3662 20.6378 20.3668C20.9512 19.5504 21.2641 18.7336 21.5764 17.9166C21.614 17.8179 21.6475 17.7174 21.6923 17.5909C21.5136 17.5766 21.3658 17.5703 21.2157 17.5524C20.9616 17.5296 20.7247 17.4024 20.5521 17.1963C20.3795 16.9901 20.2839 16.72 20.2844 16.4399C20.2783 16.1539 20.3708 15.876 20.5431 15.6618C20.7155 15.4475 20.9551 15.3127 21.214 15.2843C21.3248 15.2741 21.436 15.2708 21.547 15.2744H27.9633C28.1347 14.4239 28.3045 13.5842 28.4735 12.7444C28.7959 11.1438 29.1134 9.54149 29.4407 7.94183C29.4787 7.6985 29.5885 7.47568 29.7531 7.30772C29.9177 7.13975 30.128 7.03596 30.3516 7.01235C30.5846 6.98492 30.8193 7.04489 31.0174 7.18252C31.2155 7.32014 31.3654 7.52734 31.4429 7.77047C31.4606 7.8079 31.4808 7.84389 31.5033 7.87813L31.5025 8.41015Z" fill="#061C3D"/>
<path d="M3.5669 17.6055C3.32418 17.5893 3.08325 17.5494 2.847 17.4861C2.66041 17.4132 2.4956 17.2853 2.37053 17.1165C2.24547 16.9477 2.16493 16.7445 2.13771 16.5288C1.77204 14.6783 1.40338 12.8286 1.03173 10.9798C0.862771 10.1401 0.690549 9.29314 0.527305 8.448C0.490835 8.29762 0.482466 8.14067 0.502703 7.98663C0.522941 7.8326 0.571365 7.68467 0.645052 7.55177C0.71874 7.41887 0.816163 7.30376 0.93144 7.2134C1.04672 7.12303 1.17746 7.05927 1.31577 7.02598C1.45207 6.99404 1.59283 6.99269 1.72961 7.022C1.8664 7.05131 1.99639 7.11069 2.11179 7.19656C2.22719 7.28244 2.32562 7.39305 2.40118 7.52176C2.47675 7.65047 2.52788 7.79462 2.55153 7.94558C3.02167 10.2468 3.47875 12.5517 3.9391 14.8538C3.96522 14.9821 3.9946 15.1095 4.0297 15.2683H4.39292C6.45142 15.2683 8.50993 15.2683 10.5684 15.2683C10.7071 15.2538 10.847 15.2702 10.9799 15.3164C11.1127 15.3626 11.2357 15.4377 11.3415 15.5372C11.4474 15.6367 11.534 15.7587 11.5961 15.8957C11.6581 16.0328 11.6945 16.1822 11.703 16.3351C11.7153 16.4818 11.7009 16.6298 11.6606 16.7703C11.6204 16.9109 11.5551 17.0412 11.4686 17.1538C11.3821 17.2664 11.276 17.3589 11.1567 17.4259C11.0373 17.493 10.907 17.5333 10.7733 17.5444C10.6248 17.5624 10.4754 17.5696 10.2917 17.5848C10.4729 18.0603 10.6427 18.5062 10.8133 18.9521C11.3732 20.4109 11.938 21.8679 12.4923 23.3294C12.5548 23.4629 12.5927 23.6086 12.6036 23.7583C12.6146 23.9079 12.5985 24.0584 12.5562 24.2012C12.514 24.3439 12.4464 24.4761 12.3573 24.5899C12.2683 24.7038 12.1597 24.7971 12.0376 24.8645C11.8125 24.9956 11.5505 25.0281 11.3045 24.9556C11.0584 24.883 10.8465 24.7107 10.7113 24.4733C10.5778 24.2138 10.4615 23.9439 10.3636 23.6659C9.79629 22.1981 9.22902 20.7312 8.6748 19.2572C8.65229 19.1632 8.59926 19.0816 8.52572 19.0277C8.45218 18.9738 8.36323 18.9514 8.27567 18.9647C7.37783 18.9781 6.47999 18.9808 5.58215 18.9647C5.49471 18.9534 5.40655 18.9778 5.33435 19.0332C5.26216 19.0886 5.21093 19.1711 5.19036 19.2652C4.56623 20.9118 3.93502 22.5549 3.29674 24.1943C3.21541 24.4715 3.04174 24.7045 2.81057 24.8468C2.5794 24.9891 2.30784 25.03 2.05037 24.9614C1.90015 24.9206 1.76013 24.8434 1.64052 24.7355C1.52092 24.6275 1.42475 24.4916 1.35904 24.3376C1.29333 24.1836 1.25975 24.0155 1.26073 23.8454C1.26172 23.6753 1.29726 23.5076 1.36475 23.3545C1.80224 22.1882 2.25687 21.0282 2.70416 19.8654C2.98984 19.1217 3.27551 18.3779 3.57099 17.6055" fill="#061C3D"/>
<path d="M14.9401 22.7169V12.8193H14.5728C12.8973 12.8193 11.2217 12.8193 9.54568 12.8193C9.37467 12.8263 9.20358 12.8076 9.03718 12.7637C8.80796 12.6882 8.60989 12.5272 8.47712 12.3084C8.34436 12.0896 8.28524 11.8267 8.30993 11.5651C8.33673 11.298 8.4477 11.0497 8.62363 10.8633C8.79955 10.6768 9.02932 10.5638 9.27307 10.5441C9.35469 10.5369 9.43631 10.5387 9.51793 10.5387C13.8385 10.5387 18.159 10.5387 22.4795 10.5387C22.6602 10.5335 22.8405 10.5608 23.0133 10.6195C23.2326 10.7097 23.4174 10.8795 23.5371 11.1008C23.6567 11.3221 23.7042 11.5816 23.6716 11.8366C23.6389 12.0915 23.5282 12.3265 23.3576 12.5029C23.187 12.6793 22.9668 12.7865 22.7333 12.8068C22.5023 12.8247 22.2697 12.8175 22.0371 12.8175H17.0541V22.7169C17.2647 22.7169 17.4622 22.708 17.663 22.7169C17.9335 22.7242 18.1904 22.8491 18.3774 23.0642C18.5643 23.2793 18.6661 23.567 18.6604 23.8644C18.6628 24.1568 18.5602 24.4384 18.3748 24.648C18.1894 24.8577 17.9363 24.9784 17.6703 24.9841C16.5499 25.0009 15.4295 25.0009 14.3091 24.9841C14.0434 24.9761 13.7914 24.853 13.6079 24.6416C13.4244 24.4302 13.3244 24.1476 13.3297 23.8555C13.326 23.558 13.4298 23.2711 13.6183 23.0576C13.8068 22.8442 14.0646 22.7217 14.3353 22.7169C14.5254 22.708 14.7164 22.7169 14.9442 22.7169" fill="#061C3D"/>
</g>
</g>
<defs>
<clipPath id="clip0_2109_3332">
<rect width="31" height="18" fill="white" transform="translate(0.5 7)"/>
</clipPath>
</defs>
</svg>
