<svg width="25" height="25" viewBox="0 0 25 25" fill="none" xmlns="http://www.w3.org/2000/svg">
<path d="M6.54653 15.0159C7.04101 15.0159 7.52441 14.928 7.93558 14.7632C8.34676 14.5984 8.66724 14.3641 8.85651 14.09C9.04577 13.8159 9.09531 13.5143 8.99885 13.2233C8.9024 12.9323 8.66429 12.665 8.31464 12.4552C7.96499 12.2454 7.5195 12.1026 7.03452 12.0447C6.54953 11.9868 6.04683 12.0165 5.59001 12.1301C5.13318 12.2436 4.74273 12.4359 4.46806 12.6826C4.19338 12.9293 4.04681 13.2194 4.04688 13.5161C4.04697 13.9138 4.31035 14.2953 4.77911 14.5765C5.24786 14.8578 5.88361 15.0158 6.54653 15.0159Z" fill="white"/>
<path d="M18.0469 15.0159C19.1514 15.0159 20.0469 14.3443 20.0469 13.5159C20.0469 12.6874 19.1514 12.0159 18.0469 12.0159C16.9423 12.0159 16.0469 12.6874 16.0469 13.5159C16.0469 14.3443 16.9423 15.0159 18.0469 15.0159Z" fill="white"/>
<path d="M1.05257 13.1203C1.05257 16.1292 3.51337 18.5678 6.54911 18.5678C7.93486 18.5697 9.2698 18.0508 10.2848 17.1157L12.0467 19.0159L13.8087 17.1168C14.8236 18.0511 16.1581 18.5695 17.5433 18.5675C20.5793 18.5675 23.0423 16.1284 23.0423 13.12C23.0431 12.3621 22.8839 11.6123 22.5749 10.919C22.266 10.2256 21.8141 9.60399 21.2483 9.09401L23.0469 7.15461H19.0597C16.9933 5.76108 14.5518 5.01587 12.0524 5.01587C9.55307 5.01587 7.11153 5.76108 5.0452 7.15461H1.04688L2.84544 9.09401C2.27982 9.60411 1.82811 10.2258 1.51935 10.9192C1.21058 11.6126 1.05158 12.3624 1.05257 13.1203ZM21.2624 13.1203C21.2624 13.8495 21.0442 14.5623 20.6355 15.1685C20.2267 15.7748 19.6458 16.2473 18.966 16.5264C18.2863 16.8054 17.5383 16.8784 16.8167 16.7362C16.0952 16.5939 15.4323 16.2428 14.9121 15.7272C14.3918 15.2116 14.0375 14.5547 13.894 13.8395C13.7505 13.1244 13.8241 12.3831 14.1057 11.7095C14.3873 11.0358 14.864 10.46 15.4758 10.0549C16.0875 9.64981 16.8067 9.43359 17.5425 9.43359C18.5291 9.43359 19.4752 9.82201 20.1729 10.5134C20.8705 11.2048 21.2624 12.1425 21.2624 13.1203ZM12.0459 6.79811C13.4637 6.79636 14.8676 7.07454 16.1757 7.61642C13.828 8.50674 12.0478 10.5883 12.0478 13.0139C12.0478 10.588 10.2671 8.5062 7.91911 7.61615C9.22629 7.0747 10.6292 6.79661 12.0459 6.79811ZM6.54911 9.43359C7.28484 9.43359 8.00406 9.64981 8.61579 10.0549C9.22753 10.46 9.70433 11.0358 9.98588 11.7095C10.2674 12.3831 10.3411 13.1244 10.1976 13.8395C10.054 14.5547 9.69974 15.2116 9.1795 15.7272C8.65926 16.2428 7.99643 16.5939 7.27483 16.7362C6.55324 16.8784 5.80528 16.8054 5.12555 16.5264C4.44583 16.2473 3.86485 15.7748 3.4561 15.1685C3.04735 14.5623 2.82918 13.8495 2.82918 13.1203C2.82918 12.1425 3.2211 11.2048 3.91872 10.5134C4.61634 9.82201 5.56252 9.43359 6.54911 9.43359Z" fill="white"/>
</svg>
