<svg width="20" height="20" viewBox="0 0 20 20" fill="none" xmlns="http://www.w3.org/2000/svg">
<path d="M6.3866 11.8253C6.10962 11.9363 5.77084 12 5.41512 12C4.934 12 4.49738 11.8839 4.19947 11.7051C3.89642 11.5233 3.83205 11.3432 3.83203 11.2501C3.83201 11.1783 3.86605 11.0633 4.01712 10.9276C4.17074 10.7897 4.41598 10.6606 4.73859 10.5804C5.0583 10.5009 5.41618 10.4792 5.76249 10.5205C6.11023 10.562 6.41112 10.6628 6.63126 10.7949C6.85429 10.9287 6.95225 11.0675 6.98407 11.1635C7.01035 11.2428 7.00612 11.3321 6.92861 11.4443C6.84239 11.5692 6.66755 11.7127 6.3866 11.8253Z" fill="black" stroke="black"/>
<path d="M16.1654 11.25C16.1654 11.4025 16.0841 11.5787 15.8772 11.7339C15.6702 11.8892 15.3612 12 14.9987 12C14.6362 12 14.3272 11.8892 14.1202 11.7339C13.9133 11.5787 13.832 11.4025 13.832 11.25C13.832 11.0975 13.9133 10.9213 14.1202 10.7661C14.3272 10.6108 14.6362 10.5 14.9987 10.5C15.3612 10.5 15.6702 10.6108 15.8772 10.7661C16.0841 10.9213 16.1654 11.0975 16.1654 11.25Z" fill="black" stroke="black"/>
<path d="M9.99786 5.15195C8.75168 5.1507 7.5176 5.39534 6.36755 5.87171L5.20261 6.35425L6.38167 6.80119C8.19513 7.4886 9.49949 9.06767 9.49949 10.8318H9.99949H10.4995C10.4995 9.06786 11.8034 7.48901 13.6167 6.80139L14.7954 6.3544L13.6308 5.87194C12.4799 5.3952 11.2449 5.15048 9.99786 5.15195ZM9.99786 5.15195C9.99805 5.15195 9.99825 5.15195 9.99844 5.15195L9.99791 5.65195L9.99729 5.15195C9.99748 5.15195 9.99767 5.15195 9.99786 5.15195ZM6.5589 6.33365L6.73612 5.86611C6.90777 5.93118 7.0765 6.00356 7.24165 6.08286C7.01108 6.15707 6.78329 6.2407 6.5589 6.33365ZM6.5589 6.33365L6.75024 6.79559C6.89993 6.73358 7.05123 6.67597 7.20392 6.62278C6.99595 6.51435 6.78046 6.41764 6.5589 6.33365ZM13.4394 6.33388C13.2179 6.41788 13.0024 6.5146 12.7945 6.62303C12.9472 6.67621 13.0984 6.73382 13.248 6.79581L13.4394 6.33388ZM13.4394 6.33388L13.2621 5.86636C13.0905 5.93143 12.9219 6.00381 12.7568 6.0831C12.9873 6.15731 13.215 6.24094 13.4394 6.33388ZM1.33678 10.9204L1.33677 10.9198C1.33605 10.3586 1.45377 9.80332 1.68252 9.28961C1.91128 8.77588 2.24609 8.31493 2.6657 7.93651L3.04221 7.59696L2.69745 7.22521L1.97764 6.44903H4.16397H4.31681L4.44353 6.36357C6.08263 5.25816 8.01985 4.66675 10.0033 4.66675C11.9868 4.66675 13.924 5.25816 15.5631 6.36357L15.6898 6.44903H15.8427H18.0198L17.2999 7.22521L16.9551 7.59705L17.3318 7.93659C17.7515 8.31492 18.0865 8.77582 18.3153 9.28952C18.5442 9.8032 18.6621 10.3585 18.6615 10.9197V10.9202C18.6615 13.1466 16.8374 14.9598 14.579 14.9598L14.5783 14.9598C13.5491 14.9612 12.5584 14.576 11.8055 13.883L11.4391 13.5456L11.1004 13.9108L9.99869 15.0982L8.89691 13.91L8.55804 13.5445L8.19149 13.8822C7.43861 14.5758 6.44752 14.9614 5.41791 14.96H5.41723C3.15933 14.96 1.33678 13.1475 1.33678 10.9204ZM17.5704 12.9068C17.9666 12.3192 18.1783 11.628 18.1783 10.9204C18.1783 9.97156 17.7979 9.06246 17.1223 8.39289C16.4469 7.72346 15.5317 7.34818 14.5784 7.34818C13.8674 7.34818 13.1719 7.55711 12.5801 7.94907C11.9881 8.34105 11.5261 8.89867 11.2531 9.55192C10.98 10.2052 10.9085 10.9244 11.0478 11.6182C11.187 12.312 11.5306 12.9487 12.0344 13.448C12.5382 13.9472 13.1794 14.2867 13.8769 14.4242C14.5743 14.5617 15.2973 14.4912 15.9545 14.2214C16.6118 13.9516 17.1743 13.4943 17.5704 12.9068ZM7.41553 7.94907C6.82364 7.55711 6.12824 7.34818 5.41723 7.34818C4.4639 7.34818 3.54873 7.72346 2.87327 8.39289C2.19766 9.06246 1.81728 9.97156 1.81728 10.9204C1.81728 11.628 2.029 12.3192 2.42514 12.9068C2.82124 13.4943 3.38376 13.9516 4.04105 14.2214C4.6983 14.4912 5.42126 14.5617 6.1187 14.4242C6.81617 14.2867 7.45744 13.9472 7.96118 13.448C8.46498 12.9487 8.80858 12.312 8.94783 11.6182C9.08709 10.9244 9.01557 10.2052 8.74253 9.55192C8.46951 8.89867 8.00746 8.34105 7.41553 7.94907Z" fill="black" stroke="black"/>
</svg>
