<svg width="24" height="17" viewBox="0 0 24 17" fill="none" xmlns="http://www.w3.org/2000/svg">
<path d="M23.5871 16.0138H0.459881C0.231811 16.0138 0.046875 15.8253 0.046875 15.5928V0.439025C0.046875 0.206563 0.231811 0.0180664 0.459881 0.0180664H23.5871C23.8152 0.0180664 24.0001 0.206563 24.0001 0.439025V15.5928C24.0001 15.8253 23.8151 16.0138 23.5871 16.0138Z" fill="#41479B"/>
<path d="M24.0002 0.439025C24.0002 0.206563 23.8152 0.0180664 23.5871 0.0180664H21.7394L14.0884 5.12732V0.0180664H9.95853V5.12732L2.30756 0.0180664H0.459882C0.231811 0.0180664 0.046875 0.206563 0.046875 0.439025V1.52771L6.61105 5.91121H0.046875V10.1206H6.61105L0.046875 14.5041V15.5928C0.046875 15.8253 0.231811 16.0138 0.459882 16.0138H2.30761L9.95862 10.9045V16.0138H14.0885V10.9045L21.7395 16.0138H23.5872C23.8153 16.0138 24.0002 15.8253 24.0002 15.5928V14.5041L17.4361 10.1207H24.0002V5.91125H17.436L24.0002 1.52771V0.439025Z" fill="#F5F5F5"/>
<path d="M24.0001 6.75312H13.2625V0.0180664H10.7845V6.75312H0.046875V9.27874H10.7845V16.0138H13.2625V9.27874H24.0001V6.75312Z" fill="#FF4B55"/>
<path d="M8.4187 10.1206L0.0585938 15.6519C0.0878334 15.8551 0.252277 16.0138 0.459855 16.0138H1.02869L9.93579 10.1207H8.4187V10.1206Z" fill="#FF4B55"/>
<path d="M16.2515 10.1206H14.7344L23.6285 16.0051C23.8358 15.9826 23.9994 15.8101 23.9994 15.5928V15.2467L16.2515 10.1206Z" fill="#FF4B55"/>
<path d="M0.046875 0.903668L7.61547 5.91119H9.13257L0.287483 0.059082C0.146196 0.125983 0.046875 0.269752 0.046875 0.438983V0.903668Z" fill="#FF4B55"/>
<path d="M15.6069 5.91125L23.9872 0.366595C23.9524 0.170038 23.7914 0.0180664 23.5885 0.0180664H22.9969L14.0898 5.91125H15.6069Z" fill="#FF4B55"/>
</svg>
