<svg width="28" height="28" viewBox="0 0 28 28" fill="none" xmlns="http://www.w3.org/2000/svg">
<circle cx="14" cy="14" r="13.5" fill="white" stroke="#E6E8EC"/>
<g clip-path="url(#clip0_3066_7727)">
<path d="M14.3546 25.5803C10.3176 25.4885 7.19484 24.1785 4.65232 21.5353C4.45479 21.33 4.46096 21.1886 4.60431 20.9581C5.75931 19.1008 7.30664 17.6738 9.29566 16.7316C10.011 16.3924 10.7387 16.4447 11.4472 16.7656C12.1935 17.1028 12.9678 17.3081 13.7909 17.3258C14.6455 17.3441 15.4815 17.2449 16.2573 16.873C17.2593 16.393 18.2051 16.4155 19.19 16.9723C20.9658 17.9764 22.3841 19.3204 23.4363 21.0553C23.5556 21.2518 23.4905 21.3551 23.3643 21.4897C21.5124 23.4613 19.2607 24.7434 16.5988 25.2818C15.7422 25.4552 14.8629 25.515 14.354 25.5803H14.3546Z" fill="#11202D"/>
<path d="M13.9972 4.50002C17.0425 4.50749 19.5418 6.99772 19.5171 9.99917C19.4924 13.0095 17.0061 15.4603 13.9849 15.4535C10.9547 15.446 8.47528 12.9904 8.46499 9.98694C8.45539 6.978 10.9609 4.49254 13.9972 4.50002Z" fill="#11202D"/>
</g>
<defs>
<clipPath id="clip0_3066_7727">
<rect width="19" height="21" fill="white" transform="translate(4.5 4.5)"/>
</clipPath>
</defs>
</svg>
