<svg width="48" height="32" viewBox="0 0 48 32" fill="none" xmlns="http://www.w3.org/2000/svg">
<rect x="0.5" y="0.5" width="47" height="31" rx="3.5" fill="white"/>
<path d="M32.5002 10.4935C31.909 10.259 30.9713 10 29.8119 10C26.852 10 24.7677 11.5784 24.7549 13.835C24.7303 15.4999 26.2472 16.4246 27.3817 16.9797C28.5413 17.547 28.9355 17.9172 28.9355 18.4229C28.9237 19.1994 27.9985 19.5574 27.1355 19.5574C25.9389 19.5574 25.2977 19.3729 24.3233 18.9408L23.9287 18.7556L23.5092 21.3577C24.2122 21.678 25.5074 21.9622 26.852 21.9746C29.9969 21.9746 32.0444 20.4207 32.0687 18.0159C32.0806 16.6963 31.2796 15.6852 29.5528 14.859C28.5044 14.3286 27.8625 13.971 27.8625 13.4283C27.8747 12.935 28.4055 12.4297 29.5888 12.4297C30.5632 12.4049 31.2791 12.6391 31.8215 12.8735L32.0926 12.9966L32.5002 10.4935Z" fill="#3362AB"/>
<path d="M21.6349 21.8019H18.6376L20.5123 10.2101H23.5094L21.6349 21.8019Z" fill="#3362AB"/>
<path fill-rule="evenodd" clip-rule="evenodd" d="M40.1835 10.2101H37.8652C37.1502 10.2101 36.607 10.4196 36.2986 11.1719L31.8466 21.8017H34.9915C34.9915 21.8017 35.5092 20.371 35.6205 20.0629H39.4688C39.5548 20.4698 39.8264 21.8017 39.8264 21.8017H42.6016L40.1835 10.2101ZM36.4838 17.6953C36.7306 17.0294 37.6804 14.452 37.6804 14.452C37.6754 14.462 37.7141 14.3549 37.7717 14.1952L37.7724 14.1933L37.7728 14.192C37.8589 13.9535 37.9866 13.5995 38.0748 13.3423L38.2842 14.3411C38.2842 14.3411 38.8518 17.1158 38.9751 17.6953H36.4838Z" fill="#3362AB"/>
<path d="M16.1342 10.2101L13.1989 18.1146L12.8781 16.5115L12.8778 16.5105L11.8298 11.1845C11.6572 10.4442 11.1268 10.2345 10.4732 10.2101H5.6509L5.60156 10.4443C6.7777 10.7451 7.82965 11.1785 8.75138 11.7174L11.4228 21.7896H14.5924L19.3035 10.2101H16.1342Z" fill="#3362AB"/>
<rect x="0.5" y="0.5" width="47" height="31" rx="3.5" stroke="#CDD2D8"/>
</svg>
