<svg width="19" height="19" viewBox="0 0 19 19" fill="none" xmlns="http://www.w3.org/2000/svg">
<g clip-path="url(#clip0_1391_36677)">
<path d="M1.68311 0.0158691H16.4106C17.3138 0.0158691 18.0469 0.748947 18.0469 1.6521V16.3796C18.0469 17.2828 17.3138 18.0159 16.4106 18.0159H1.68311C0.779953 18.0159 0.046875 17.2828 0.046875 16.3796V1.6521C0.046875 0.748947 0.779953 0.0158691 1.68311 0.0158691Z" fill="#FEDB00"/>
<path d="M7.51496 5.64527C7.37274 5.65626 7.31849 5.70684 7.1946 5.89671C6.36915 7.15614 4.04603 10.7189 3.67436 11.3112C3.36573 11.8039 3.24771 12.199 3.34667 12.5912C3.43098 12.9577 3.71468 13.2128 4.16039 13.3096C4.27328 13.3213 4.38178 13.2883 4.45655 13.1938C5.05841 12.4504 8.43204 7.92367 9.06395 7.0755C9.15045 6.96041 9.12919 6.91276 9.08081 6.81452C8.96352 6.57627 8.5244 6.09318 8.17473 5.86592C7.94087 5.71417 7.71289 5.6438 7.55527 5.6438C7.54135 5.6438 7.52815 5.64453 7.51496 5.646" fill="black"/>
<path d="M15.2269 13.0089C14.5239 11.5025 11.1143 4.46712 10.3761 2.84628C9.99493 2.00984 9.59613 0.964472 9.24132 0.0158691H5.00047C5.06204 1.4483 5.08184 2.17185 4.85165 2.84922C4.44553 4.039 3.12965 5.28597 2.2199 6.2507C1.90614 6.58205 3.1817 7.47714 4.53276 6.41931C5.02246 6.03444 5.79659 5.27644 6.42557 4.78454C6.70927 4.56022 7.07728 4.45539 7.45188 4.51037C7.9709 4.58588 8.32717 4.82559 8.69078 5.26178C9.05952 5.70309 9.40773 6.30201 9.88276 7.07834C10.7786 8.54377 11.7858 10.202 12.8657 11.9159C13.4147 12.7883 14.1463 13.1534 15.1485 13.1292C15.246 13.127 15.2592 13.072 15.2284 13.0082L15.2269 13.0089Z" fill="black"/>
<path d="M1.67188 14.7478V14.7764C1.67847 15.6488 2.40275 16.3752 3.27512 16.3818C3.27512 16.3818 14.7727 16.3892 14.7764 16.3892C15.6707 16.3892 16.4023 15.648 16.4089 14.7757V14.7478H1.67188Z" fill="black"/>
</g>
<defs>
<clipPath id="clip0_1391_36677">
<rect width="18" height="18" fill="white" transform="translate(0.046875 0.0158691)"/>
</clipPath>
</defs>
</svg>
