<svg width="20" height="20" viewBox="0 0 20 20" fill="none" xmlns="http://www.w3.org/2000/svg">
<path d="M14.4167 6.30368C15.0761 6.84895 16.8849 8.34457 16.5902 9.39451C16.4539 9.86607 15.9123 10.0171 15.5108 10.1644C14.5861 10.4997 13.6356 10.7649 12.6704 10.9601C11.8894 11.1186 10.2205 11.4648 10.53 10.0833C10.6515 9.54915 11.0826 9.096 11.4289 8.69444C12.1399 7.85822 12.8657 6.97401 13.724 6.28881C13.794 6.23351 13.8788 6.2188 13.9525 6.2299C14.0962 6.17106 14.2693 6.17845 14.4167 6.30368Z" fill="#C41200"/>
<path d="M13.4456 17.3261C12.8672 16.8583 12.4583 16.1252 12.1046 15.4842C11.7583 14.8653 11.2131 14.0474 11.121 13.3291C10.9332 11.8518 13.0735 12.7397 13.6888 12.9533C14.5066 13.2407 16.6986 13.5575 16.4554 14.8358C16.2528 15.8783 14.9965 17.1493 13.9467 17.3114C13.9357 17.3151 13.9209 17.3114 13.9062 17.3114C13.9025 17.3151 13.8988 17.3188 13.8952 17.3224C13.8657 17.3371 13.8325 17.3556 13.7994 17.3703C13.674 17.4367 13.5525 17.4109 13.4456 17.3261Z" fill="#C41200"/>
<path d="M8.65856 13.5242C9.82272 13.0417 9.92954 14.3421 9.92214 15.1305C9.91113 16.0699 9.88163 17.0129 9.81163 17.9487C9.78583 18.3281 9.80062 18.785 9.43957 19.0244C8.99381 19.3191 8.13548 19.087 7.67493 18.9434C7.66022 18.936 7.64543 18.9287 7.63072 18.925C6.66188 18.7555 5.47932 18.3098 5.36511 17.4146C5.35401 17.3114 5.3946 17.2193 5.45722 17.1493C5.48671 17.094 5.51613 17.0425 5.54933 16.9946C5.69304 16.7957 5.85877 16.6188 6.02458 16.4383C6.30453 16.0221 6.60666 15.6205 6.92712 15.2337C7.39129 14.6737 7.96227 13.8116 8.65856 13.5242Z" fill="#C41200"/>
<path d="M8.82657 9.48653C7.12824 8.09033 5.47412 5.92784 4.6194 3.92746C3.96732 2.40595 5.62514 1.47762 6.90343 1.05766C8.62756 0.490287 9.31276 0.983952 9.48589 2.70808C9.6296 4.1927 9.69591 5.6884 9.68482 7.18041C9.68112 7.81039 9.85794 8.82714 9.48958 9.3945C9.5485 9.62663 9.19855 9.79236 8.99962 9.63394C8.97012 9.61184 8.9407 9.58234 8.90751 9.55654C8.87809 9.53813 8.85229 9.51603 8.82657 9.48653Z" fill="#C41200"/>
<path d="M8.64406 11.6489C8.78038 12.2531 8.35302 12.4963 7.85205 12.7247C6.96052 13.1262 6.02479 13.4468 5.08537 13.712C4.5401 13.863 3.70388 14.2241 3.1771 13.8225C2.77924 13.5205 2.75344 12.8905 2.71663 12.4336C2.63561 11.4132 2.79033 8.97806 4.20494 8.87494C4.89753 8.82704 5.76325 9.44593 6.33062 9.77016C7.08583 10.2049 7.89633 10.7022 8.45992 11.3838C8.54456 11.4316 8.61457 11.5163 8.64406 11.6489Z" fill="#C41200"/>
</svg>
