<svg width="25" height="25" viewBox="0 0 25 25" fill="none" xmlns="http://www.w3.org/2000/svg">
<path d="M17.35 7.58031C18.1413 8.23463 20.3119 10.0294 19.9583 11.2893C19.7947 11.8552 19.1448 12.0364 18.6629 12.2132C17.5533 12.6155 16.4127 12.9338 15.2545 13.1681C14.3173 13.3582 12.3147 13.7737 12.686 12.1159C12.8318 11.4749 13.3491 10.9311 13.7647 10.4492C14.6179 9.44576 15.4888 8.38471 16.5188 7.56247C16.6028 7.49611 16.7045 7.47846 16.7929 7.49177C16.9654 7.42117 17.1732 7.43004 17.35 7.58031Z" fill="white"/>
<path d="M16.1824 20.8072C15.4883 20.2457 14.9976 19.366 14.5732 18.5968C14.1576 17.8541 13.5034 16.8727 13.3929 16.0107C13.1675 14.2379 15.7358 15.3034 16.4742 15.5598C17.4555 15.9046 20.0859 16.2848 19.7942 17.8187C19.551 19.0698 18.0435 20.595 16.7837 20.7895C16.7705 20.7939 16.7527 20.7895 16.7351 20.7895C16.7306 20.7939 16.7262 20.7984 16.7219 20.8027C16.6865 20.8204 16.6467 20.8426 16.6069 20.8602C16.4565 20.9399 16.3107 20.9089 16.1824 20.8072Z" fill="white"/>
<path d="M10.4387 16.245C11.8357 15.6659 11.9639 17.2264 11.955 18.1724C11.9418 19.2997 11.9064 20.4314 11.8224 21.5543C11.7914 22.0096 11.8092 22.5578 11.3759 22.8452C10.841 23.1988 9.81101 22.9203 9.25835 22.7479C9.2407 22.7391 9.22296 22.7303 9.20531 22.7259C8.04269 22.5225 6.62362 21.9876 6.48656 20.9134C6.47325 20.7896 6.52196 20.6791 6.5971 20.5951C6.63249 20.5287 6.66779 20.4669 6.70763 20.4094C6.88008 20.1707 7.07896 19.9585 7.27794 19.7419C7.61388 19.2424 7.97643 18.7605 8.36098 18.2963C8.91798 17.6243 9.60316 16.5898 10.4387 16.245Z" fill="white"/>
<path d="M10.6427 11.3998C8.60467 9.72437 6.61972 7.12937 5.59407 4.72891C4.81156 2.90311 6.80095 1.78911 8.3349 1.28515C10.4039 0.604311 11.2261 1.19671 11.4338 3.26567C11.6063 5.0472 11.6859 6.84205 11.6726 8.63245C11.6681 9.38843 11.8803 10.6085 11.4383 11.2894C11.509 11.5679 11.089 11.7668 10.8503 11.5767C10.8149 11.5502 10.7796 11.5148 10.7398 11.4838C10.7045 11.4617 10.6735 11.4352 10.6427 11.3998Z" fill="white"/>
<path d="M10.4229 13.9948C10.5865 14.7198 10.0736 15.0116 9.47245 15.2857C8.40263 15.7675 7.27975 16.1522 6.15244 16.4705C5.49812 16.6517 4.49465 17.085 3.86252 16.6031C3.38509 16.2406 3.35413 15.4847 3.30995 14.9364C3.21273 13.7119 3.3984 10.7897 5.09592 10.666C5.92703 10.6085 6.9659 11.3512 7.64674 11.7403C8.55299 12.262 9.5256 12.8587 10.2019 13.6766C10.3035 13.734 10.3875 13.8356 10.4229 13.9948Z" fill="white"/>
</svg>
