<svg width="124" height="42" viewBox="0 0 124 42" fill="none" xmlns="http://www.w3.org/2000/svg">
<rect x="1.16797" y="1.00024" width="122" height="40" rx="6.5" fill="black"/>
<path d="M84.2308 20.1811V22.5294H82.7589V24.0694H84.2308V29.302C84.2308 31.0888 85.0391 31.8035 87.0726 31.8035C87.43 31.8035 87.7703 31.7609 88.0681 31.7099V30.1869C87.8128 30.2124 87.6512 30.2294 87.3704 30.2294C86.46 30.2294 86.0601 29.804 86.0601 28.8341V24.0694H88.0681V22.5294H86.0601V20.1811H84.2308Z" fill="white"/>
<path d="M93.2483 31.9311C95.9539 31.9311 97.613 30.1188 97.613 27.1154C97.613 24.129 95.9454 22.3082 93.2483 22.3082C90.5426 22.3082 88.875 24.129 88.875 27.1154C88.875 30.1188 90.5341 31.9311 93.2483 31.9311ZM93.2483 30.306C91.6572 30.306 90.7639 29.1404 90.7639 27.1154C90.7639 25.1074 91.6572 23.9333 93.2483 23.9333C94.8308 23.9333 95.7327 25.1074 95.7327 27.1154C95.7327 29.1318 94.8308 30.306 93.2483 30.306Z" fill="white"/>
<path d="M99.0326 31.7524H100.862V26.2816C100.862 24.9798 101.84 24.1034 103.227 24.1034C103.55 24.1034 104.095 24.163 104.248 24.214V22.4103C104.052 22.3592 103.704 22.3337 103.431 22.3337C102.223 22.3337 101.194 22.9974 100.93 23.9077H100.794V22.4869H99.0326V31.7524Z" fill="white"/>
<path d="M108.79 23.8652C110.143 23.8652 111.028 24.8096 111.07 26.2645H106.391C106.493 24.8181 107.437 23.8652 108.79 23.8652ZM111.062 29.251C110.722 29.9742 109.964 30.3741 108.858 30.3741C107.395 30.3741 106.45 29.3446 106.391 27.7195V27.6174H112.934V26.9792C112.934 24.0694 111.377 22.3082 108.799 22.3082C106.187 22.3082 104.528 24.1885 104.528 27.1494C104.528 30.1103 106.153 31.9311 108.807 31.9311C110.926 31.9311 112.406 30.9101 112.823 29.251H111.062Z" fill="white"/>
<path d="M72.2347 28.3308C72.3758 30.606 74.2718 32.0611 77.0937 32.0611C80.1097 32.0611 81.9969 30.5354 81.9969 28.1015C81.9969 26.1879 80.921 25.1296 78.3107 24.5211L76.9085 24.1772C75.2506 23.7892 74.5804 23.2689 74.5804 22.3606C74.5804 21.2142 75.621 20.4646 77.1819 20.4646C78.6634 20.4646 79.6864 21.1965 79.8716 22.3694H81.794C81.6794 20.2265 79.7922 18.7185 77.2084 18.7185C74.4305 18.7185 72.5786 20.2265 72.5786 22.4929C72.5786 24.3624 73.628 25.4736 75.9297 26.0115L77.5699 26.4083C79.2543 26.8052 79.995 27.3872 79.995 28.3572C79.995 29.486 78.831 30.3062 77.2436 30.3062C75.5416 30.3062 74.36 29.5389 74.1924 28.3308H72.2347Z" fill="white"/>
<path d="M53.2852 22.3337C52.0259 22.3337 50.9369 22.9633 50.3753 24.0184H50.2392V22.4869H48.478V34.8324H50.3072V30.3485H50.4519C50.9369 31.327 51.9834 31.9056 53.3022 31.9056C55.642 31.9056 57.1309 30.0593 57.1309 27.1154C57.1309 24.1715 55.642 22.3337 53.2852 22.3337ZM52.7661 30.2634C51.2347 30.2634 50.2732 29.0553 50.2732 27.1239C50.2732 25.184 51.2347 23.9758 52.7747 23.9758C54.3232 23.9758 55.2506 25.1585 55.2506 27.1154C55.2506 29.0808 54.3232 30.2634 52.7661 30.2634Z" fill="white"/>
<path d="M63.5319 22.3337C62.2726 22.3337 61.1836 22.9633 60.622 24.0184H60.4859V22.4869H58.7247V34.8324H60.554V30.3485H60.6986C61.1836 31.327 62.2301 31.9056 63.5489 31.9056C65.8887 31.9056 67.3776 30.0593 67.3776 27.1154C67.3776 24.1715 65.8887 22.3337 63.5319 22.3337ZM63.0129 30.2634C61.4814 30.2634 60.5199 29.0553 60.5199 27.1239C60.5199 25.184 61.4814 23.9758 63.0214 23.9758C64.5699 23.9758 65.4973 25.1585 65.4973 27.1154C65.4973 29.0808 64.5699 30.2634 63.0129 30.2634Z" fill="white"/>
<path d="M45.1959 31.7524H47.2947L42.7002 19.0272H40.575L35.9805 31.7524H38.0087L39.1816 28.3749H44.0319L45.1959 31.7524ZM41.5362 21.3376H41.6861L43.5292 26.717H39.6843L41.5362 21.3376Z" fill="white"/>
<path d="M37.2109 9.429V15.5677H39.4273C41.2566 15.5677 42.3159 14.4404 42.3159 12.4792C42.3159 10.5478 41.2481 9.429 39.4273 9.429H37.2109ZM38.1639 10.2968H39.321C40.593 10.2968 41.346 11.1051 41.346 12.492C41.346 13.9001 40.6057 14.6999 39.321 14.6999H38.1639V10.2968Z" fill="white"/>
<path d="M45.5601 15.6571C46.913 15.6571 47.7425 14.7509 47.7425 13.2492C47.7425 11.756 46.9087 10.8456 45.5601 10.8456C44.2073 10.8456 43.3735 11.756 43.3735 13.2492C43.3735 14.7509 44.2031 15.6571 45.5601 15.6571ZM45.5601 14.8445C44.7646 14.8445 44.3179 14.2617 44.3179 13.2492C44.3179 12.2452 44.7646 11.6582 45.5601 11.6582C46.3514 11.6582 46.8023 12.2452 46.8023 13.2492C46.8023 14.2575 46.3514 14.8445 45.5601 14.8445Z" fill="white"/>
<path d="M54.807 10.935H53.8923L53.067 14.4702H52.9947L52.0418 10.935H51.1654L50.2125 14.4702H50.1444L49.3148 10.935H48.3874L49.6637 15.5677H50.6039L51.5568 12.1559H51.6291L52.5863 15.5677H53.535L54.807 10.935Z" fill="white"/>
<path d="M55.8603 15.5677H56.7749V12.8578C56.7749 12.1346 57.2046 11.6837 57.881 11.6837C58.5574 11.6837 58.8807 12.0538 58.8807 12.7983V15.5677H59.7954V12.5686C59.7954 11.4667 59.2253 10.8456 58.1916 10.8456C57.4939 10.8456 57.0344 11.1562 56.809 11.6709H56.7409V10.935H55.8603V15.5677Z" fill="white"/>
<path d="M61.2358 15.5677H62.1505V9.12695H61.2358V15.5677Z" fill="white"/>
<path d="M65.5904 15.6571C66.9432 15.6571 67.7728 14.7509 67.7728 13.2492C67.7728 11.756 66.9389 10.8456 65.5904 10.8456C64.2376 10.8456 63.4037 11.756 63.4037 13.2492C63.4037 14.7509 64.2333 15.6571 65.5904 15.6571ZM65.5904 14.8445C64.7948 14.8445 64.3482 14.2617 64.3482 13.2492C64.3482 12.2452 64.7948 11.6582 65.5904 11.6582C66.3816 11.6582 66.8326 12.2452 66.8326 13.2492C66.8326 14.2575 66.3816 14.8445 65.5904 14.8445Z" fill="white"/>
<path d="M70.498 14.8743C70.0002 14.8743 69.6386 14.6318 69.6386 14.2149C69.6386 13.8065 69.9279 13.5896 70.566 13.547L71.6976 13.4747V13.8618C71.6976 14.4361 71.1871 14.8743 70.498 14.8743ZM70.264 15.6443C70.8723 15.6443 71.3786 15.3806 71.6551 14.9169H71.7274V15.5677H72.608V12.4026C72.608 11.4242 71.9529 10.8456 70.7915 10.8456C69.7407 10.8456 68.992 11.3561 68.8984 12.1517H69.7833C69.8854 11.8241 70.2385 11.6369 70.749 11.6369C71.3743 11.6369 71.6976 11.9134 71.6976 12.4026V12.8025L70.4427 12.8749C69.3408 12.9429 68.7197 13.4236 68.7197 14.2575C68.7197 15.104 69.3706 15.6443 70.264 15.6443Z" fill="white"/>
<path d="M75.7118 15.6443C76.35 15.6443 76.8902 15.3423 77.1668 14.836H77.2391V15.5677H78.1154V9.12695H77.2008V11.6709H77.1327C76.8817 11.1604 76.3457 10.8584 75.7118 10.8584C74.542 10.8584 73.789 11.7858 73.789 13.2492C73.789 14.7169 74.5334 15.6443 75.7118 15.6443ZM75.9713 11.6794C76.7371 11.6794 77.2178 12.2878 77.2178 13.2535C77.2178 14.2234 76.7414 14.8233 75.9713 14.8233C75.1971 14.8233 74.7334 14.2319 74.7334 13.2492C74.7334 12.275 75.2013 11.6794 75.9713 11.6794Z" fill="white"/>
<path d="M84.0466 15.6571C85.3994 15.6571 86.229 14.7509 86.229 13.2492C86.229 11.756 85.3951 10.8456 84.0466 10.8456C82.6938 10.8456 81.8599 11.756 81.8599 13.2492C81.8599 14.7509 82.6895 15.6571 84.0466 15.6571ZM84.0466 14.8445C83.2511 14.8445 82.8044 14.2617 82.8044 13.2492C82.8044 12.2452 83.2511 11.6582 84.0466 11.6582C84.8379 11.6582 85.2888 12.2452 85.2888 13.2492C85.2888 14.2575 84.8379 14.8445 84.0466 14.8445Z" fill="white"/>
<path d="M87.4397 15.5677H88.3543V12.8578C88.3543 12.1346 88.784 11.6837 89.4604 11.6837C90.1368 11.6837 90.4601 12.0538 90.4601 12.7983V15.5677H91.3748V12.5686C91.3748 11.4667 90.8047 10.8456 89.771 10.8456C89.0733 10.8456 88.6138 11.1562 88.3884 11.6709H88.3203V10.935H87.4397V15.5677Z" fill="white"/>
<path d="M95.5872 9.78209V10.9562H94.8513V11.7262H95.5872V14.3425C95.5872 15.2359 95.9914 15.5933 97.0081 15.5933C97.1868 15.5933 97.357 15.572 97.5059 15.5465V14.785C97.3782 14.7977 97.2974 14.8062 97.157 14.8062C96.7018 14.8062 96.5019 14.5935 96.5019 14.1086V11.7262H97.5059V10.9562H96.5019V9.78209H95.5872Z" fill="white"/>
<path d="M98.7336 15.5677H99.6483V12.8621C99.6483 12.1602 100.065 11.688 100.814 11.688C101.461 11.688 101.805 12.0623 101.805 12.8025V15.5677H102.72V12.5771C102.72 11.4752 102.111 10.8499 101.124 10.8499C100.427 10.8499 99.9375 11.1604 99.7121 11.6794H99.6397V9.12695H98.7336V15.5677Z" fill="white"/>
<path d="M106.019 11.6241C106.696 11.6241 107.138 12.0963 107.159 12.8238H104.82C104.871 12.1006 105.343 11.6241 106.019 11.6241ZM107.155 14.317C106.985 14.6786 106.606 14.8786 106.053 14.8786C105.322 14.8786 104.849 14.3638 104.82 13.5513V13.5002H108.091V13.1812C108.091 11.7262 107.313 10.8456 106.024 10.8456C104.717 10.8456 103.888 11.7858 103.888 13.2662C103.888 14.7467 104.7 15.6571 106.028 15.6571C107.087 15.6571 107.827 15.1466 108.036 14.317H107.155Z" fill="white"/>
<path d="M26.0579 21.3086C26.0801 19.5856 27.0054 17.9552 28.4733 17.0527C27.5473 15.7301 25.9962 14.8916 24.3824 14.8411C22.6612 14.6604 20.9925 15.8711 20.1154 15.8711C19.2214 15.8711 17.8709 14.859 16.4167 14.889C14.5212 14.9502 12.7542 16.0279 11.832 17.685C9.84963 21.1172 11.3283 26.1612 13.2272 28.9355C14.1773 30.294 15.2876 31.8115 16.7405 31.7576C18.1623 31.6987 18.6933 30.851 20.4094 30.851C22.1096 30.851 22.6078 31.7576 24.0902 31.7234C25.6158 31.6987 26.577 30.3589 27.4937 28.9876C28.1763 28.0196 28.7016 26.9498 29.0501 25.8177C27.2572 25.0595 26.06 23.2552 26.0579 21.3086Z" fill="white"/>
<path d="M23.2579 13.0166C24.0897 12.018 24.4995 10.7346 24.4003 9.43872C23.1295 9.5722 21.9556 10.1796 21.1125 11.1398C20.2881 12.078 19.8591 13.3389 19.9402 14.5852C21.2115 14.5983 22.4613 14.0074 23.2579 13.0166Z" fill="white"/>
<rect x="1.16797" y="1.00024" width="122" height="40" rx="6.5" stroke="black"/>
</svg>
