<svg width="165" height="43" viewBox="0 0 165 43" fill="none" xmlns="http://www.w3.org/2000/svg">
<g clip-path="url(#clip0_3064_3894)">
<path d="M61.8166 12.1987L61.6537 11.99L61.5061 11.7609L61.4094 11.5827L61.3433 11.435L61.2924 11.2263L61.2415 10.9666L61.2109 10.707V10.3353L61.2262 10.1877L61.2415 10.0604L61.2567 9.91278L61.3534 9.62258L61.384 9.4953L61.4501 9.34766L61.5163 9.23565L61.5825 9.10837L61.6486 8.96073L61.7301 8.84872L61.8115 8.72144L61.9897 8.49234L62.0864 8.38033L62.295 8.1716L62.519 7.97813L62.6462 7.89667L62.9719 7.67266L63.1195 7.5912L63.2468 7.50975L63.4911 7.38247L63.6387 7.31628L63.8321 7.2501L63.995 7.18391L64.1578 7.133L64.336 7.06681L64.4988 7.0159L64.6464 7.00063L64.7737 6.97008L64.9213 6.95481L65.0689 6.9039L65.2165 6.87335L65.3437 6.85808L65.4913 6.8428L65.6542 6.82753L65.8476 6.81226H66.1886L66.8655 6.86317L67.2218 6.92935L67.3185 6.94463L67.6442 6.99554L67.7918 7.02608L67.9394 7.077L68.0666 7.12791L68.2142 7.17882L68.3415 7.22973L68.4687 7.29592L68.596 7.34683L68.7436 7.41301L68.9217 7.50975L69.0998 7.62175L69.2271 7.70321L69.3543 7.81522L69.563 7.96286L69.675 8.05959L69.7717 8.1716L69.8531 8.26833L70.0465 8.49234L70.2094 8.75199L70.2755 8.83345L70.357 8.98109L70.4079 9.10837L70.4588 9.25602L70.5555 9.51567L70.6064 9.66331L70.6216 9.79059L70.6725 10.2284V10.5848L70.6573 10.7935V10.9565L70.6267 11.2467L70.5962 11.3943L70.5453 11.542L70.5147 11.6692L70.418 11.9594L70.3875 12.0867L70.3213 12.2343L70.2552 12.3464L70.189 12.4736L70.1228 12.6213L70.0414 12.7486L69.96 12.8606L69.8785 12.9878L69.7666 13.1151L69.7004 13.1813L69.5884 13.3086L69.4917 13.4206L69.3798 13.5173L69.2831 13.6141L69.1711 13.7108L68.9115 13.8737L68.6672 14.0213L68.5552 14.0875L68.428 14.1537L68.2651 14.2199L68.1379 14.2505L67.8478 14.3472L67.7002 14.3777L67.573 14.4083L67.4253 14.4236L67.1352 14.4388L66.9876 14.4541H66.2446L66.0817 14.4388L65.8883 14.4083L65.6796 14.3574L65.5167 14.3268L65.2266 14.2454L65.0485 14.2148L64.9009 14.2454L64.8347 14.3574L64.7838 14.505L64.7329 14.6679L64.7024 14.7647L64.6719 14.9429L64.6413 15.0905L64.6108 15.3807L64.5803 15.5283L64.4836 15.8185L64.453 15.9662L64.4378 16.1138L64.3869 16.2615L64.3563 16.4091L64.3054 16.5568L64.2902 16.7197L64.224 17.0099L64.1731 17.1575L64.1426 17.2848L64.0764 17.4324L64.0255 17.5801L63.9593 17.7074L63.8779 17.855L63.7507 18.0026L63.542 18.1146L63.2824 18.1452L63.0076 18.0943L62.7989 17.9823L62.6869 17.8346L62.6717 17.687L62.7226 17.5597L62.7887 17.4121L62.8702 17.2339L62.9363 17.0404L62.9872 16.8775L63.0381 16.684L63.1043 16.4753L63.201 16.1851L63.2315 16.0222L63.2824 15.8134L63.3129 15.6352L63.3638 15.4876L63.3944 15.34L63.4096 15.1923L63.4402 15.0447L63.4707 14.9174L63.5013 14.7698L63.5522 14.6221L63.6031 14.4286L63.654 14.2199L63.7201 13.9297L63.7507 13.8024L63.7812 13.6242L63.8117 13.5428L63.8423 13.3646L63.8728 13.2373L63.9033 13.0897L63.9542 12.942L63.9848 12.7944L64.0357 12.6467L64.0662 12.438L64.1171 12.2445L64.2138 11.9543L64.3105 11.6947L64.3614 11.547L64.3919 11.3994L64.5039 11.0583L64.5701 10.8343L64.621 10.7375L64.7024 10.5135L64.8144 10.2692L64.8958 10.0757L64.9772 9.92805L65.1248 9.68367L65.2063 9.5564L65.2724 9.42912L65.3539 9.31711L65.4506 9.2051L65.6593 8.99637L65.7712 8.89963L66.0308 8.77236L66.1784 8.72144L66.4685 8.65526L66.6314 8.67053L66.779 8.70108L66.9266 8.78254L67.0233 8.89454L67.0538 9.04219L67.0029 9.15419L66.8757 9.23565L66.7637 9.31711L66.6365 9.39857L66.5398 9.4953L66.3464 9.71931L66.2649 9.83132L66.0054 10.3506L65.9392 10.4626L65.873 10.5899L65.8221 10.7375L65.7916 10.8852L65.7407 11.0328L65.6898 11.2263L65.6236 11.435L65.5575 11.5827L65.5066 11.7914L65.4557 11.9849L65.4251 12.1325L65.3742 12.2954L65.359 12.3922L65.3081 12.5551L65.2775 12.7027L65.2266 12.8504L65.2114 12.998L65.1961 13.1762L65.2266 13.3239L65.3386 13.4053L65.532 13.4715L65.7611 13.5021L65.8577 13.5173L66.0817 13.5479L66.2904 13.5784H66.4532L66.7433 13.5631L66.9367 13.5479L67.1454 13.5173L67.293 13.4664L67.4203 13.4155L67.5679 13.3493L67.7613 13.2679L67.9241 13.1711L68.1837 13.0082L68.2957 12.9267L68.3924 12.83L68.6825 12.4889L68.7945 12.3107L68.9217 12.0867L69.0184 11.9085L69.0998 11.7456L69.166 11.5521L69.2169 11.3587L69.2322 11.1958L69.2627 11.0023L69.3136 10.7935L69.3289 10.6306L69.3441 10.483L69.3289 10.3353L69.3136 10.1724L69.2831 10.0248L69.2169 9.81605L69.166 9.62258L69.0998 9.47494L69.0489 9.32729L68.9675 9.20001L68.8861 9.08801L68.8046 8.96073L68.596 8.75199L68.4993 8.63998L68.2753 8.44652L68.1481 8.36506L68.0208 8.29888L67.8732 8.23269L67.4864 8.06977L67.3388 8.00359L67.1912 7.95268L66.9164 7.88649L66.7535 7.87122L66.6059 7.85595L66.1529 7.84067H66.0054L65.8577 7.85595L65.5676 7.87122L65.42 7.88649L65.2928 7.91704L65.1452 7.94759L64.9976 7.9985L64.7228 8.06468L64.4327 8.16142L64.3054 8.2276L63.9644 8.40579L63.8015 8.48725L63.654 8.56871L63.201 8.95564L62.9923 9.16438L62.8956 9.27638L62.8142 9.38839L62.7327 9.51567L62.6666 9.64295L62.6157 9.77022L62.5648 9.91787L62.5139 10.0451L62.463 10.1928L62.4324 10.483L62.4477 10.6306V10.7935L62.4783 11.0023L62.5088 11.1958L62.5597 11.3434L62.6259 11.491L62.7531 11.7507L62.8345 11.878L62.9007 12.0052L62.8854 12.1325L62.8193 12.2802L62.7226 12.3922L62.6106 12.4889L62.463 12.5551L62.3154 12.5856L62.1678 12.5551L62.0202 12.4431L61.9082 12.3311L61.7962 12.2038L61.8166 12.1987Z" fill="black"/>
<path d="M75.0339 14.5763V14.7545L74.983 14.9021L74.8558 15.1617L74.7082 15.4061L74.6267 15.5538L74.5606 15.681L74.4639 15.8287L74.413 15.9254L74.3315 16.0731L74.2501 16.2003L74.1687 16.3123L74.072 16.4396L73.9905 16.5516L73.8277 16.8113L73.5376 17.1524L73.3441 17.3611L73.2322 17.4731L73.1355 17.5851L73.0235 17.6819L72.6672 17.9568L72.5553 18.0383L72.4077 18.1044L72.2601 18.1554L72.1328 18.1859L71.8427 18.2521H71.5679L71.3897 18.2368L71.2625 18.1859L71.1149 18.135L70.9877 18.0535L70.8757 17.9568L70.7943 17.8448L70.7128 17.7175L70.6467 17.5699L70.6161 17.4426L70.5856 17.2949L70.5703 17.1473V16.9997L70.6008 16.7095L70.6314 16.5618L70.6823 16.4142L70.7484 16.124L70.7993 15.9967L70.8299 15.8491L70.8808 15.7014L70.9317 15.5741L71.0793 15.1363L71.0945 15.009L71.1251 14.8614L71.176 14.7137L71.2065 14.5661L71.237 14.4388L71.3338 14.1486L71.3846 13.9551L71.4355 13.7464L71.5322 13.4562L71.5628 13.3086L71.5933 13.1966L71.6239 13.0489L71.69 12.886L71.7409 12.7587L71.8376 12.3209L71.8885 12.1732L71.9394 11.9798L72.0056 11.771L72.0565 11.6234L72.1226 11.4961L72.2193 11.4146L72.3669 11.3485L72.4942 11.3332L72.657 11.3485L72.9472 11.379L73.2067 11.4757L73.2882 11.5877V11.7354L73.2576 11.883L73.2067 12.0765L73.1558 12.2852L73.0591 12.5754L73.0286 12.7027L72.998 12.8504L72.9472 13.0133L72.8963 13.2067L72.7334 13.6904L72.7029 13.838L72.6367 14.0468L72.5247 14.3879L72.4942 14.5355L72.4636 14.6628L72.4331 14.8105L72.3211 15.0854L72.2906 15.233L72.1786 15.6352L72.0819 15.9254L72.0514 16.0731L72.0005 16.2818L71.9496 16.5415L71.9191 16.8164L71.9496 17.0607L72.0768 17.2389L72.255 17.2899L72.4026 17.2746L72.5502 17.2084L72.6621 17.1269L72.7894 17.0302L73.3238 16.4956L73.4205 16.3836L73.5019 16.2716L73.5986 16.1443L73.7615 15.8847L73.8582 15.7727L73.9244 15.676L74.0058 15.5487L74.1025 15.401L74.1687 15.2534L74.2959 14.9785L74.4893 14.5915L74.5707 14.4643L74.7183 14.3828L74.927 14.4133L75.0543 14.5763H75.0339ZM72.428 9.60728L72.5095 9.48L72.6367 9.368L72.7639 9.28654L72.9268 9.23562L73.0744 9.20508H73.2373L73.3849 9.23562L73.5121 9.31708L73.6241 9.41382L73.736 9.52582L73.8175 9.6531L73.8684 9.80074L73.8836 9.94839V10.1113L73.8328 10.2589L73.7513 10.3862L73.6546 10.5135L73.5426 10.6102L73.4154 10.707L73.2678 10.7732L73.1049 10.8037L72.9573 10.7884L72.7945 10.7579L72.5349 10.595L72.4382 10.483L72.3568 10.3557L72.3262 10.208L72.311 10.0604L72.3262 9.91275L72.3568 9.74983L72.4229 9.60219L72.428 9.60728Z" fill="black"/>
<path d="M81.985 18.2165L81.8374 18.1859L81.6898 18.135L81.5625 18.0688L81.4353 17.9721L81.2419 17.7481L81.1605 17.6208L81.1096 17.4731L81.0943 17.3255L81.079 17.1626L81.1096 16.8724L81.1248 16.7095L81.1554 16.4193L81.2215 16.1291L81.2521 16.0171L81.2826 15.8694L81.3335 15.6912L81.364 15.564L81.4149 15.4163L81.4455 15.2687L81.4964 15.121L81.5269 14.9734L81.5778 14.7799L81.644 14.5712L81.6745 14.4235L81.7254 14.2759L81.7559 14.1282L81.8068 13.9806L81.8374 13.8533L81.9035 13.5631L81.9188 13.4155L82.0155 12.9776L82.0308 12.83L82.0461 12.6671L82.0308 12.5194L81.9646 12.3922L81.8679 12.2954L81.7407 12.2649L81.5778 12.2496L81.4302 12.2802L81.303 12.3311L80.9162 12.5754L80.7889 12.6722L80.5599 12.8656L80.4632 12.9776L80.3512 13.0744L80.2545 13.1864L80.1578 13.3137L80.0764 13.4409L79.9949 13.5529L79.9135 13.6802L79.8168 13.7922L79.7354 13.9195L79.6692 14.0468L79.603 14.1944L79.4554 14.4541L79.4045 14.5814L79.3078 14.8716L79.2773 15.0192L79.2111 15.2127L79.1602 15.4061L79.1093 15.569L79.0584 15.7625L78.9923 15.956L78.9414 16.1189L78.8447 16.5058L78.8294 16.6687L78.7785 16.8775L78.7124 17.1371L78.6462 17.3459L78.5953 17.4935L78.5648 17.6208L78.5139 17.7684L78.4477 17.8957L78.351 17.9924L78.2034 18.0586L78.0558 18.0892L77.8929 18.1045L77.7301 18.0892H77.5672L77.4196 18.0586L77.2924 17.9924L77.2109 17.8957L77.2262 17.7481L77.2415 17.5852L77.272 17.3917L77.3229 17.1982L77.3891 17.0353L77.44 16.8266L77.5214 16.5669L77.5876 16.3073L77.6384 16.0985L77.669 15.9356L77.7657 15.5487L77.8624 15.1108L77.9133 14.9836L77.9642 14.8359L78.0151 14.6425L78.0456 14.449L78.0965 14.2861L78.127 14.1588L78.2238 13.8177L78.2747 13.6242L78.3255 13.4613L78.3561 13.2526L78.407 12.9929V12.718L78.3917 12.5093L78.295 12.382L78.1321 12.3005L77.9387 12.27L77.7911 12.3005L77.5977 12.382L77.4349 12.4787L77.3229 12.5907L77.0939 12.7842L76.9463 12.9115L76.7987 13.0591L76.702 13.1711L76.6205 13.2831L76.5544 13.4104L76.4577 13.558L76.3915 13.6395L76.2795 13.8177L76.1676 13.9806L76.0708 14.1282L75.9589 14.3064L75.7502 14.729L75.684 14.8766L75.6331 15.0243L75.6026 15.1719L75.5059 15.4621L75.4754 15.6098L75.4448 15.7727L75.3481 16.2105L75.2972 16.3582L75.2311 16.6484L75.1802 16.796L75.1496 16.9589L75.0987 17.1219L75.0682 17.2695L75.0377 17.3815L75.0071 17.5291L74.9562 17.6768L74.9053 17.8397L74.7934 17.9874L74.5694 18.0994L74.2946 18.1146L74.035 18.0994L73.7754 18.0026L73.6126 17.8397L73.582 17.6462L73.6126 17.4986L73.6787 17.3357L73.7093 17.239L73.7602 17.076L73.7907 16.9284L73.8416 16.7197L73.8925 16.5262L73.923 16.3785L74.0197 16.0883L74.0503 15.9611L74.1012 15.8134L74.1317 15.6658L74.1826 15.5385L74.2131 15.3909L74.264 15.2432L74.3149 15.0345L74.3658 14.841L74.3964 14.6934L74.4931 14.4032L74.544 14.1944L74.5949 14.001L74.6458 13.8533L74.6763 13.7057L74.6916 13.558L74.7425 13.4104L74.773 13.2627L74.8392 13.0693L74.9053 12.8605L74.9715 12.5704L75.002 12.4431L75.1649 11.715L75.2158 11.5878L75.282 11.4401L75.3939 11.3587L75.5568 11.3077L75.7197 11.2772L76.0454 11.3077L76.2083 11.3383L76.3559 11.4045L76.4831 11.5012L76.5493 11.6132L76.534 11.7609L76.4831 11.9238L76.4322 12.0714L76.4017 12.2191L76.3508 12.3667L76.3202 12.5296L76.2693 12.6773L76.2032 12.9675L76.1879 13.0642L76.2541 13.0336L76.3355 12.886L76.4322 12.7587L76.5136 12.6314L76.6103 12.5194L76.6918 12.3922L76.7885 12.2802L76.9005 12.1325L76.9972 12.0358L77.0786 11.939L77.3025 11.7456L77.5621 11.5674L77.6741 11.4859L77.8013 11.4045L77.9489 11.3383L78.0762 11.2874L78.239 11.2365L78.4019 11.2212H78.6767L78.8243 11.2365L78.9719 11.267L79.0992 11.3179L79.2264 11.3841L79.3384 11.4656L79.4351 11.5623L79.5318 11.6743L79.659 11.934L79.7099 12.0612L79.7608 12.2089L79.7761 12.3565V12.5042L79.7608 12.6976L79.7455 12.9064L79.7303 13.0184H79.7455L79.8117 12.9369L79.9084 12.8096L80.0051 12.6976L80.1833 12.4685L80.2952 12.3412L80.3614 12.2598L80.5701 12.0154L80.6668 11.9034L80.7787 11.8219L81.023 11.6285L81.1503 11.5318L81.2622 11.4503L81.3895 11.3841L81.5371 11.3179L81.6847 11.2874L81.8781 11.2568L82.1529 11.2416L82.2649 11.2263H82.4125L82.5601 11.2568L82.7535 11.3077L82.9469 11.3892L83.0945 11.4859L83.1912 11.5827L83.2726 11.7099L83.3388 11.8372L83.3693 11.9645L83.4202 12.1121L83.4355 12.2598L83.4508 12.3871V12.6773L83.4355 12.8249L83.4202 12.9878L83.3541 13.278L83.3032 13.4868L83.0589 14.2657L82.9927 14.4744L82.9418 14.6221L82.9113 14.8308L82.8604 15.009L82.8095 15.1719L82.7433 15.3654L82.6924 15.5589L82.6415 15.7218L82.5601 16.1087L82.5296 16.2716L82.499 16.4804L82.4685 16.7553L82.4838 17.0149L82.5346 17.2084L82.6314 17.3051L82.7942 17.2899L82.9215 17.2593L83.0334 17.1931L83.1607 17.1269L83.2879 17.0302L83.3999 16.9488L83.6238 16.7247L83.7053 16.6127L83.8987 16.3531L83.9801 16.2716L84.0768 16.1443L84.6417 15.2381L84.7079 15.0905L84.8555 14.8003L84.9064 14.7188L85.0031 14.5712L85.0693 14.4439L85.2169 14.3624L85.4103 14.393L85.5375 14.5559V14.7188L85.4714 14.8665L85.3899 15.0141L85.339 15.1414L85.2729 15.2534L85.1253 15.5436L85.0133 15.7371L84.9166 15.9L84.8352 16.0273L84.7537 16.1393L84.5094 16.5262L84.428 16.6382L84.2651 16.8826L84.1684 17.0098L83.9903 17.2339L83.7816 17.4426L83.6849 17.5546L83.5882 17.6513L83.3643 17.8448L83.237 17.9263L82.8502 18.1197L82.7026 18.1706L82.5754 18.2012L82.4125 18.2165H82.0868L81.9595 18.2012L81.985 18.2165Z" fill="black"/>
<path d="M89.9936 10.2896L89.9122 10.4372L89.7849 10.6969L89.7035 10.8751L89.5915 11.0533L89.5101 11.1653L89.4287 11.2925L89.3472 11.4045L89.2658 11.5522L89.1996 11.6489L89.1182 11.7762L89.0062 11.9238L88.8586 12.0868L88.711 12.2344L88.6449 12.3159L88.5329 12.4431L88.3242 12.6519L88.2275 12.7639L88.0494 12.9574L87.9374 13.0541L87.8102 13.1814L87.632 13.3086L87.3877 13.5174L87.2605 13.5988L86.9042 13.8228L86.7922 13.8738L86.665 13.9552L86.4869 14.1029L86.3749 14.2505L86.3087 14.3778L86.2782 14.556L86.2273 14.8462V14.9429L86.1968 15.1058L86.1662 15.2535L86.151 15.4164V15.7575L86.1357 15.9662V16.2921L86.1662 16.4703L86.1815 16.567L86.212 16.7299L86.2782 16.8776L86.3444 17.0048L86.4411 17.1168L86.5683 17.1983L86.6955 17.2492L86.8584 17.2798H87.1332L87.2605 17.2645L87.4081 17.2136L87.6015 17.1321L87.7796 17.0354L87.9069 16.9386L88.0697 16.8114L88.2173 16.6637L88.4107 16.4855L88.538 16.3735L88.6347 16.2462L88.7008 16.1648L88.7975 16.0375L88.8637 15.9255L88.9604 15.7779L89.0266 15.6964L89.1233 15.5488L89.2505 15.3044L89.332 15.1771L89.4287 15.0295L89.5101 14.8818L89.5915 14.7189L89.7391 14.5102L89.902 14.3829L90.1107 14.4134L90.2379 14.5763V14.7393L90.187 14.8869L90.1208 15.0142L90.0394 15.1415L89.9732 15.2891L89.9071 15.4164L89.8562 15.5437L89.7747 15.6709L89.7086 15.7829L89.6272 15.9102L89.5305 16.0579L89.4999 16.1393L89.4185 16.287L89.3218 16.4143L89.1589 16.6434L89.0469 16.791L88.9808 16.8572L88.8688 17.0048L88.7721 17.1168L88.6449 17.2798L88.4973 17.407L88.3853 17.519L88.2886 17.6005L88.1766 17.6972L88.029 17.7787L87.9018 17.8449L87.7542 17.9111L87.6269 17.9772L87.4997 18.0282L87.3521 18.0943L87.1587 18.1605L86.833 18.2267L86.6395 18.242L86.4614 18.2267H86.3647L86.2018 18.2114L86.0542 18.1809L85.927 18.13L85.7794 18.0791L85.6522 18.0129L85.5249 17.9314L85.413 17.8347L85.3163 17.738L85.2196 17.6259L85.1534 17.4987L85.0872 17.351L85.0363 17.2237L85.0058 17.0761L84.9549 16.9285L84.9396 16.7808L84.9091 16.6179V16.5212L84.8785 16.343L84.8633 16.1953V16.0477L84.8785 15.9L84.8938 15.7371V15.6404L84.9091 15.4317L84.96 15.0753L84.9753 14.8818V14.7342L85.0058 14.5865L85.0363 14.4236L85.1483 13.889L85.1992 13.6956L85.2501 13.4054L85.2806 13.3239L85.3315 13.1305L85.3621 13.0337L85.4282 12.7893L85.4791 12.5806L85.5097 12.433L85.5606 12.2395L85.6267 12.0155L85.642 11.9035L85.7082 11.6795L85.7743 11.4707L85.8252 11.3587L85.8914 11.15L85.9575 10.9565L86.0237 10.8089L86.1866 10.3863L86.2171 10.2896L86.3138 10.0656L86.4258 9.80592L86.5072 9.61245L86.5734 9.46481L86.6243 9.36808L86.7057 9.22043L86.8177 8.94551L86.8991 8.78259L86.9806 8.63495L87.0773 8.4873L87.2045 8.27857L87.4132 7.98837L87.5099 7.86109L87.7186 7.65235L87.7847 7.57089L87.8967 7.45889L88.0087 7.37743L88.2682 7.19924L88.4464 7.08723L88.6245 7.00578L88.7721 6.95486L88.9197 6.92432H89.2098L89.3727 6.95486L89.4694 6.97014L89.6322 7.02105L89.7595 7.08723L89.9834 7.2807L90.0649 7.40798L90.1768 7.57089L90.2583 7.76436L90.3244 7.912L90.3906 8.10547L90.4211 8.3142V8.6044L90.3906 9.04224L90.3244 9.33244L90.2735 9.45972L90.243 9.62263L90.1158 10.0096L90.0496 10.1368L89.9987 10.2845L89.9936 10.2896ZM87.3063 10.7427L87.0773 11.4198L87.0467 11.5675L86.9958 11.7151L86.9297 11.9238L86.8177 12.265L86.7668 12.4279L86.7515 12.5246L86.7006 12.6875L86.6497 12.8352L86.6192 12.9981L86.6497 13.0948L86.7464 13.0286L86.9093 12.9013L87.5709 12.2395L87.6524 12.1275L87.7338 12.0002L87.8305 11.8526L87.8967 11.7864L87.9934 11.6387L88.1054 11.4911L88.2173 11.3282L88.3293 11.15L88.4107 11.0227L88.4769 10.9107L88.5583 10.7987L88.6856 10.539L88.7517 10.3761L88.8026 10.2794L88.8688 10.1165L88.935 9.96883L88.9655 9.82119L89.0164 9.67355L89.0673 9.49536L89.1335 9.31716L89.1844 9.13897L89.2505 8.96078L89.2658 8.79787L89.2811 8.65022V8.34475L89.2505 8.21747L89.1996 8.09019L89.0876 8.00873L88.9604 7.97819L88.8128 8.00873L88.6652 8.12074L88.5532 8.21747L88.4718 8.3142L88.3904 8.42621L88.3089 8.55349L88.1461 8.79787L88.0646 8.94551L87.9985 9.09315L87.9323 9.22043L87.8661 9.36808L87.8 9.49536L87.7338 9.643L87.6829 9.77028L87.6168 9.94847L87.5201 10.1928L87.4539 10.3405L87.291 10.7427H87.3063Z" fill="black"/>
<path d="M93.5573 14.5763V14.7545L93.5064 14.9021L93.3792 15.1617L93.2316 15.4061L93.1502 15.5538L93.084 15.681L92.9873 15.8287L92.9364 15.9254L92.855 16.0731L92.7735 16.2003L92.6921 16.3123L92.5954 16.4396L92.514 16.5516L92.3511 16.8113L92.061 17.1524L91.8676 17.3611L91.7556 17.4731L91.6589 17.5851L91.5469 17.6819L91.1907 17.9568L91.0787 18.0383L90.9311 18.1044L90.7835 18.1554L90.6563 18.1859L90.3662 18.2521H90.0913L89.9132 18.2368L89.7859 18.1859L89.6383 18.135L89.5111 18.0535L89.3991 17.9568L89.3177 17.8448L89.2363 17.7175L89.1701 17.5699L89.1396 17.4426L89.109 17.2949L89.0938 17.1473V16.9997L89.1243 16.7095L89.1548 16.5618L89.2057 16.4142L89.2719 16.124L89.3228 15.9967L89.3533 15.8491L89.4042 15.7014L89.4551 15.5741L89.6027 15.1363L89.618 15.009L89.6485 14.8614L89.6994 14.7137L89.73 14.5661L89.7605 14.4388L89.8572 14.1486L89.9081 13.9551L89.959 13.7464L90.0557 13.4562L90.0862 13.3086L90.1168 13.1966L90.1473 13.0489L90.2135 12.886L90.2644 12.7587L90.3611 12.3209L90.412 12.1732L90.4629 11.9798L90.529 11.771L90.5799 11.6234L90.6461 11.4961L90.7428 11.4146L90.8904 11.3485L91.0176 11.3332L91.1805 11.3485L91.4706 11.379L91.7302 11.4757L91.8116 11.5877V11.7354L91.7811 11.883L91.7302 12.0765L91.6793 12.2852L91.5826 12.5754L91.552 12.7027L91.5215 12.8504L91.4706 13.0133L91.4197 13.2067L91.2568 13.6904L91.2263 13.838L91.1601 14.0468L91.0482 14.3879L91.0176 14.5355L90.9871 14.6628L90.9565 14.8105L90.8446 15.0854L90.814 15.233L90.7021 15.6352L90.6054 15.9254L90.5748 16.0731L90.5239 16.2818L90.473 16.5415L90.4425 16.8164L90.473 17.0607L90.6003 17.2389L90.7784 17.2899L90.926 17.2746L91.0736 17.2084L91.1856 17.1269L91.3128 17.0302L91.8472 16.4956L91.9439 16.3836L92.0254 16.2716L92.1221 16.1443L92.2849 15.8847L92.3816 15.7727L92.4478 15.676L92.5292 15.5487L92.6259 15.401L92.6921 15.2534L92.8193 14.9785L93.0127 14.5915L93.0942 14.4643L93.2418 14.3828L93.4505 14.4133L93.5777 14.5763H93.5573ZM90.9515 9.60728L91.0329 9.48L91.1601 9.368L91.2874 9.28654L91.4502 9.23562L91.5978 9.20508H91.7607L91.9083 9.23562L92.0355 9.31708L92.1475 9.41382L92.2595 9.52582L92.3409 9.6531L92.3918 9.80074L92.4071 9.94839V10.1113L92.3562 10.2589L92.2748 10.3862L92.1781 10.5135L92.0661 10.6102L91.9388 10.707L91.7912 10.7732L91.6284 10.8037L91.4808 10.7884L91.3179 10.7579L91.0583 10.595L90.9616 10.483L90.8802 10.3557L90.8497 10.208L90.8344 10.0604L90.8497 9.91275L90.8802 9.74983L90.9464 9.60219L90.9515 9.60728Z" fill="black"/>
<path d="M95.0229 18.1861L94.8957 18.1708L94.7481 18.1403L94.6005 18.0894L94.4071 18.0079L94.229 17.9112L94.0814 17.8297L93.9185 17.7025L93.7709 17.5548L93.6589 17.4581L93.5622 17.3461L93.4655 17.2493L93.3994 17.1221L93.3179 16.9744L93.2365 16.781L93.1551 16.6028L93.1042 16.4551L93.0533 16.2464L93.0227 16.0529L93.0075 15.89L92.9922 15.7424V15.4522L93.0075 15.3249L93.0227 15.1772L93.038 15.0143L93.0685 14.8209L93.1194 14.6121L93.1703 14.4645L93.2009 14.3168L93.3128 13.9757L93.3943 13.7975L93.4757 13.6499L93.7353 13.1306L93.8167 13.0033L93.9796 12.7742L94.2035 12.5298L94.2544 12.4636L94.3664 12.3364L94.4784 12.2396L94.5751 12.1429L94.687 12.0462L94.799 11.9647L94.9262 11.868L95.0382 11.7865L95.1655 11.7203L95.2927 11.6389L95.4047 11.5727L95.5319 11.5065L95.71 11.425L96.051 11.3283L96.2292 11.2774L96.3768 11.2469L96.5244 11.2316L96.6872 11.2163H96.9621L97.1097 11.2316L97.3184 11.2621L97.5627 11.3283L97.7713 11.3945L97.9189 11.4454L98.0309 11.5116L98.1429 11.5931L98.2548 11.6898L98.3515 11.8018L98.4482 11.8985L98.5144 12.0462L98.5806 12.2244L98.6315 12.4178L98.6467 12.5807L98.6315 12.7742L98.5806 12.9829L98.5297 13.1306L98.4635 13.2579L98.3821 13.3851L98.2701 13.5481L98.1581 13.6957L98.0614 13.8077L97.9495 13.9044L97.8222 13.9706L97.6136 14.0012H97.354L97.0944 13.935L96.9315 13.823V13.6601L97.013 13.5124L97.1249 13.3342L97.2216 13.1866L97.2878 13.0389L97.3184 12.9117L97.3489 12.764V12.6367L97.3184 12.4891L97.2064 12.3262L97.0435 12.2142L96.8959 12.1633L96.7483 12.148L96.6007 12.1633L96.4073 12.1938L96.2139 12.26L96.0663 12.3262L95.9543 12.4076L95.8271 12.5044L95.7151 12.5858L95.5879 12.6826L95.4607 12.8302L95.3487 12.9422L95.2367 13.0899L95.0891 13.268L94.9924 13.4462L94.9262 13.5939L94.8448 13.7212L94.7786 13.8332L94.7125 13.9604L94.6616 14.1081L94.6107 14.2354L94.5598 14.383L94.5089 14.5918L94.458 14.7852L94.4275 14.9481L94.3969 15.1416L94.3816 15.3503L94.3664 15.5133V15.722L94.3816 15.9816L94.4325 16.2057L94.4834 16.3686L94.6463 16.6944L94.743 16.8217L94.8397 16.9184L94.9517 17.0151L95.1298 17.0966L95.3232 17.1781L95.4708 17.2086L95.6795 17.2392H96.0358L96.4073 17.2086L96.5549 17.1781L96.7331 17.1272L96.8806 17.061L97.0588 16.9642L97.2369 16.8828L97.6237 16.6384L97.7866 16.5111L97.9342 16.3838L98.1581 16.1904L98.3515 15.9664L98.4482 15.8696L98.6417 15.6456L98.8045 15.4216L98.9012 15.274L98.9521 15.1772L99.0641 14.999L99.1608 14.8361L99.227 14.6885L99.3389 14.4797L99.5018 14.3677L99.7105 14.3983L99.8377 14.5459V14.7241L99.7868 14.8514L99.7206 14.9787L99.6545 15.1263L99.573 15.2892L99.4611 15.4674L99.3338 15.6456L99.2066 15.8391L98.9623 16.1955L98.8656 16.3228L98.7842 16.4348L98.6722 16.5468L98.3821 16.8879L98.3006 16.9999L98.2039 17.0966L98.092 17.1933L97.868 17.3563L97.7713 17.4377L97.6594 17.5192L97.5118 17.6312L97.3845 17.7126L97.2573 17.7788L97.13 17.8603L96.9366 17.9417L96.7432 18.0079L96.5651 18.0588L96.3717 18.0894L96.1783 18.1403L95.8882 18.1912L95.4505 18.2421L95.1604 18.2116L95.0128 18.181L95.0229 18.1861Z" fill="black"/>
<path d="M103.728 17.3103L103.499 17.5038L103.24 17.6667L103.113 17.7329L102.853 17.8958L102.726 17.962L102.436 18.0587L102.273 18.1096L101.983 18.1605L101.886 18.1911L101.723 18.2216L101.596 18.2369H101.448L101.27 18.2522H101.122L100.832 18.2216L100.654 18.1707L100.507 18.1198L100.395 18.0689L100.247 18.018L100.12 17.9518L99.8603 17.7889L99.7483 17.6921L99.5549 17.463L99.4735 17.3358L99.4073 17.2085L99.3259 17.0812L99.2292 16.791L99.163 16.5008L99.1325 16.2106L99.1172 16.0477L99.1325 15.9V15.4469L99.163 15.2993L99.1935 15.172L99.2241 15.0244L99.275 14.7342L99.3055 14.5713L99.336 14.4236L99.3869 14.2963L99.4378 14.1487L99.504 14.001L99.5702 13.8738L99.6211 13.7261L99.7025 13.5327L99.7992 13.3392L99.8806 13.2119L99.9773 13.0846L100.059 12.9726L100.155 12.8606L100.318 12.601L100.415 12.489L100.624 12.2802L100.848 12.0868L100.96 12.0053L101.087 11.9086L101.234 11.8118L101.413 11.6998L101.591 11.6031L101.718 11.5369L101.881 11.4707L101.978 11.4402L102.156 11.374L102.252 11.3435L102.415 11.2925L102.563 11.262L102.726 11.2467L102.873 11.2314H103.245L103.504 11.262L103.713 11.2925L103.861 11.3231L104.008 11.374L104.136 11.4402L104.426 11.6184L104.604 11.7151L104.716 11.8118L104.797 11.9086L104.894 12.0206L104.991 12.1479L105.184 12.5042L105.235 12.6519L105.25 12.7995L105.265 12.9268L105.332 13.217V13.7821L105.301 13.9756L105.286 14.1538L105.271 14.3167L105.174 14.8004L105.108 15.0244L105.057 15.1873L104.991 15.3502L104.924 15.5284L104.874 15.676L104.777 15.8542L104.629 16.1444L104.548 16.3226L104.563 16.4346L104.69 16.4499H104.787L104.965 16.4346L105.077 16.4193L105.225 16.3888L105.388 16.3226L105.5 16.2564L105.759 16.0935L105.871 15.9968L106.08 15.788L106.273 15.5589L106.355 15.4469L106.436 15.3197L106.517 15.2076L106.645 14.948L106.792 14.6731L106.843 14.5763L106.94 14.4287L107.088 14.3472L107.281 14.3778L107.408 14.5254L107.423 14.7036L107.373 14.8513L107.179 15.2382L107.098 15.3502L106.935 15.6098L106.869 15.7371L106.787 15.8491L106.691 15.9764L106.609 16.0884L106.512 16.1852L106.304 16.4092L106.207 16.5059L106.095 16.6026L105.983 16.6841L105.856 16.7808L105.744 16.847L105.484 16.9743L105.337 17.0405L105.209 17.071L104.629 17.1372L104.451 17.1219L104.303 17.1067L104.176 17.0761L104.049 17.0608L103.937 17.1117L103.825 17.1932L103.728 17.3052V17.3103ZM100.527 15.5488L100.512 15.7422L100.527 15.9051L100.542 16.1139L100.573 16.3735L100.639 16.6332L100.751 16.8776L100.863 17.0405L100.99 17.1525L101.168 17.2339L101.413 17.3001H101.621L101.784 17.2848L101.947 17.2543L102.095 17.1881L102.222 17.1219L102.369 17.0405L102.497 16.959L102.609 16.8623L102.736 16.7655L102.802 16.6535V16.5568L102.736 16.4448L102.654 16.3175L102.624 16.1699L102.654 15.9764L102.721 15.7829L102.833 15.6862L102.96 15.6048L103.107 15.5895L103.255 15.62L103.367 15.6506L103.464 15.6353L103.53 15.5386L103.581 15.4113L103.774 14.8309L103.871 14.3931L103.901 14.1843L103.952 13.9094L103.983 13.3596L103.968 13.0999L103.901 12.825L103.805 12.5806L103.693 12.4177L103.566 12.321L103.372 12.2395L103.128 12.1886L102.919 12.1733H102.756L102.629 12.2039L102.481 12.2548L102.319 12.3515L102.191 12.433L102.044 12.5297L101.881 12.657L101.769 12.7537L101.657 12.8657L101.575 12.9777L101.479 13.0897L101.397 13.217L101.234 13.441L101.153 13.5683L100.827 14.2149L100.776 14.3625L100.746 14.4898L100.649 14.78L100.619 14.9073L100.568 15.0549L100.552 15.2026V15.3502L100.522 15.5437L100.527 15.5488Z" fill="black"/>
<path d="M112.833 6.87331L112.996 6.85804L113.144 6.84277L113.47 6.85804H113.582L113.745 6.87331L113.892 6.88859L114.197 6.9395L114.635 7.03623L114.762 7.06678L114.91 7.09733L115.058 7.16351L115.205 7.21442L115.332 7.24497L115.623 7.3417L115.75 7.40789L115.897 7.47407L116.025 7.54026L116.33 7.65226L116.457 7.71845L116.569 7.76936L116.717 7.83554L116.844 7.88646L117.424 8.04937L117.587 8.10029L117.684 8.13083L117.847 8.18174L118.01 8.19702L118.218 8.22756H118.412L118.59 8.24284L118.88 8.21229L119.007 8.19702L119.155 8.16647L119.302 8.11556L119.43 8.04937L119.542 7.96791L119.669 7.88646L119.766 7.805L119.877 7.70827L119.959 7.59626L120.025 7.46898L120.091 7.32134L120.142 7.1126L120.254 6.90386L120.463 6.80713L120.707 6.8224L120.9 6.93441L120.982 7.09733L121.012 7.26024V7.42316L120.982 7.5708L120.931 7.71845L120.9 7.88136L120.85 8.02901L120.783 8.15629L120.733 8.26829L120.651 8.41594L120.539 8.54322L120.442 8.65522L120.33 8.76723L120.183 8.86396L120.005 8.96069L119.679 9.12361L119.531 9.18979L119.404 9.22034L119.277 9.23562L119.129 9.26616L118.951 9.28144L118.824 9.29671L118.631 9.28144H118.452L118.274 9.26616L118.081 9.23562L117.658 9.1847L117.511 9.15416L117.058 9.02688L116.864 9.0116L116.717 9.09306L116.651 9.22034L116.6 9.38326L116.549 9.56145L116.518 9.72437L116.467 9.93311L116.417 10.1266L116.335 10.4168L116.284 10.5644L116.254 10.7121L116.223 10.8393L116.193 10.987L116.142 11.1346L116.091 11.2619L116.076 11.4095L116.009 11.6997L115.958 11.827L115.928 11.9747L115.831 12.2649L115.78 12.4736L115.75 12.6671L115.719 12.83L115.689 12.9776L115.658 13.1049L115.495 13.5886L115.429 13.7973L115.399 13.9449L115.348 14.0926L115.22 14.673L115.17 14.8359L115.139 14.9326L115.088 15.0955L115.037 15.2432L114.971 15.3705L114.92 15.4978L114.854 15.6454L114.803 15.7727L114.656 16.2105L114.589 16.3378L114.523 16.4854L114.457 16.6127L114.376 16.7247L114.131 17.1117L114.05 17.2237L113.856 17.4477L113.745 17.5444L113.648 17.6564L113.536 17.7379L113.409 17.8346L113.261 17.9161L113.134 17.9822L113.022 18.0332L112.874 18.0993L112.747 18.1503L112.599 18.1808L112.452 18.1961L112.289 18.2113L112.141 18.2266L112.014 18.2419H111.866L111.704 18.2266L111.495 18.2113L111.235 18.1604L111.072 18.1095L110.894 18.0586L110.686 17.9772L110.508 17.8804L110.38 17.799L110.217 17.6513L110.039 17.4731L109.912 17.3102L109.831 17.1473L109.78 17.0658L109.714 16.9029L109.663 16.7756L109.632 16.628L109.617 16.4193L109.602 16.2258L109.617 16.0629L109.632 15.8694L109.663 15.6607L109.81 15.2228L109.892 15.0955L109.958 14.9683L110.039 14.8563L110.121 14.729L110.217 14.6017L110.314 14.505L110.411 14.393L110.523 14.3115L110.65 14.2453L110.798 14.2148L110.925 14.2301L111.072 14.281L111.184 14.3624L111.281 14.4744L111.347 14.5864V14.7341L111.266 14.9123L111.139 15.1363L111.042 15.3145L110.976 15.4774L110.925 15.6709L110.874 15.9305V16.2054L110.905 16.4142L110.955 16.5618L111.052 16.74L111.164 16.9029L111.291 17.0149L111.454 17.1117L111.698 17.2084L111.907 17.2389L112.07 17.2542H112.218L112.345 17.2237L112.492 17.1727L112.62 17.0913L112.732 17.0098L112.925 16.8164L113.022 16.7044L113.118 16.5567L113.185 16.4091L113.378 16.0221L113.444 15.8745L113.495 15.7269L113.561 15.5996L113.612 15.4519L113.678 15.3043L113.729 15.177L113.826 14.8868L113.877 14.7595L113.928 14.5813L113.958 14.4846L114.009 14.3064L114.075 14.0162L114.091 13.8889L114.141 13.7108L114.172 13.614L114.223 13.39L114.274 13.1965L114.371 12.9063L114.401 12.7587L114.452 12.6314L114.503 12.4838L114.554 12.3565L114.569 12.2089L114.635 11.9187L114.666 11.7914L114.717 11.6437L114.747 11.4961L114.798 11.3485L114.849 11.155L114.915 10.9615L114.946 10.7986L114.961 10.651L115.012 10.5237L115.093 10.2335L115.159 10.0247L115.21 9.83128L115.307 9.54109L115.338 9.39344L115.388 9.19998L115.439 8.99124L115.49 8.82832L115.506 8.65013L115.475 8.50249L115.378 8.42103L115.103 8.29375L114.976 8.22756L114.798 8.17665L114.411 8.04937L114.233 7.99846L114.106 7.94755L113.816 7.88136L113.653 7.86609L113.505 7.85082L113.327 7.83554H112.889L112.599 7.90173L112.08 8.16138L111.968 8.24284L111.856 8.35484L111.775 8.46685L111.678 8.64504L111.597 8.83851L111.566 8.98615V9.14907L111.581 9.27634L111.632 9.42399L111.698 9.53599L111.81 9.648L111.922 9.72946L112.05 9.79564L112.197 9.84656L112.345 9.86183H112.492L112.64 9.84656L112.767 9.81601L112.915 9.78546L113.062 9.73455L113.225 9.66836L113.307 9.61745L113.47 9.55127L113.633 9.58181L113.76 9.67855L113.841 9.80583L113.892 9.96874L113.862 10.1164L113.734 10.2437L113.571 10.3709L113.424 10.4524L113.23 10.5491L113.001 10.6459L112.793 10.7273L112.645 10.7782L112.436 10.8088L112.213 10.8241H111.81L111.617 10.7731L111.424 10.707L111.276 10.6408L111.098 10.5593L110.92 10.4473L110.793 10.3353L110.726 10.2691L110.599 10.1571L110.518 10.0451L110.452 9.91783L110.37 9.72437L110.304 9.54618L110.273 9.38326L110.258 9.22034L110.243 9.0727V8.92505L110.258 8.76214L110.309 8.61449L110.34 8.48721L110.406 8.33957L110.569 8.07992L110.65 7.96791L110.747 7.84064L110.94 7.61153L111.052 7.49953L111.164 7.41807L111.439 7.27043L111.566 7.20424L111.693 7.12278L112.131 6.97514L112.279 6.94459L112.747 6.87841L112.844 6.86313L112.833 6.87331Z" fill="black"/>
<path d="M125.923 15.0142L125.892 15.0956L125.811 15.2586L125.729 15.3706L125.663 15.4978L125.597 15.6455L125.531 15.7728L125.368 16.0324L125.287 16.1444L125.205 16.2717L125.139 16.399L125.057 16.5263L124.961 16.6383L124.864 16.7655L124.767 16.8775L124.589 17.1016L124.493 17.2136L124.396 17.3103L123.943 17.6972L123.816 17.7787L123.668 17.8601L123.49 17.9416L123.296 18.0231L123.149 18.074L123.001 18.1045H122.838L122.645 18.0892L122.452 18.0383L122.304 17.9874L122.192 17.906L122.08 17.8092L121.968 17.6463L121.856 17.4681L121.805 17.3205L121.754 17.127L121.739 16.9183V16.7554L121.754 16.5466L121.77 16.3532L121.719 16.3226L121.637 16.4346L121.474 16.6943L121.312 16.9183L121.215 17.0303L121.133 17.1423L121.037 17.2543L120.955 17.3663L120.843 17.463L120.747 17.5598L120.635 17.6565L120.523 17.738L120.395 17.8194L120.217 17.9314L119.973 18.0434L119.713 18.1249L119.505 18.1758L119.215 18.2063L119.052 18.1911L118.858 18.1605L118.665 18.1096L118.517 18.0587L118.39 18.0078L118.278 17.9263L118.054 17.7329L117.973 17.6209L117.891 17.4936L117.795 17.3154L117.698 17.071L117.647 16.8623L117.632 16.6994L117.601 16.4906L117.586 16.231V16.0222L117.601 15.8593L117.616 15.6506L117.647 15.4571L117.698 15.2942L117.749 15.1007L117.8 14.892L117.851 14.7443L117.917 14.6171L117.968 14.4694L118.354 13.6905L118.436 13.5632L118.517 13.4512L118.599 13.3239L118.762 13.0948L118.858 12.9828L119.067 12.7384L119.133 12.6722L119.245 12.545L119.469 12.3515L119.617 12.2039L119.795 12.0766L120.019 11.8984L120.146 11.8169L120.258 11.7355L120.406 11.6693L120.599 11.5878L120.777 11.4911L120.94 11.4096L121.133 11.3434L121.327 11.2925L121.49 11.2416L121.892 11.2111L122.039 11.1958H122.233L122.558 11.2111L122.93 11.2416L123.286 11.3078L123.434 11.3384L123.612 11.3893L124.258 11.6795L124.37 11.7762L124.482 11.8577L124.594 11.9544L124.691 12.0664L124.722 12.2446L124.655 12.4737L124.477 12.6671L124.299 12.7792L124.172 12.7944L124.045 12.7435L123.917 12.6468L123.77 12.5653L123.643 12.4839L123.531 12.433L123.403 12.3668L123.256 12.3006L123.129 12.27L122.854 12.2039L122.691 12.1529L122.528 12.1224H122.202L122.09 12.1377L121.927 12.1529L121.719 12.2039L121.317 12.3515L121.154 12.433L120.991 12.5297L120.879 12.6111L120.752 12.6926L120.64 12.7741L120.528 12.8708L120.4 12.9828L120.334 13.049L120.222 13.1763L120.126 13.2883L120.044 13.4003L119.851 13.6243L119.769 13.7363L119.688 13.8636L119.495 14.2505L119.413 14.3778L119.316 14.668L119.25 14.8156L119.184 14.9429L119.087 15.3807L119.036 15.5437L118.986 15.9815V16.4346L119.001 16.5975L119.052 16.7452L119.118 16.8725L119.199 16.9997L119.296 17.0965L119.444 17.1626L119.637 17.1932L119.846 17.1779L119.993 17.127L120.253 16.9997L120.482 16.8063L120.579 16.7095L120.691 16.6128L120.787 16.5008L120.869 16.3888L120.965 16.2768L121.047 16.1648L121.225 15.9204L121.306 15.8084L121.551 15.4215L121.647 15.2433L121.759 15.0345L121.826 14.9378L122.019 14.5152L122.085 14.3676L122.116 14.2556L122.182 14.1079L122.233 13.9807L122.284 13.833L122.35 13.6548L122.447 13.329L122.513 13.1508L122.564 12.9879L122.66 12.8402L122.823 12.7588L122.971 12.7282L123.118 12.7435L123.266 12.7741L123.526 12.9013L123.653 12.9828L123.719 13.0795L123.734 13.2272L123.683 13.3545L123.653 13.5021L123.602 13.6497L123.536 13.9399L123.485 14.0876L123.454 14.2149L123.358 14.5051L123.327 14.668L123.312 14.7647L123.261 14.9582L123.23 15.1058L123.164 15.3807L123.113 15.5742L123.083 15.7371L123.052 15.9153L123.001 16.1597L122.95 16.4346L122.935 16.679L122.95 16.8877L123.032 17.015L123.195 17.0965L123.439 17.1117L123.632 17.0456L123.78 16.9641L124.004 16.8012L124.116 16.6892L124.309 16.4804L124.503 16.2564L124.666 16.0273L124.747 15.9L124.844 15.7728L124.874 15.676L125.134 15.2891L125.2 15.1618L125.281 15.0345L125.607 14.388L125.755 14.3065L125.948 14.3371L126.075 14.5L126.091 14.6629L126.025 14.8105L125.943 14.9734L125.923 15.0142Z" fill="black"/>
<path d="M129.137 12.3413L129.01 12.4075L128.898 12.4737L128.786 12.5551L128.658 12.6518L128.546 12.7486L128.287 12.9268L128.175 13.0082L128.063 13.105L127.951 13.217L127.757 13.441L127.646 13.553L127.452 13.777L127.289 14.0366L127.193 14.1639L126.999 14.5509L126.821 15.0854L126.77 15.2942L126.704 15.5385L126.638 15.7473L126.541 16.1851L126.475 16.3939L126.409 16.6382L126.358 16.847L126.307 16.9946L126.256 17.2034L126.226 17.3815L126.175 17.5445L126.159 17.6921L126.129 17.8194L126.078 17.9467L125.981 18.0281L125.834 18.079L125.686 18.0943L125.477 18.1096L125.233 18.0943L125.024 18.0638L124.897 17.9976L124.8 17.8499L124.785 17.6717L124.816 17.5088L124.867 17.3001L124.917 17.1066L124.948 16.959L124.999 16.8113L125.029 16.6637L125.08 16.5364L125.131 16.3888L125.162 16.2411L125.192 16.1138L125.223 15.9662L125.274 15.8186L125.325 15.6913L125.391 15.4011L125.421 15.2738L125.437 15.1262L125.488 14.9785L125.518 14.8309L125.569 14.6832L125.62 14.4898L125.686 14.281L125.767 13.9908L125.798 13.8635L125.829 13.7159L125.879 13.5683L125.91 13.4206L125.961 13.2933L125.991 13.1457L126.042 12.998L126.093 12.7893L126.144 12.5958L126.175 12.4482L126.271 12.158L126.302 12.0307L126.353 11.8831L126.419 11.5929L126.531 11.43L126.74 11.318L126.999 11.2874L127.259 11.318L127.503 11.3994L127.666 11.5623L127.696 11.7558L127.666 11.9187L127.635 12.0307L127.584 12.1784L127.554 12.326L127.503 12.4533L127.472 12.6009L127.422 12.7486L127.391 12.8962L127.376 12.993L127.391 13.0082L127.457 12.9268L127.554 12.8148L127.635 12.7028L127.829 12.4787L127.941 12.382L128.149 12.2038L128.261 12.1071L128.47 11.8984L128.796 11.6387L128.923 11.5572L129.05 11.4911L129.177 11.4096L129.305 11.3587L129.452 11.3078L129.661 11.2569L129.854 11.2263H130.226L130.486 11.2569L130.664 11.2874L130.811 11.3536L130.959 11.4351L131.071 11.5471L131.152 11.6591L131.234 11.7863L131.3 11.9136L131.351 12.0613L131.402 12.2547L131.432 12.4482V12.7537L131.417 12.9013V13.049L131.402 13.1762L131.371 13.3239L131.341 13.4868L131.31 13.5835L131.259 13.7464L131.208 13.9552L131.142 14.1996L131.076 14.4083L131.025 14.5559L130.974 14.7647L130.908 15.0396L130.842 15.2993L130.776 15.5233L130.745 15.6709L130.715 15.7829L130.684 15.9306L130.633 16.0782L130.603 16.2055L130.506 16.6433L130.491 16.791V17.0812L130.557 17.2084L130.669 17.2899L130.816 17.3052L130.964 17.2543L131.112 17.1881L131.239 17.1066L131.351 17.0252L131.478 16.9284L131.687 16.7197L131.768 16.6077L131.865 16.4804L131.946 16.3684L132.058 16.2411L132.14 16.1291L132.236 15.9815L132.384 15.7371L132.481 15.5894L132.532 15.508L132.628 15.3603L132.71 15.2127L132.837 14.9531L132.903 14.8054L132.954 14.6781L133.005 14.5305L133.086 14.4032L133.234 14.3065L133.443 14.3574L133.57 14.5203V14.6832L133.519 14.8309L133.453 14.9581L133.387 15.1058L133.32 15.2331L133.239 15.3603L133.173 15.4876L133.076 15.6353L133.025 15.732L132.862 16.0222L132.832 16.1189L132.75 16.2666L132.588 16.5262L132.491 16.6739L132.425 16.7553L132.328 16.8826L132.216 17.0303L132.119 17.1423L131.941 17.3357L131.844 17.4477L131.62 17.6412L131.524 17.7379L131.397 17.8347L131.269 17.9161L131.01 18.0434L130.883 18.0943L130.735 18.1452L130.587 18.1758L130.46 18.191L130.297 18.2063H130.15L130.002 18.191L129.875 18.1605L129.727 18.1096L129.6 18.0587L129.473 17.9772L129.376 17.8957L129.279 17.7837L129.213 17.6361L129.162 17.5088L129.132 17.3612L129.101 17.2339V16.8775L129.132 16.6688L129.147 16.5059L129.198 16.2971L129.345 15.7625L129.396 15.4876L129.463 15.2127L129.529 14.9531L129.595 14.7443L129.646 14.5967L129.712 14.3879L129.778 14.1283L129.829 13.8686L129.895 13.6599L129.961 13.3697L129.977 13.2221L130.043 12.9166L130.058 12.7689L130.027 12.606L129.931 12.4431L129.783 12.2955L129.636 12.2446L129.488 12.2293L129.34 12.2446L129.162 12.3107L129.137 12.3413Z" fill="black"/>
<path d="M133.801 12.8604L133.913 12.7484L134.106 12.5244L134.447 12.2342L134.559 12.1527L134.686 12.056L134.798 11.9746L134.925 11.9084L135.073 11.8422L135.317 11.7149L135.465 11.6334L135.755 11.5367L135.882 11.4858L136.172 11.4196L136.32 11.4043L136.483 11.3891L136.773 11.3585H137.144L137.353 11.3891L137.531 11.4196L137.643 11.4349L137.74 11.384L137.806 11.272L137.837 11.1243L137.933 10.8341L137.964 10.7069L138.015 10.5592L138.127 10.2843L138.178 10.1214L138.208 10.0246L138.274 9.86172L138.305 9.73444L138.402 9.44424L138.452 9.31696L138.615 8.8333L138.697 8.63984L138.793 8.34964L138.844 8.22236L138.911 8.05944L138.941 7.96271L139.068 7.67252L139.119 7.54524L139.267 7.27031L139.333 7.14303L139.481 7.03103L139.659 6.96484H139.822L139.969 6.98012L140.132 7.01066L140.229 7.04121L140.392 7.09212L140.504 7.17358L140.554 7.30086L140.524 7.42814L140.493 7.57578L140.427 7.72343L140.361 7.85071L140.31 7.97799L140.259 8.12563L140.178 8.31909L140.112 8.51256L140.046 8.69075L139.852 9.21005L139.786 9.40351L139.705 9.59698L139.654 9.74462L139.603 9.8719L139.491 10.213L139.409 10.4065L139.358 10.5694L139.18 11.104L139.15 11.2516L139.099 11.3789L139.048 11.5265L138.997 11.6538L138.946 11.8015L138.895 11.9287L138.865 12.0764L138.834 12.2037L138.804 12.3513L138.753 12.4989L138.702 12.6262L138.651 12.7739L138.62 12.9215L138.59 13.0488L138.559 13.1964L138.508 13.3441L138.458 13.5528L138.391 13.7616L138.361 13.8583L138.31 14.0365L138.279 14.1841L138.249 14.3776L138.218 14.5863L138.122 15.0242L138.106 15.1718L138.076 15.3194L138.045 15.5282L138.015 15.7217L138 15.8693L137.969 16.0169L137.954 16.1646V16.3122L137.969 16.4751L137.984 16.6839L138.035 16.8773L138.086 17.025L138.183 17.1217L138.31 17.1726L138.458 17.1879L138.585 17.1574L138.732 17.1064L138.86 17.025L139.15 16.7653L139.262 16.6533L139.425 16.4242L139.587 16.1646L139.811 15.8387L139.893 15.7115L139.959 15.5842L140.04 15.4365L140.203 15.0802L140.285 14.9325L140.351 14.8205L140.417 14.6729L140.498 14.4947L140.677 14.3674L140.87 14.3979L140.982 14.5609V14.7696L140.901 14.9631L140.819 15.126L140.722 15.3042L140.626 15.5129L140.56 15.6096L140.366 15.9966L140.269 16.1442L140.061 16.4853L139.898 16.745L139.816 16.857L139.72 16.9843L139.638 17.0963L139.542 17.193L139.43 17.2897L139.318 17.417L139.252 17.4832L139.14 17.6105L139.028 17.7072L138.9 17.7887L138.788 17.8549L138.661 17.921L138.239 18.0687L138.091 18.0992H137.964L137.816 18.1145L137.669 18.0992L137.521 18.0687L137.394 18.0025L137.267 17.921L137.17 17.8396L137.058 17.7276L136.895 17.5036L136.829 17.3763L136.778 17.2286L136.747 17.1014L136.697 16.6635V16.358L136.666 16.3428L136.585 16.4548L136.503 16.5821L136.356 16.8417L136.274 16.9537L136.177 17.0657L135.999 17.2897L135.903 17.3865L135.562 17.6767L135.414 17.7887L135.251 17.9159L135.104 18.0127L134.976 18.0789L134.813 18.1298L134.442 18.2112L134.279 18.2418L134.131 18.2571L134.004 18.2418L133.857 18.2265L133.709 18.196L133.582 18.1654L133.434 18.0992L133.322 18.033L133.195 17.9363L133.047 17.7887L132.9 17.6614L132.818 17.5341L132.752 17.4068L132.701 17.2592L132.605 16.9995L132.554 16.8519L132.538 16.7042L132.523 16.5108V16.302L132.508 16.1544V16.0068L132.523 15.8438L132.538 15.6504L132.569 15.4416L132.599 15.294L132.65 15.1311L132.666 15.0343L132.716 14.8714L132.767 14.7238L132.915 14.3369L132.966 14.1892L133.093 13.9296L133.19 13.7514L133.271 13.5732L133.368 13.4103L133.434 13.3288L133.531 13.2015L133.694 12.9724L133.79 12.8604H133.801ZM137.099 12.2953L136.793 12.3106H136.646L136.498 12.3411L136.335 12.3717L136.238 12.4022L136.076 12.4684L135.928 12.5193L135.78 12.5855L135.653 12.667L135.541 12.7484L135.429 12.8451L135.317 12.9571L135.093 13.1506L134.997 13.2473L134.9 13.3594L134.707 13.6037L134.625 13.7157L134.544 13.8634L134.35 14.2198L134.269 14.347L134.218 14.4743L134.167 14.622L134.116 14.7492L134.05 14.8969L133.953 15.2838L133.902 15.4315L133.872 15.6402L133.857 15.8337L133.841 15.9966L133.872 16.2053L133.902 16.465L133.933 16.6737L133.984 16.8213L134.065 16.9333L134.162 17.0301L134.274 17.1268L134.421 17.193L134.615 17.2235L134.808 17.2083L134.971 17.1421L135.068 17.0912L135.215 17.0097L135.327 16.9283L135.521 16.7348L135.633 16.6075L135.73 16.4955L135.841 16.3835L135.923 16.2715L136.004 16.1442L136.101 15.9966L136.213 15.8031L136.325 15.6555L136.391 15.5282L136.457 15.3805L136.508 15.2533L136.574 15.1056L136.656 14.9122L136.737 14.734L136.803 14.5863L136.854 14.459L137.083 13.7819L137.15 13.5732L137.277 13.0539L137.328 12.8451L137.379 12.6822L137.409 12.504L137.358 12.3564L137.246 12.2902H137.099V12.2953Z" fill="black"/>
<path d="M144.877 17.3103L144.648 17.5038L144.388 17.6667L144.261 17.7329L144.001 17.8958L143.874 17.962L143.584 18.0587L143.421 18.1096L143.131 18.1605L143.034 18.1911L142.872 18.2216L142.744 18.2369H142.597L142.419 18.2522H142.271L141.981 18.2216L141.803 18.1707L141.655 18.1198L141.543 18.0689L141.396 18.018L141.268 17.9518L141.009 17.7889L140.897 17.6921L140.703 17.463L140.622 17.3358L140.556 17.2085L140.474 17.0812L140.378 16.791L140.311 16.5008L140.281 16.2106L140.266 16.0477L140.281 15.9V15.4469L140.311 15.2993L140.342 15.172L140.373 15.0244L140.423 14.7342L140.454 14.5713L140.484 14.4236L140.535 14.2963L140.586 14.1487L140.652 14.001L140.719 13.8738L140.769 13.7261L140.851 13.5327L140.948 13.3392L141.029 13.2119L141.126 13.0846L141.207 12.9726L141.304 12.8606L141.467 12.601L141.563 12.489L141.772 12.2802L141.996 12.0868L142.108 12.0053L142.235 11.9086L142.383 11.8118L142.561 11.6998L142.739 11.6031L142.866 11.5369L143.029 11.4707L143.126 11.4402L143.304 11.374L143.401 11.3435L143.564 11.2925L143.711 11.262L143.874 11.2467L144.022 11.2314H144.393L144.653 11.262L144.862 11.2925L145.009 11.3231L145.157 11.374L145.284 11.4402L145.574 11.6184L145.752 11.7151L145.864 11.8118L145.946 11.9086L146.042 12.0206L146.139 12.1479L146.332 12.5042L146.383 12.6519L146.399 12.7995L146.414 12.9268L146.48 13.217V13.7821L146.449 13.9756L146.434 14.1538L146.419 14.3167L146.322 14.8004L146.256 15.0244L146.205 15.1873L146.139 15.3502L146.073 15.5284L146.022 15.676L145.925 15.8542L145.778 16.1444L145.696 16.3226L145.711 16.4346L145.839 16.4499H145.935L146.114 16.4346L146.226 16.4193L146.373 16.3888L146.536 16.3226L146.648 16.2564L146.908 16.0935L147.02 15.9968L147.228 15.788L147.422 15.5589L147.503 15.4469L147.584 15.3197L147.666 15.2076L147.793 14.948L147.941 14.6731L147.992 14.5763L148.088 14.4287L148.236 14.3472L148.429 14.3778L148.557 14.5254L148.572 14.7036L148.521 14.8513L148.328 15.2382L148.246 15.3502L148.083 15.6098L148.017 15.7371L147.936 15.8491L147.839 15.9764L147.758 16.0884L147.661 16.1852L147.452 16.4092L147.355 16.5059L147.243 16.6026L147.132 16.6841L147.004 16.7808L146.892 16.847L146.633 16.9743L146.485 17.0405L146.358 17.071L145.778 17.1372L145.6 17.1219L145.452 17.1067L145.325 17.0761L145.197 17.0608L145.085 17.1117L144.974 17.1932L144.877 17.3052V17.3103ZM141.675 15.5488L141.66 15.7422L141.675 15.9051L141.691 16.1139L141.721 16.3735L141.787 16.6332L141.899 16.8776L142.011 17.0405L142.139 17.1525L142.317 17.2339L142.561 17.3001H142.77L142.933 17.2848L143.095 17.2543L143.243 17.1881L143.37 17.1219L143.518 17.0405L143.645 16.959L143.757 16.8623L143.884 16.7655L143.95 16.6535V16.5568L143.884 16.4448L143.803 16.3175L143.772 16.1699L143.803 15.9764L143.869 15.7829L143.981 15.6862L144.108 15.6048L144.256 15.5895L144.403 15.62L144.515 15.6506L144.612 15.6353L144.678 15.5386L144.729 15.4113L144.923 14.8309L145.019 14.3931L145.05 14.1843L145.101 13.9094L145.131 13.3596L145.116 13.0999L145.05 12.825L144.953 12.5806L144.841 12.4177L144.714 12.321L144.521 12.2395L144.276 12.1886L144.068 12.1733H143.905L143.777 12.2039L143.63 12.2548L143.467 12.3515L143.34 12.433L143.192 12.5297L143.029 12.657L142.917 12.7537L142.805 12.8657L142.724 12.9777L142.627 13.0897L142.546 13.217L142.383 13.441L142.301 13.5683L141.976 14.2149L141.925 14.3625L141.894 14.4898L141.798 14.78L141.767 14.9073L141.716 15.0549L141.701 15.2026V15.3502L141.67 15.5437L141.675 15.5488Z" fill="black"/>
<path d="M152.416 17.3103L152.187 17.5038L151.927 17.6667L151.8 17.7329L151.54 17.8958L151.413 17.962L151.123 18.0587L150.96 18.1096L150.67 18.1605L150.573 18.1911L150.411 18.2216L150.283 18.2369H150.136L149.958 18.2522H149.81L149.52 18.2216L149.342 18.1707L149.194 18.1198L149.082 18.0689L148.935 18.018L148.807 17.9518L148.548 17.7889L148.436 17.6921L148.242 17.463L148.161 17.3358L148.095 17.2085L148.013 17.0812L147.917 16.791L147.85 16.5008L147.82 16.2106L147.805 16.0477L147.82 15.9V15.4469L147.85 15.2993L147.881 15.172L147.912 15.0244L147.962 14.7342L147.993 14.5713L148.024 14.4236L148.074 14.2963L148.125 14.1487L148.192 14.001L148.258 13.8738L148.309 13.7261L148.39 13.5327L148.487 13.3392L148.568 13.2119L148.665 13.0846L148.746 12.9726L148.843 12.8606L149.006 12.601L149.103 12.489L149.311 12.2802L149.535 12.0868L149.647 12.0053L149.774 11.9086L149.922 11.8118L150.1 11.6998L150.278 11.6031L150.405 11.5369L150.568 11.4707L150.665 11.4402L150.843 11.374L150.94 11.3435L151.103 11.2925L151.25 11.262L151.413 11.2467L151.561 11.2314H151.932L152.192 11.262L152.401 11.2925L152.548 11.3231L152.696 11.374L152.823 11.4402L153.113 11.6184L153.291 11.7151L153.403 11.8118L153.485 11.9086L153.581 12.0206L153.678 12.1479L153.871 12.5042L153.922 12.6519L153.938 12.7995L153.953 12.9268L154.019 13.217V13.7821L153.989 13.9756L153.973 14.1538L153.958 14.3167L153.861 14.8004L153.795 15.0244L153.744 15.1873L153.678 15.3502L153.612 15.5284L153.561 15.676L153.464 15.8542L153.317 16.1444L153.235 16.3226L153.251 16.4346L153.378 16.4499H153.475L153.653 16.4346L153.765 16.4193L153.912 16.3888L154.075 16.3226L154.187 16.2564L154.447 16.0935L154.559 15.9968L154.767 15.788L154.961 15.5589L155.042 15.4469L155.124 15.3197L155.205 15.2076L155.332 14.948L155.48 14.6731L155.531 14.5763L155.627 14.4287L155.775 14.3472L155.968 14.3778L156.096 14.5254L156.111 14.7036L156.06 14.8513L155.867 15.2382L155.785 15.3502L155.622 15.6098L155.556 15.7371L155.475 15.8491L155.378 15.9764L155.297 16.0884L155.2 16.1852L154.991 16.4092L154.895 16.5059L154.783 16.6026L154.671 16.6841L154.543 16.7808L154.431 16.847L154.172 16.9743L154.024 17.0405L153.897 17.071L153.317 17.1372L153.139 17.1219L152.991 17.1067L152.864 17.0761L152.737 17.0608L152.625 17.1117L152.513 17.1932L152.416 17.3052V17.3103ZM149.215 15.5488L149.199 15.7422L149.215 15.9051L149.23 16.1139L149.26 16.3735L149.326 16.6332L149.438 16.8776L149.55 17.0405L149.678 17.1525L149.856 17.2339L150.1 17.3001H150.309L150.472 17.2848L150.635 17.2543L150.782 17.1881L150.909 17.1219L151.057 17.0405L151.184 16.959L151.296 16.8623L151.423 16.7655L151.49 16.6535V16.5568L151.423 16.4448L151.342 16.3175L151.311 16.1699L151.342 15.9764L151.408 15.7829L151.52 15.6862L151.647 15.6048L151.795 15.5895L151.943 15.62L152.055 15.6506L152.151 15.6353L152.217 15.5386L152.268 15.4113L152.462 14.8309L152.558 14.3931L152.589 14.1843L152.64 13.9094L152.67 13.3596L152.655 13.0999L152.589 12.825L152.492 12.5806L152.38 12.4177L152.253 12.321L152.06 12.2395L151.815 12.1886L151.607 12.1733H151.444L151.317 12.2039L151.169 12.2548L151.006 12.3515L150.879 12.433L150.731 12.5297L150.568 12.657L150.456 12.7537L150.344 12.8657L150.263 12.9777L150.166 13.0897L150.085 13.217L149.922 13.441L149.841 13.5683L149.515 14.2149L149.464 14.3625L149.433 14.4898L149.337 14.78L149.306 14.9073L149.255 15.0549L149.24 15.2026V15.3502L149.209 15.5437L149.215 15.5488Z" fill="black"/>
<path d="M156.491 10.9666L156.343 10.5288L156.328 10.3812V10.2335L156.359 10.0859L156.425 9.93823L156.506 9.82622L156.603 9.71422L156.715 9.61748L156.842 9.5513L156.99 9.52075H157.137L157.285 9.5513L157.412 9.63276L157.509 9.72949L157.575 9.85677L157.626 10.0044V10.4423L157.595 10.6052V10.7324L157.626 10.8597L157.707 10.9717L157.819 11.0837L157.931 11.1805L158.043 11.3078L158.222 11.5165L158.333 11.6132L158.542 11.822L158.654 11.9492L158.72 12.0307L158.832 12.158L158.944 12.2547L159.041 12.3667L159.204 12.6264L159.255 12.774L159.306 12.9675L159.356 13.1762L159.341 13.3239L159.29 13.4715L159.224 13.5988L159.127 13.7108L158.965 13.9704L158.868 14.0824L158.786 14.2097L158.705 14.3217L158.608 14.449L158.527 14.5763L158.43 14.7036L158.349 14.8308L158.074 15.3807L158.023 15.5283L157.972 15.6556L157.942 15.8033L157.911 15.9662L157.881 16.1138L157.865 16.2615V16.4244L157.931 16.7502L158.013 16.8775L158.094 17.0251L158.206 17.1219L158.333 17.2033L158.496 17.2339H158.802L158.949 17.2033L159.097 17.1524L159.245 17.0862L159.356 17.0048L159.601 16.8419L159.728 16.7451L159.84 16.6484L159.937 16.5517L160.033 16.4244L160.324 16.0833L160.568 15.6963L160.649 15.5843L160.731 15.4367L160.812 15.3094L160.878 15.1821L160.96 15.0345L161.011 14.9378L161.107 14.7596L161.173 14.6323L161.224 14.505L161.291 14.3777L161.438 14.2963L161.647 14.3472L161.794 14.5101V14.6883L161.744 14.8359L161.616 15.1109L161.55 15.2381L161.469 15.3654L161.341 15.6251L161.179 15.8847L161.097 16.0324L161.031 16.1138L160.95 16.2615L160.787 16.5211L160.593 16.7808L160.466 16.9589L160.354 17.1219L160.161 17.351L160.049 17.4477L159.855 17.6412L159.728 17.7379L159.58 17.8346L159.321 17.9619L159.173 18.0281L159.046 18.0943L158.898 18.1452L158.771 18.1757L158.608 18.2063H158.237L158.028 18.191L157.702 18.1248L157.575 18.0739L157.412 17.9925L157.168 17.8295L157.056 17.7328L156.959 17.6361L156.863 17.5088L156.781 17.3968L156.715 17.2491L156.649 17.1219L156.618 16.9742L156.588 16.8113L156.557 16.6637L156.542 16.516V16.3684L156.608 15.788L156.659 15.6403L156.71 15.5131L156.776 15.3654L156.858 15.1872L156.954 15.009L157.036 14.8614L157.148 14.6832L157.26 14.5203L157.341 14.3726L157.438 14.1944L157.565 14.0163L157.662 13.889L157.789 13.6599L157.967 13.4002L158.048 13.222L158.099 12.9777L158.069 12.7842L157.906 12.5245L157.809 12.3973L157.55 12.1071L157.453 11.9951L157.326 11.8983L157.198 11.9289L157.132 12.0765L157.102 12.2242L157.051 12.3718L157.02 12.5194L156.99 12.6467L156.939 12.7944L156.791 13.1813L156.74 13.3289L156.69 13.4562L156.639 13.6039L156.557 13.7973L156.476 13.9755L156.41 14.1232L156.328 14.3166L156.247 14.4948L156.165 14.6577L156.084 14.8359L155.987 15.0141L155.906 15.1414L155.809 15.2229H155.661L155.534 15.1414L155.438 15.0294L155.453 14.9021L155.504 14.7545L155.57 14.6068L155.621 14.4795L155.672 14.3319L155.799 14.0417L155.85 13.945L155.916 13.7821L155.982 13.6548L156.033 13.5071L156.099 13.3595L156.15 13.2118L156.201 13.0846L156.328 12.7944L156.359 12.6467L156.41 12.4991L156.44 12.3514L156.506 12.2038L156.537 12.0562L156.567 11.9289L156.598 11.7812L156.649 11.6336L156.679 11.4707V11.323L156.649 11.1957L156.522 10.9361L156.491 10.9666Z" fill="black"/>
<path d="M164.995 14.5763V14.7545L164.944 14.9021L164.817 15.1617L164.669 15.4061L164.588 15.5538L164.522 15.681L164.425 15.8287L164.374 15.9254L164.292 16.0731L164.211 16.2003L164.13 16.3123L164.033 16.4396L163.951 16.5516L163.789 16.8113L163.498 17.1524L163.305 17.3611L163.193 17.4731L163.096 17.5851L162.984 17.6819L162.628 17.9568L162.516 18.0383L162.369 18.1044L162.221 18.1554L162.094 18.1859L161.804 18.2521H161.529L161.351 18.2368L161.223 18.1859L161.076 18.135L160.949 18.0535L160.837 17.9568L160.755 17.8448L160.674 17.7175L160.608 17.5699L160.577 17.4426L160.547 17.2949L160.531 17.1473V16.9997L160.562 16.7095L160.592 16.5618L160.643 16.4142L160.709 16.124L160.76 15.9967L160.791 15.8491L160.842 15.7014L160.893 15.5741L161.04 15.1363L161.055 15.009L161.086 14.8614L161.137 14.7137L161.167 14.5661L161.198 14.4388L161.295 14.1486L161.346 13.9551L161.396 13.7464L161.493 13.4562L161.524 13.3086L161.554 13.1966L161.585 13.0489L161.651 12.886L161.702 12.7587L161.799 12.3209L161.849 12.1732L161.9 11.9798L161.967 11.771L162.017 11.6234L162.084 11.4961L162.18 11.4146L162.328 11.3485L162.455 11.3332L162.618 11.3485L162.908 11.379L163.168 11.4757L163.249 11.5877V11.7354L163.219 11.883L163.168 12.0765L163.117 12.2852L163.02 12.5754L162.99 12.7027L162.959 12.8504L162.908 13.0133L162.857 13.2067L162.694 13.6904L162.664 13.838L162.598 14.0468L162.486 14.3879L162.455 14.5355L162.425 14.6628L162.394 14.8105L162.282 15.0854L162.252 15.233L162.14 15.6352L162.043 15.9254L162.012 16.0731L161.961 16.2818L161.911 16.5415L161.88 16.8164L161.911 17.0607L162.038 17.2389L162.216 17.2899L162.363 17.2746L162.511 17.2084L162.623 17.1269L162.75 17.0302L163.285 16.4956L163.381 16.3836L163.463 16.2716L163.56 16.1443L163.722 15.8847L163.819 15.7727L163.885 15.676L163.967 15.5487L164.063 15.401L164.13 15.2534L164.257 14.9785L164.45 14.5915L164.532 14.4643L164.679 14.3828L164.888 14.4133L165.015 14.5763H164.995ZM162.389 9.60728L162.47 9.48L162.598 9.368L162.725 9.28654L162.888 9.23562L163.035 9.20508H163.198L163.346 9.23562L163.473 9.31708L163.585 9.41382L163.697 9.52582L163.778 9.6531L163.829 9.80074L163.845 9.94839V10.1113L163.794 10.2589L163.712 10.3862L163.616 10.5135L163.504 10.6102L163.376 10.707L163.229 10.7732L163.066 10.8037L162.918 10.7884L162.755 10.7579L162.496 10.595L162.399 10.483L162.318 10.3557L162.287 10.208L162.272 10.0604L162.287 9.91275L162.318 9.74983L162.384 9.60219L162.389 9.60728Z" fill="black"/>
<path d="M22.5438 40.0016C21.4699 38.7288 19.8208 37.736 17.6476 37.0385C17.5661 37.0232 17.2455 37.0182 17.0114 37.0131C16.6958 37.008 16.3904 37.0029 16.08 36.9774L15.6524 36.9469C12.7463 36.7534 5.01516 36.2443 1.37609 27.5129C-0.812437 22.264 -0.379821 16.9131 2.5976 12.4482C5.3409 8.32943 9.92155 5.66675 14.2681 5.66675H14.4208C19.261 5.66675 22.7117 2.37276 22.7423 2.33713L25.0886 0.00537109L27.4349 2.35749C27.4349 2.35749 30.906 5.67184 35.7462 5.67184H35.8276C40.22 5.67184 44.821 8.33452 47.5694 12.4533C50.5468 16.9182 50.9794 22.269 48.7909 27.518C45.1518 36.2494 37.4207 36.7585 34.5094 36.952L34.0717 36.9825C33.7765 37.0029 33.4661 37.0131 33.1607 37.0182C32.9215 37.0182 32.6008 37.0283 32.494 37.0538C30.3411 37.7462 28.6971 38.739 27.6232 40.0118L25.0835 43.0155L22.5438 40.0118V40.0016Z" fill="black"/>
<path d="M23.818 38.9275C22.5405 37.4154 20.637 36.2444 18.1584 35.4553C17.8733 35.3636 17.4865 35.3585 17.0336 35.3484C16.7587 35.3484 16.4839 35.3382 16.209 35.3178L15.7713 35.2873C12.8957 35.0989 6.15707 34.656 2.91499 26.8716C0.945308 22.1521 1.32703 17.3562 3.9838 13.3647C6.42682 9.69397 10.468 7.32148 14.2699 7.32148H14.4175C20.0212 7.32148 23.8689 3.55402 23.9096 3.51838L25.0904 2.34741L26.2661 3.52347C26.3017 3.55911 30.1495 7.32148 35.7531 7.32148H35.8397C39.7078 7.32148 43.7438 9.69397 46.1868 13.3596C48.8436 17.3511 49.2253 22.147 47.2556 26.8665C44.0136 34.6458 37.2749 35.0938 34.3993 35.2822L33.9616 35.3127C33.6868 35.3331 33.4119 35.3382 33.1371 35.3433C32.6892 35.3535 32.2973 35.3585 32.0123 35.4502C29.5387 36.2444 27.6352 37.4103 26.3526 38.9224L25.0853 40.4243L23.818 38.9224V38.9275Z" fill="#ED8A3E"/>
<path d="M24.9892 37.8126C23.0449 35.5114 20.322 34.3913 18.5712 33.8262C17.823 33.5869 17.0239 33.6735 16.2401 33.6175C13.7004 33.424 7.36895 33.4189 4.35081 26.1894C0.314751 16.506 8.14766 8.90493 14.2247 8.94566C20.6885 8.99148 24.9892 4.65381 24.9892 4.65381C24.9892 4.65381 29.2899 8.98639 35.7537 8.94566C41.8307 8.90493 49.6687 16.501 45.6275 26.1894C42.6145 33.4189 36.2779 33.424 33.7382 33.6175C32.9544 33.6786 32.1553 33.5869 31.4072 33.8262C29.6563 34.3862 26.9334 35.5063 24.9892 37.8126Z" fill="#20743B"/>
<path d="M21.8742 16.9334C21.8742 16.9334 18.2504 13.4459 25.559 11.7506C27.9919 11.1855 29.7529 11.3178 31.0151 11.7506C33.4785 12.5804 34.4709 15.5231 33.2545 17.8193C32.3333 19.5553 30.384 21.2151 26.2614 20.487C26.2614 20.487 26.0731 20.4616 26.0273 20.6601C25.9815 20.8587 25.5387 24.3258 25.5387 24.3258C25.5387 24.3258 26.124 25.0283 26.638 24.9571C27.1521 24.8858 33.5548 26.9426 36.3795 18.1705C36.7816 16.9232 36.8376 15.5639 36.3948 14.3318C35.7892 12.6212 34.1656 10.6967 29.9819 10.4167C22.261 9.90249 19.7569 12.5703 18.8866 13.9754C18.0162 15.3806 18.9578 18.3742 20.3371 18.2826C21.7164 18.1909 21.8742 16.9334 21.8742 16.9334Z" fill="white"/>
<path d="M27.2535 12.4583C27.2535 12.4583 24.388 15.3959 21.5277 20.9096C18.6673 26.4233 17.7461 28.1951 17.7461 28.1951C17.7461 28.1951 20.2196 29.5391 21.8839 29.0809C21.8839 29.0809 22.4642 28.5871 23.3752 25.6749C23.8027 24.3105 27.1873 13.2728 28.251 13.0285C28.251 13.0285 27.793 12.4379 27.2637 12.4633L27.2535 12.4583Z" fill="white"/>
<path d="M86.3263 29.0353C86.3263 29.3255 86.4128 29.575 86.5807 29.7837C86.7487 29.9925 87.0083 30.1707 87.3595 30.3234C88.2094 30.7052 88.7896 30.9954 89.1001 31.194C89.4106 31.3926 89.66 31.6064 89.8432 31.8304C90.0264 32.0544 90.1638 32.2886 90.2504 32.5279C90.3369 32.7672 90.3776 33.0421 90.3776 33.3577C90.3776 33.8261 90.2554 34.2283 90.0111 34.5593C89.7668 34.8902 89.4309 35.1447 88.9983 35.3178C88.5657 35.4909 88.0771 35.5826 87.5325 35.5826C87.3086 35.5826 87.0592 35.5469 86.7843 35.4808C86.5095 35.4146 86.2601 35.3127 86.0311 35.1804C85.9904 35.1651 85.9496 35.1498 85.914 35.1346C85.8784 35.1193 85.8377 35.1091 85.7817 35.1091C85.6341 35.1091 85.517 35.216 85.4356 35.4248C85.3949 35.5011 85.3338 35.5419 85.2473 35.5419C85.2015 35.5419 85.1607 35.5317 85.1251 35.5062C85.0895 35.4808 85.0742 35.4502 85.0742 35.4146C85.1353 34.9513 85.1658 34.5643 85.1658 34.2436C85.1658 33.7956 85.1404 33.3781 85.0844 32.9912V32.9708C85.0844 32.9301 85.1048 32.8995 85.1404 32.869C85.176 32.8384 85.2218 32.8232 85.2829 32.8232C85.3949 32.8232 85.4559 32.8639 85.4712 32.9504C85.573 33.6174 85.8275 34.1367 86.2245 34.5185C86.6215 34.9004 87.0948 35.0887 87.6343 35.0887C88.0924 35.0887 88.4741 34.9665 88.7795 34.7222C89.0848 34.4778 89.2426 34.152 89.2426 33.7396C89.2426 33.4545 89.1815 33.205 89.0594 32.9963C88.9372 32.7824 88.7845 32.6042 88.6013 32.4464C88.4232 32.2937 88.2196 32.1613 88.0007 32.0442C87.7819 31.9322 87.5732 31.8253 87.3747 31.7286C87.1152 31.6115 86.8556 31.4893 86.5909 31.362C86.3314 31.2347 86.1023 31.0871 85.8936 30.9089C85.6901 30.7307 85.5221 30.522 85.4 30.2725C85.2727 30.023 85.2116 29.7125 85.2116 29.3408C85.2116 28.7044 85.4509 28.2055 85.9344 27.8542C86.4128 27.5029 87.0744 27.3247 87.9193 27.3247C88.1433 27.3247 88.3316 27.34 88.4792 27.3654C88.6268 27.3909 88.8049 27.4367 88.9932 27.5029C89.2172 27.5742 89.3648 27.6047 89.436 27.6047C89.5327 27.6047 89.5989 27.564 89.6396 27.4876C89.665 27.4316 89.7261 27.4062 89.8177 27.4062C89.8585 27.4062 89.8941 27.4163 89.9348 27.4316C89.9755 27.4469 89.9959 27.4673 89.9959 27.4927V27.508C89.9297 27.7269 89.8992 28.0171 89.8992 28.3786C89.8992 28.5873 89.9093 28.7706 89.9348 28.9386C89.9602 29.1015 89.9806 29.3001 89.9959 29.5292C89.9959 29.5546 89.9755 29.5801 89.9348 29.6005C89.8941 29.6208 89.8483 29.631 89.8076 29.631C89.7109 29.631 89.6549 29.5954 89.6396 29.5292C89.5327 29.0506 89.4106 28.6942 89.2782 28.46C89.1459 28.2309 88.9678 28.0629 88.7387 27.9662C88.5097 27.8644 88.1941 27.8186 87.787 27.8186C87.3493 27.8186 86.993 27.9306 86.7283 28.1546C86.4586 28.3786 86.3263 28.6739 86.3263 29.0353Z" fill="black"/>
<path d="M92.9531 33.9839C92.9531 34.3556 92.9735 34.6 93.0142 34.7171C93.0549 34.8342 93.1261 34.9258 93.2228 34.9869C93.3195 35.048 93.4773 35.0938 93.686 35.1193C93.7725 35.1345 93.8132 35.1906 93.8132 35.2924C93.8132 35.3331 93.8031 35.3738 93.7827 35.4146C93.7623 35.4553 93.7318 35.4706 93.686 35.4706C93.5689 35.4706 93.3857 35.4553 93.1312 35.4298C92.8717 35.4044 92.6426 35.3891 92.434 35.3891C92.1795 35.3891 91.9352 35.4044 91.696 35.4298C91.4568 35.4553 91.2277 35.4706 91.0038 35.4706C90.9274 35.4706 90.8867 35.4146 90.8867 35.3026C90.8867 35.1905 90.9274 35.1345 91.014 35.1193C91.2226 35.0938 91.3804 35.0633 91.4975 35.0175C91.6094 34.9716 91.696 34.9054 91.7469 34.8189C91.7978 34.7323 91.8283 34.6305 91.8385 34.5083C91.8487 34.3861 91.8487 34.2334 91.8487 34.0501V32.1511C91.8487 31.6216 91.8283 31.2704 91.7927 31.0973C91.757 30.9242 91.6909 30.7969 91.5891 30.7205C91.4924 30.6441 91.299 30.5881 91.014 30.5525C90.9427 30.5525 90.9122 30.4965 90.9122 30.3794C90.9122 30.3387 90.9223 30.2979 90.9376 30.2572C90.9529 30.2165 90.9783 30.2012 91.014 30.2012C91.3346 30.1758 91.696 30.1299 92.0879 30.0637C92.4696 29.9976 92.6833 29.967 92.7292 29.967C92.8768 29.967 92.9531 30.0434 92.9531 30.2012V33.9789V33.9839ZM92.3322 28.7502C92.1388 28.7502 91.9708 28.6891 91.8283 28.572C91.6858 28.4549 91.6145 28.3022 91.6145 28.1087C91.6145 27.9153 91.6807 27.7676 91.8181 27.6454C91.9504 27.5233 92.1184 27.4622 92.3118 27.4622C92.4899 27.4622 92.6477 27.5233 92.7699 27.6505C92.8971 27.7778 92.9582 27.9356 92.9582 28.1189C92.9582 28.3022 92.8971 28.4448 92.78 28.5669C92.663 28.6891 92.5154 28.7502 92.3373 28.7502H92.3322Z" fill="black"/>
<path d="M96.3296 33.9841C96.3296 34.3812 96.3907 34.6613 96.518 34.8191C96.6452 34.982 96.8539 35.0838 97.1542 35.1296C97.2407 35.1449 97.2865 35.206 97.2865 35.3078C97.2865 35.3537 97.2763 35.3944 97.2509 35.43C97.2254 35.4657 97.1949 35.4809 97.1542 35.4809L96.2024 35.4046L95.8105 35.3893C95.556 35.3893 95.3168 35.4046 95.0878 35.43C94.8587 35.4555 94.645 35.4708 94.4363 35.4708C94.3956 35.4708 94.3701 35.4555 94.3498 35.4198C94.3294 35.3842 94.3192 35.3486 94.3192 35.3027C94.3192 35.1958 94.36 35.1347 94.4465 35.1195C94.6806 35.0787 94.8486 35.038 94.9504 34.9871C95.0521 34.9362 95.1183 34.8649 95.159 34.7733C95.1997 34.6765 95.2201 34.4372 95.2201 34.0554V32.5688C95.2201 32.1768 95.2201 31.8509 95.215 31.5964C95.215 31.3418 95.1845 31.1382 95.1336 30.9854C95.0827 30.8378 95.0012 30.7309 94.8893 30.6647C94.7773 30.5985 94.6195 30.568 94.4007 30.5578C94.3142 30.5578 94.2734 30.4967 94.2734 30.3796C94.2734 30.3389 94.2836 30.3032 94.2989 30.2625C94.3142 30.2218 94.3396 30.2065 94.3701 30.2065C94.818 30.1759 95.1997 30.1301 95.5051 30.0639C95.8105 30.0028 96.009 29.9672 96.0955 29.9672C96.2533 29.9672 96.3296 30.0487 96.3296 30.2167L96.3144 30.3338C96.2482 30.6952 96.2177 30.904 96.2177 30.96C96.2177 30.9753 96.2228 30.9854 96.2329 30.9854L96.2635 30.96C96.3602 30.7869 96.5078 30.6138 96.7114 30.4356C96.9149 30.2625 97.1338 30.125 97.373 30.0283C97.6122 29.9316 97.8565 29.8857 98.111 29.8857C99.302 29.8857 99.8975 30.5781 99.8975 31.9629V33.9841C99.8975 34.3201 99.9178 34.5493 99.9534 34.6816C99.9891 34.814 100.06 34.9107 100.157 34.9769C100.254 35.0431 100.412 35.0889 100.625 35.1195C100.702 35.1347 100.742 35.1958 100.742 35.2977C100.742 35.4148 100.702 35.4708 100.625 35.4708C100.523 35.4708 100.345 35.4555 100.096 35.43C99.8466 35.4046 99.6073 35.3893 99.3732 35.3893C99.1187 35.3893 98.8897 35.4046 98.6759 35.43C98.4622 35.4555 98.2891 35.4708 98.1415 35.4708C98.1008 35.4708 98.0652 35.4504 98.0448 35.4097C98.0245 35.3689 98.0143 35.3282 98.0143 35.2824C98.0143 35.1856 98.0499 35.1347 98.1263 35.1195C98.3095 35.0838 98.4469 35.038 98.5385 34.9769C98.6301 34.9158 98.6912 34.8344 98.7268 34.7274C98.7625 34.6256 98.7777 34.3965 98.7777 34.0503V32.2582C98.7777 31.7746 98.7472 31.4335 98.681 31.24C98.6149 31.0465 98.5131 30.8887 98.3807 30.7716C98.2433 30.6545 98.0499 30.5934 97.8005 30.5934C97.3272 30.5934 96.9658 30.7461 96.7063 31.0516C96.4467 31.3571 96.3245 31.7898 96.3245 32.36V33.9892L96.3296 33.9841Z" fill="black"/>
<path d="M102.578 32.5178C102.578 33.1695 102.766 33.7091 103.138 34.1368C103.509 34.5594 103.977 34.7732 104.537 34.7732C105.097 34.7732 105.535 34.6459 105.906 34.3863L105.978 34.3608C106.018 34.3608 106.059 34.3863 106.1 34.4321C106.141 34.4779 106.161 34.5237 106.161 34.5645C106.161 34.6408 106.044 34.7783 105.82 34.9717C105.591 35.1652 105.316 35.3078 104.99 35.3943C104.67 35.4809 104.334 35.5216 103.993 35.5216C103.514 35.5216 103.066 35.4045 102.659 35.1652C102.252 34.9259 101.931 34.5899 101.692 34.1521C101.458 33.7142 101.336 33.2204 101.336 32.6654C101.336 32.1105 101.453 31.6421 101.692 31.2145C101.931 30.7919 102.272 30.461 102.72 30.2268C103.168 29.9926 103.682 29.8755 104.268 29.8755C104.782 29.8755 105.214 29.9926 105.555 30.2268C105.901 30.461 106.069 30.7614 106.069 31.1279C106.069 31.2705 106.023 31.4028 105.927 31.525C105.83 31.6472 105.682 31.7134 105.484 31.7134C105.321 31.7134 105.184 31.6727 105.077 31.5861C104.97 31.4996 104.914 31.3723 104.914 31.2094C104.914 31.0974 104.944 31.0057 105 30.9395C105.062 30.8683 105.092 30.797 105.092 30.7359C105.092 30.5933 104.995 30.4864 104.802 30.4101C104.609 30.3337 104.4 30.2981 104.181 30.2981C103.682 30.2981 103.29 30.4966 103.005 30.8886C102.72 31.2806 102.578 31.8203 102.578 32.5076V32.5178Z" fill="black"/>
<path d="M108.149 32.4007C108.109 32.4007 108.088 32.416 108.088 32.4415C108.088 32.4669 108.083 32.5026 108.083 32.5382C108.083 33.2612 108.246 33.8161 108.572 34.1979C108.898 34.5798 109.366 34.7732 109.977 34.7732C110.587 34.7732 111.091 34.6459 111.437 34.3965C111.463 34.371 111.483 34.3608 111.514 34.3608C111.554 34.3608 111.59 34.3863 111.636 34.4423C111.677 34.4983 111.697 34.539 111.697 34.5747C111.697 34.6409 111.585 34.7732 111.361 34.9769C111.137 35.1805 110.888 35.3231 110.618 35.4045C110.343 35.486 110.022 35.5267 109.646 35.5267C108.775 35.5267 108.088 35.2773 107.595 34.7783C107.101 34.2794 106.852 33.587 106.852 32.7062C106.852 32.1869 106.964 31.7083 107.193 31.2756C107.422 30.8428 107.737 30.5017 108.149 30.2523C108.557 30.0079 109.01 29.8806 109.508 29.8806C110.16 29.8806 110.684 30.0944 111.096 30.517C111.503 30.9396 111.707 31.4843 111.707 32.1462C111.707 32.3091 111.646 32.3957 111.529 32.3957H108.16L108.149 32.4007ZM110.312 31.9833C110.389 31.9833 110.445 31.9629 110.475 31.9222C110.506 31.8814 110.526 31.7643 110.526 31.5811C110.526 31.2349 110.424 30.9345 110.221 30.685C110.017 30.4356 109.753 30.3083 109.427 30.3083C109.066 30.3083 108.775 30.4254 108.551 30.6596C108.328 30.8938 108.19 31.2298 108.129 31.6727L108.114 31.8611C108.114 31.9476 108.129 31.9884 108.165 31.9884H110.318L110.312 31.9833Z" fill="black"/>
<path d="M118.991 33.8923C118.991 34.152 119.037 34.3658 119.129 34.5185C119.22 34.6764 119.363 34.7986 119.561 34.8902C119.76 34.9767 120.08 35.0531 120.528 35.1091C120.569 35.1193 120.605 35.1397 120.63 35.1804C120.656 35.2211 120.666 35.2618 120.666 35.3077C120.666 35.3535 120.65 35.3942 120.625 35.4349C120.6 35.4757 120.554 35.491 120.498 35.491L119.979 35.4757C119.037 35.4197 118.472 35.3891 118.279 35.3891L117.765 35.4044C116.803 35.4604 116.248 35.491 116.1 35.491C116.044 35.491 116.004 35.4706 115.978 35.4299C115.953 35.3891 115.938 35.3433 115.938 35.2924C115.938 35.1753 115.993 35.1142 116.105 35.0938C116.594 35.0327 116.94 34.9564 117.139 34.8698C117.342 34.7833 117.495 34.6611 117.597 34.5084C117.699 34.3556 117.754 34.1469 117.754 33.8923V29.2594C117.754 28.9284 117.704 28.7146 117.607 28.6179C117.505 28.5211 117.302 28.4702 116.986 28.4702C116.787 28.4702 116.518 28.4855 116.177 28.5161H116.146C116.095 28.5161 116.055 28.4957 116.029 28.455C115.999 28.4142 115.988 28.3633 115.988 28.3073C115.988 28.1953 116.029 28.1291 116.111 28.1037C116.564 27.9968 117.006 27.8797 117.439 27.7575C118.279 27.5131 118.737 27.396 118.813 27.396C118.94 27.396 119.001 27.4469 119.001 27.5538V33.8974L118.991 33.8923Z" fill="black"/>
<path d="M121.728 30.0281C121.728 29.5189 121.845 29.0607 122.074 28.6534C122.303 28.2512 122.634 27.9407 123.056 27.7167C123.479 27.4977 123.962 27.3857 124.507 27.3857C125.092 27.3857 125.575 27.5334 125.967 27.8236C126.354 28.1138 126.649 28.5211 126.848 29.0302C127.046 29.5444 127.148 30.1706 127.148 30.9088C127.148 31.7998 127.011 32.6144 126.741 33.3526C126.471 34.0908 126.1 34.6356 125.631 34.9919C125.163 35.3483 124.608 35.5214 123.977 35.5214C123.346 35.5214 122.817 35.4196 122.45 35.216C122.079 35.0123 121.896 34.7323 121.896 34.381C121.896 34.2028 121.952 34.045 122.069 33.9075C122.186 33.7752 122.344 33.7039 122.547 33.7039C122.674 33.7039 122.797 33.7446 122.914 33.8312C123.031 33.9177 123.092 34.0501 123.092 34.2334C123.092 34.3148 123.076 34.3759 123.041 34.4217C123.005 34.4676 122.99 34.5236 122.99 34.5897C122.99 34.9359 123.341 35.109 124.049 35.109C125.285 35.109 125.927 33.8973 125.962 31.479C125.703 31.8303 125.418 32.0747 125.107 32.2122C124.802 32.3445 124.456 32.4158 124.079 32.4158C123.321 32.4158 122.741 32.2071 122.333 31.7845C121.926 31.367 121.723 30.7765 121.723 30.0128L121.728 30.0281ZM122.924 30.0026C122.924 30.6695 123.046 31.1583 123.295 31.4638C123.54 31.7692 123.886 31.922 124.334 31.922C124.802 31.922 125.194 31.7489 125.499 31.3976C125.81 31.0463 125.962 30.6237 125.962 30.1248C125.962 29.3662 125.83 28.796 125.565 28.4142C125.301 28.0272 124.919 27.8389 124.41 27.8389C123.937 27.8389 123.57 28.0221 123.311 28.3836C123.051 28.7451 122.924 29.2898 122.924 30.0128V30.0026Z" fill="black"/>
<path d="M129.344 28.4908C129.075 28.4908 128.886 28.5264 128.784 28.5977C128.683 28.669 128.586 28.8064 128.499 29.0152L128.281 29.5498C128.255 29.6058 128.204 29.6363 128.113 29.6363C128.057 29.6363 128.001 29.621 127.945 29.5956C127.889 29.5701 127.863 29.5396 127.863 29.5039C127.94 28.7453 128.082 28.221 128.286 27.9308C128.489 27.6406 128.805 27.4929 129.237 27.4929C129.823 27.4929 130.423 27.5286 131.034 27.6049C131.645 27.6813 132.088 27.722 132.368 27.722C132.648 27.722 132.978 27.6609 133.37 27.5438H133.401C133.457 27.5438 133.513 27.5744 133.564 27.6355C133.615 27.6966 133.64 27.7628 133.64 27.8238V27.8595C133.309 28.4959 132.729 29.397 131.899 30.5731C131.482 31.1637 131.141 31.6677 130.866 32.0953C130.591 32.523 130.378 32.8946 130.215 33.2154C130.052 33.5361 129.97 33.8569 129.97 34.1725C129.97 34.3151 130.001 34.4678 130.057 34.6307C130.118 34.7886 130.149 34.9311 130.149 35.0635C130.149 35.1959 130.087 35.3079 129.96 35.3995C129.833 35.4861 129.685 35.5319 129.512 35.5319C129.38 35.5319 129.263 35.4861 129.161 35.3995C129.064 35.313 129.014 35.1857 129.014 35.0228C129.014 34.7835 129.07 34.478 129.176 34.1063C129.288 33.7347 129.441 33.363 129.645 32.9965C129.848 32.6299 130.21 32.0597 130.734 31.3011C131.263 30.5222 131.599 30.0232 131.736 29.8145C131.874 29.6058 132.006 29.397 132.139 29.1883C132.266 28.9795 132.332 28.8574 132.332 28.8268C132.332 28.7708 132.276 28.7403 132.169 28.7403C131.95 28.7403 131.569 28.6995 131.024 28.613C130.479 28.5315 129.919 28.4908 129.344 28.4908Z" fill="black"/>
<path d="M135.126 27.5335C135.34 27.5335 135.777 27.564 136.439 27.6251C137.096 27.6913 137.62 27.7219 138.007 27.7219C138.394 27.7219 138.653 27.5182 138.831 27.1058C138.852 27.0702 138.887 27.0549 138.933 27.0549C139.009 27.0549 139.07 27.0702 139.116 27.0957C139.162 27.1211 139.182 27.1517 139.188 27.1873C139.188 27.2077 139.152 27.34 139.086 27.5742C139.02 27.8084 138.938 28.0172 138.841 28.1903C138.745 28.3634 138.628 28.4957 138.485 28.5874C138.343 28.679 138.185 28.7248 138.002 28.7299C137.584 28.7299 137.177 28.7045 136.78 28.6536C136.358 28.5976 135.889 28.567 135.38 28.5619C135.324 29.0914 135.294 29.6209 135.294 30.1605V30.5933C135.421 30.5322 135.594 30.4813 135.813 30.4456C136.032 30.4049 136.251 30.3896 136.475 30.3896C136.984 30.3896 137.452 30.4966 137.885 30.7053C138.317 30.914 138.658 31.2042 138.908 31.5759C139.157 31.9475 139.279 32.3548 139.279 32.808C139.279 33.6684 138.994 34.3404 138.419 34.819C137.844 35.2975 137.05 35.5368 136.032 35.5368C135.457 35.5368 135.004 35.4503 134.668 35.2772C134.332 35.1041 134.164 34.8699 134.164 34.5746C134.164 34.4219 134.21 34.2742 134.301 34.1367C134.393 33.9993 134.531 33.9331 134.704 33.9331C134.866 33.9331 135.004 33.984 135.111 34.0807C135.218 34.1775 135.274 34.2997 135.274 34.4422C135.274 34.4982 135.258 34.5542 135.223 34.6204C135.182 34.6917 135.167 34.7426 135.167 34.7833C135.167 34.8851 135.258 34.9717 135.436 35.0328C135.615 35.0939 135.874 35.1295 136.22 35.1295C136.826 35.1295 137.269 34.931 137.538 34.5288C137.808 34.1266 137.946 33.6022 137.946 32.9403C137.946 32.3497 137.788 31.8712 137.467 31.5148C137.147 31.1584 136.653 30.9802 135.986 30.9802C135.732 30.9802 135.523 31.0108 135.36 31.0668L135.085 31.1482C134.943 31.1482 134.851 31.1228 134.805 31.0719C134.76 31.021 134.739 30.9344 134.739 30.8173C134.739 29.7431 134.785 28.7096 134.882 27.727C134.882 27.6964 134.902 27.6608 134.938 27.615C134.978 27.5691 135.039 27.5488 135.126 27.5488V27.5335Z" fill="black"/>
</g>
<defs>
<clipPath id="clip0_3064_3894">
<rect width="165" height="43" fill="white" transform="translate(0 0.000244141)"/>
</clipPath>
</defs>
</svg>
