<svg width="35" height="35" viewBox="0 0 35 35" fill="none" xmlns="http://www.w3.org/2000/svg">
<g clip-path="url(#clip0_1391_36666)">
<path d="M8.04599 27.3129L8.01842 10.2798C8.01842 9.60016 8.41816 9.04457 8.91715 9.04181C9.3734 9.04181 9.74695 9.50089 9.81174 10.0992L9.82966 23.8939C9.83379 24.5777 10.2377 25.1292 10.7325 25.1292C11.2122 25.1292 11.6009 24.6191 11.6326 23.9766V23.9601C11.6326 23.938 11.6354 23.9146 11.6354 23.8911L11.6147 10.2081C11.6354 9.55604 12.0296 9.03767 12.5093 9.03629C12.9214 9.03629 13.2674 9.4168 13.3763 9.93517L13.3694 7.0869H13.3584C13.3501 4.40682 15.0277 1.29385 17.3875 0.018613C13.0937 -0.0709985 8.7669 1.45791 5.39392 4.63568C-1.44302 11.0725 -1.76557 21.8328 4.66887 28.6709C6.32711 30.4342 8.27619 31.7604 10.3755 32.6538C9.17353 31.2944 8.49535 29.6676 8.14248 28.1884C8.1025 28.016 8.04875 27.5101 8.04875 27.3115" fill="#70AC44"/>
<path d="M25.9475 6.8443L25.9764 23.8746C25.9764 24.5584 25.5726 25.1113 25.0777 25.1113C24.6242 25.1113 24.2507 24.6522 24.1859 24.0566L24.1652 10.2619C24.1624 9.57676 23.7572 9.02669 23.261 9.02393C22.7854 9.02807 22.3939 9.54092 22.365 10.1834V10.1958C22.365 10.2192 22.3622 10.2426 22.365 10.2647L22.3843 23.9491C22.3595 24.6026 21.9666 25.1182 21.4869 25.1209C21.0734 25.1209 20.7274 24.7404 20.6185 24.2234L20.6378 27.0414L20.642 27.0703C20.6447 29.6649 19.0761 32.6676 16.832 34.0173C21.0858 34.0697 25.3603 32.5421 28.7057 29.3947C35.5385 22.9578 35.8597 12.1976 29.4252 5.35951C27.6733 3.50248 25.6015 2.12522 23.3754 1.23462C24.7111 2.61326 25.6401 4.5599 25.8579 6.29974C25.9144 6.46242 25.9489 6.64716 25.9489 6.84568" fill="#B0CD99"/>
<path d="M17.3848 0.0197754C15.0263 1.29502 13.3488 4.40798 13.3516 7.08944L13.3585 7.10185L13.3736 9.93633L13.3971 23.8909C13.3998 24.5733 13.8051 25.1276 14.2999 25.1234C14.6542 25.1234 14.9574 24.8408 15.1035 24.4341C15.1104 24.4272 15.1118 24.4244 15.1118 24.4176C15.1297 24.361 15.1476 24.3017 15.16 24.2397C15.16 24.2218 15.1683 24.208 15.1725 24.1901C15.1807 24.1391 15.1849 24.0839 15.1904 24.0288C15.1931 23.9833 15.2 23.9405 15.1986 23.8951L15.189 10.4643L15.1931 10.1955C15.2138 9.7254 15.4316 9.32697 15.728 9.14637C15.7376 9.14223 15.7417 9.13534 15.7473 9.13258C15.7583 9.12844 15.7624 9.12707 15.7721 9.12155C15.8713 9.06641 15.983 9.03608 16.0987 9.0347C16.5233 9.0347 16.8776 9.44002 16.9768 9.9832L16.9864 10.0521C16.9947 10.1238 16.9878 10.2024 16.9933 10.2755L17.014 24.1018C17.0885 24.6795 17.4565 25.122 17.9003 25.1179C18.0147 25.1179 18.125 25.0862 18.2256 25.0338C18.2298 25.0338 18.2353 25.0338 18.2394 25.0324C18.2477 25.0242 18.2532 25.0159 18.2642 25.009C18.5744 24.816 18.7894 24.3845 18.7894 23.8868L18.7853 10.3706L18.7922 10.1859C18.7922 10.1666 18.7963 10.1459 18.7991 10.128C18.8018 10.0742 18.8087 10.0177 18.8197 9.96804C18.8211 9.95149 18.8266 9.93633 18.828 9.91978C18.8404 9.85774 18.857 9.79433 18.8776 9.73642L18.8831 9.72402C19.0265 9.31042 19.3325 9.02505 19.6895 9.0278C20.1871 9.02505 20.591 9.58064 20.591 10.2617L20.6131 24.2232C20.7233 24.7388 21.0693 25.1179 21.4815 25.1193C21.9612 25.1165 22.3554 24.6009 22.3788 23.9474L22.3595 10.2644C22.3568 10.241 22.3595 10.2176 22.3595 10.1928V10.1817C22.3898 9.53652 22.7799 9.02643 23.2555 9.02229C23.7531 9.02643 24.157 9.5765 24.1597 10.2603L24.1818 24.055C24.2479 24.6505 24.6187 25.1124 25.0736 25.1096C25.5685 25.1083 25.9723 24.5568 25.9723 23.873L25.9434 6.8399C25.9434 6.64276 25.9296 6.43872 25.902 6.24709C25.6401 4.51276 24.707 2.6061 23.3699 1.22884C21.4566 0.466455 19.4235 0.0569987 17.3848 0.0197754Z" fill="#2D5E3F"/>
<path d="M16.8315 34.0142C19.19 32.7403 20.6497 29.7321 20.647 27.0493L20.6401 27.0355L20.6235 24.2024L20.6029 10.2478C20.6001 9.56537 20.1935 9.01116 19.6986 9.01529C19.3444 9.01529 19.0411 9.29516 18.895 9.70461C18.8881 9.70875 18.8881 9.71427 18.8881 9.71978C18.8688 9.7763 18.8523 9.83559 18.8385 9.89762C18.8385 9.91555 18.833 9.92933 18.8275 9.94726C18.8192 9.99964 18.8151 10.0534 18.8095 10.1099C18.8068 10.1554 18.7985 10.1982 18.7999 10.2437L18.8109 23.673L18.8068 23.9418C18.7875 24.4119 18.5683 24.8104 18.272 24.991C18.2623 24.9951 18.2568 25.0006 18.2527 25.0061C18.2403 25.0089 18.2361 25.0103 18.2265 25.0172C18.1286 25.0709 18.0156 25.1013 17.9012 25.104C17.478 25.104 17.1196 24.6987 17.0217 24.1541L17.0121 24.0852C17.0052 24.0135 17.0121 23.9349 17.0079 23.8619L16.9831 10.0355C16.9115 9.45646 16.5407 9.01392 16.0982 9.01805C15.9824 9.01805 15.8749 9.04976 15.7743 9.10215C15.7674 9.10215 15.7646 9.10215 15.7605 9.10353C15.7508 9.1118 15.7453 9.12007 15.7343 9.12696C15.4242 9.32135 15.2091 9.75149 15.2091 10.2478L15.2133 23.764L15.205 23.9487C15.205 23.9666 15.2008 23.9887 15.1981 24.0052C15.1967 24.0618 15.1898 24.1155 15.1788 24.1665C15.1788 24.1817 15.1719 24.1982 15.1691 24.2148C15.1595 24.2755 15.1402 24.3375 15.1209 24.3982L15.1154 24.4092C14.9693 24.8242 14.6646 25.1082 14.309 25.1068C13.81 25.1068 13.4075 24.5539 13.4075 23.8715L13.3827 9.91003C13.2752 9.39304 12.9292 9.01529 12.5157 9.01392C12.036 9.01529 11.6418 9.53229 11.6197 10.1844L11.6376 23.8688C11.6404 23.8922 11.6376 23.9156 11.6376 23.9404V23.9515C11.6073 24.5981 11.2172 25.1082 10.7417 25.1109C10.2454 25.1082 9.83881 24.5581 9.83743 23.8743L9.81538 10.0796C9.74921 9.48541 9.37566 9.02219 8.92354 9.02632C8.42869 9.02632 8.02344 9.57778 8.02344 10.2616L8.05238 27.2947C8.05238 27.4932 8.06755 27.6972 8.09512 27.8889C8.35426 29.6218 9.04071 31.2762 10.375 32.6534C12.2896 33.4186 14.7915 33.9756 16.8301 34.0128" fill="white"/>
</g>
<defs>
<clipPath id="clip0_1391_36666">
<rect width="34" height="34" fill="white" transform="translate(0.046875 0.0158691)"/>
</clipPath>
</defs>
</svg>
