<svg width="124" height="37" viewBox="0 0 124 37" fill="none" xmlns="http://www.w3.org/2000/svg">
<rect x="1.16797" y="1.00024" width="122" height="35" rx="4.5" fill="black"/>
<mask id="path-2-inside-1_3064_3978" fill="white">
<path d="M98.0959 27.5001H99.796V16.2487H98.0959V27.5001ZM113.409 20.3019L111.46 25.1799H111.402L109.379 20.3019H107.548L110.582 27.1194L108.852 30.9121H110.625L115.299 20.3019H113.409ZM103.767 26.2222C103.211 26.2222 102.434 25.9469 102.434 25.2667C102.434 24.3983 103.401 24.0654 104.236 24.0654C104.983 24.0654 105.336 24.2243 105.789 24.4416C105.657 25.484 104.749 26.2222 103.767 26.2222ZM103.973 20.0558C102.742 20.0558 101.467 20.5916 100.939 21.7785L102.448 22.4007C102.771 21.7785 103.371 21.576 104.002 21.576C104.881 21.576 105.775 22.0966 105.789 23.0234V23.139C105.481 22.9653 104.822 22.7049 104.016 22.7049C102.389 22.7049 100.734 23.5876 100.734 25.2378C100.734 26.7432 102.067 27.7132 103.562 27.7132C104.704 27.7132 105.336 27.2066 105.73 26.6128H105.789V27.4819H107.431V23.1678C107.431 21.1703 105.921 20.0558 103.973 20.0558ZM93.4656 21.6716H91.0475V17.815H93.4656C94.7366 17.815 95.4582 18.8542 95.4582 19.7432C95.4582 20.6151 94.7366 21.6716 93.4656 21.6716ZM93.4219 16.2487H89.3481V27.5001H91.0475V23.2375H93.4219C95.3061 23.2375 97.1584 21.8903 97.1584 19.7432C97.1584 17.5966 95.3061 16.2487 93.4219 16.2487ZM71.2077 26.2243C70.0332 26.2243 69.0502 25.2526 69.0502 23.9191C69.0502 22.5702 70.0332 21.5847 71.2077 21.5847C72.3673 21.5847 73.2773 22.5702 73.2773 23.9191C73.2773 25.2526 72.3673 26.2243 71.2077 26.2243ZM73.1599 20.9319H73.1011C72.7196 20.4826 71.9854 20.0766 71.0611 20.0766C69.1232 20.0766 67.3473 21.7588 67.3473 23.9191C67.3473 26.0647 69.1232 27.7322 71.0611 27.7322C71.9854 27.7322 72.7196 27.3261 73.1011 26.8624H73.1599V27.4129C73.1599 28.8779 72.3673 29.6605 71.0903 29.6605C70.0485 29.6605 69.4026 28.9212 69.1381 28.2978L67.6559 28.9067C68.0812 29.9214 69.2111 31.1687 71.0903 31.1687C73.0869 31.1687 74.7749 30.0085 74.7749 27.1809V20.3086H73.1599V20.9319ZM75.9494 27.5001H77.6514V16.2487H75.9494V27.5001ZM80.1616 23.7884C80.1178 22.3093 81.3218 21.5556 82.1874 21.5556C82.8629 21.5556 83.4347 21.8892 83.6263 22.3674L80.1616 23.7884ZM85.4457 22.5122C85.1229 21.6572 84.1395 20.0766 82.1286 20.0766C80.132 20.0766 78.4735 21.628 78.4735 23.9044C78.4735 26.0503 80.1178 27.7322 82.319 27.7322C84.0949 27.7322 85.1229 26.6595 85.5488 26.0358L84.2277 25.1657C83.7872 25.8038 83.1856 26.2243 82.319 26.2243C81.4534 26.2243 80.8367 25.8327 80.4409 25.0642L85.6218 22.9474L85.4457 22.5122ZM44.1652 21.2511V22.875H48.0989C47.9815 23.7884 47.6733 24.4553 47.2035 24.9193C46.6309 25.4846 45.7354 26.1083 44.1652 26.1083C41.7432 26.1083 39.8498 24.18 39.8498 21.7876C39.8498 19.3952 41.7432 17.4666 44.1652 17.4666C45.4717 17.4666 46.4255 17.9742 47.1302 18.6267L48.2901 17.481C47.3064 16.5532 46.0002 15.8427 44.1652 15.8427C40.8474 15.8427 38.0586 18.5107 38.0586 21.7876C38.0586 25.0642 40.8474 27.7322 44.1652 27.7322C45.9557 27.7322 47.3064 27.1521 48.3631 26.0647C49.4493 24.9918 49.7871 23.4839 49.7871 22.2657C49.7871 21.8892 49.7574 21.5412 49.6988 21.2511H44.1652ZM54.2593 26.2243C53.0848 26.2243 52.0719 25.2673 52.0719 23.9044C52.0719 22.5269 53.0848 21.5847 54.2593 21.5847C55.4334 21.5847 56.4463 22.5269 56.4463 23.9044C56.4463 25.2673 55.4334 26.2243 54.2593 26.2243ZM54.2593 20.0766C52.1157 20.0766 50.3693 21.686 50.3693 23.9044C50.3693 26.1083 52.1157 27.7322 54.2593 27.7322C56.4022 27.7322 58.149 26.1083 58.149 23.9044C58.149 21.686 56.4022 20.0766 54.2593 20.0766ZM62.7443 26.2243C61.5706 26.2243 60.5574 25.2673 60.5574 23.9044C60.5574 22.5269 61.5706 21.5847 62.7443 21.5847C63.9188 21.5847 64.9314 22.5269 64.9314 23.9044C64.9314 25.2673 63.9188 26.2243 62.7443 26.2243ZM62.7443 20.0766C60.6015 20.0766 58.8551 21.686 58.8551 23.9044C58.8551 26.1083 60.6015 27.7322 62.7443 27.7322C64.888 27.7322 66.6344 26.1083 66.6344 23.9044C66.6344 21.686 64.888 20.0766 62.7443 20.0766Z"/>
</mask>
<path d="M98.0959 27.5001H99.796V16.2487H98.0959V27.5001ZM113.409 20.3019L111.46 25.1799H111.402L109.379 20.3019H107.548L110.582 27.1194L108.852 30.9121H110.625L115.299 20.3019H113.409ZM103.767 26.2222C103.211 26.2222 102.434 25.9469 102.434 25.2667C102.434 24.3983 103.401 24.0654 104.236 24.0654C104.983 24.0654 105.336 24.2243 105.789 24.4416C105.657 25.484 104.749 26.2222 103.767 26.2222ZM103.973 20.0558C102.742 20.0558 101.467 20.5916 100.939 21.7785L102.448 22.4007C102.771 21.7785 103.371 21.576 104.002 21.576C104.881 21.576 105.775 22.0966 105.789 23.0234V23.139C105.481 22.9653 104.822 22.7049 104.016 22.7049C102.389 22.7049 100.734 23.5876 100.734 25.2378C100.734 26.7432 102.067 27.7132 103.562 27.7132C104.704 27.7132 105.336 27.2066 105.73 26.6128H105.789V27.4819H107.431V23.1678C107.431 21.1703 105.921 20.0558 103.973 20.0558ZM93.4656 21.6716H91.0475V17.815H93.4656C94.7366 17.815 95.4582 18.8542 95.4582 19.7432C95.4582 20.6151 94.7366 21.6716 93.4656 21.6716ZM93.4219 16.2487H89.3481V27.5001H91.0475V23.2375H93.4219C95.3061 23.2375 97.1584 21.8903 97.1584 19.7432C97.1584 17.5966 95.3061 16.2487 93.4219 16.2487ZM71.2077 26.2243C70.0332 26.2243 69.0502 25.2526 69.0502 23.9191C69.0502 22.5702 70.0332 21.5847 71.2077 21.5847C72.3673 21.5847 73.2773 22.5702 73.2773 23.9191C73.2773 25.2526 72.3673 26.2243 71.2077 26.2243ZM73.1599 20.9319H73.1011C72.7196 20.4826 71.9854 20.0766 71.0611 20.0766C69.1232 20.0766 67.3473 21.7588 67.3473 23.9191C67.3473 26.0647 69.1232 27.7322 71.0611 27.7322C71.9854 27.7322 72.7196 27.3261 73.1011 26.8624H73.1599V27.4129C73.1599 28.8779 72.3673 29.6605 71.0903 29.6605C70.0485 29.6605 69.4026 28.9212 69.1381 28.2978L67.6559 28.9067C68.0812 29.9214 69.2111 31.1687 71.0903 31.1687C73.0869 31.1687 74.7749 30.0085 74.7749 27.1809V20.3086H73.1599V20.9319ZM75.9494 27.5001H77.6514V16.2487H75.9494V27.5001ZM80.1616 23.7884C80.1178 22.3093 81.3218 21.5556 82.1874 21.5556C82.8629 21.5556 83.4347 21.8892 83.6263 22.3674L80.1616 23.7884ZM85.4457 22.5122C85.1229 21.6572 84.1395 20.0766 82.1286 20.0766C80.132 20.0766 78.4735 21.628 78.4735 23.9044C78.4735 26.0503 80.1178 27.7322 82.319 27.7322C84.0949 27.7322 85.1229 26.6595 85.5488 26.0358L84.2277 25.1657C83.7872 25.8038 83.1856 26.2243 82.319 26.2243C81.4534 26.2243 80.8367 25.8327 80.4409 25.0642L85.6218 22.9474L85.4457 22.5122ZM44.1652 21.2511V22.875H48.0989C47.9815 23.7884 47.6733 24.4553 47.2035 24.9193C46.6309 25.4846 45.7354 26.1083 44.1652 26.1083C41.7432 26.1083 39.8498 24.18 39.8498 21.7876C39.8498 19.3952 41.7432 17.4666 44.1652 17.4666C45.4717 17.4666 46.4255 17.9742 47.1302 18.6267L48.2901 17.481C47.3064 16.5532 46.0002 15.8427 44.1652 15.8427C40.8474 15.8427 38.0586 18.5107 38.0586 21.7876C38.0586 25.0642 40.8474 27.7322 44.1652 27.7322C45.9557 27.7322 47.3064 27.1521 48.3631 26.0647C49.4493 24.9918 49.7871 23.4839 49.7871 22.2657C49.7871 21.8892 49.7574 21.5412 49.6988 21.2511H44.1652ZM54.2593 26.2243C53.0848 26.2243 52.0719 25.2673 52.0719 23.9044C52.0719 22.5269 53.0848 21.5847 54.2593 21.5847C55.4334 21.5847 56.4463 22.5269 56.4463 23.9044C56.4463 25.2673 55.4334 26.2243 54.2593 26.2243ZM54.2593 20.0766C52.1157 20.0766 50.3693 21.686 50.3693 23.9044C50.3693 26.1083 52.1157 27.7322 54.2593 27.7322C56.4022 27.7322 58.149 26.1083 58.149 23.9044C58.149 21.686 56.4022 20.0766 54.2593 20.0766ZM62.7443 26.2243C61.5706 26.2243 60.5574 25.2673 60.5574 23.9044C60.5574 22.5269 61.5706 21.5847 62.7443 21.5847C63.9188 21.5847 64.9314 22.5269 64.9314 23.9044C64.9314 25.2673 63.9188 26.2243 62.7443 26.2243ZM62.7443 20.0766C60.6015 20.0766 58.8551 21.686 58.8551 23.9044C58.8551 26.1083 60.6015 27.7322 62.7443 27.7322C64.888 27.7322 66.6344 26.1083 66.6344 23.9044C66.6344 21.686 64.888 20.0766 62.7443 20.0766Z" fill="white" stroke="white" stroke-width="1.48148" mask="url(#path-2-inside-1_3064_3978)"/>
<mask id="path-3-inside-2_3064_3978" fill="white">
<path d="M41.1898 12.4111C40.3729 12.4111 39.6703 12.1272 39.1038 11.5677C38.537 11.0079 38.25 10.3069 38.25 9.49175C38.25 8.67663 38.5372 7.97688 39.1038 7.41578C39.6703 6.8562 40.3729 6.57238 41.1898 6.57238C41.6059 6.57238 41.9943 6.64338 42.3655 6.79123C42.7368 6.93909 43.0406 7.14435 43.2798 7.41296L43.3362 7.47642L42.699 8.10572L42.6353 8.02837C42.4766 7.83582 42.2749 7.68623 42.0192 7.57749C41.7645 7.46903 41.4854 7.41894 41.1898 7.41894C40.6144 7.41894 40.137 7.61194 39.7384 8.00429C39.7383 8.00438 39.7381 8.00437 39.738 8.00447C39.3484 8.40474 39.1526 8.89207 39.1526 9.49176C39.1526 10.0919 39.3487 10.5793 39.7387 10.9797C40.1374 11.3719 40.6147 11.566 41.1897 11.566C41.7164 11.566 42.152 11.4207 42.4945 11.1332H42.4947C42.8135 10.8656 43.0048 10.504 43.0725 10.043H41.0986V9.21332H43.9256L43.9377 9.28926C43.9608 9.4351 43.9772 9.5759 43.9772 9.71113C43.9772 10.4853 43.7383 11.1172 43.2695 11.5821C42.7403 12.1363 42.0444 12.4111 41.1898 12.4111L41.1898 12.4111ZM65.7367 12.4111C64.9186 12.4111 64.2242 12.1271 63.665 11.5677C63.665 11.5677 63.6649 11.5676 63.6648 11.5676C63.6648 11.5675 63.6647 11.5675 63.6647 11.5674C63.1047 11.0141 62.8269 10.3129 62.8269 9.49174C62.8269 8.6706 63.1047 7.96943 63.6647 7.41612C63.6647 7.41606 63.6647 7.41603 63.6648 7.41594L63.665 7.41576C64.2242 6.85632 64.9186 6.57236 65.7367 6.57236C66.5532 6.57236 67.2479 6.85639 67.807 7.4242C68.3672 7.97743 68.6452 8.67725 68.6452 9.49174C68.6452 10.3129 68.3673 11.014 67.8074 11.5674L67.8072 11.5675C67.2477 12.1273 66.5466 12.4111 65.7367 12.4111L65.7367 12.4111ZM44.7862 12.2902V6.69332H44.8773H48.1701V7.53988H45.6731V9.07691H47.9252V9.9066H45.6731V11.445H48.1701V12.2902H44.7862ZM50.2411 12.2902V7.53988H48.7093V6.69332H52.6598V7.53988H52.5687H51.128V12.2902H50.2411ZM55.1846 12.2902V6.69332H56.0715V6.78332V12.2902H55.1846ZM58.3041 12.2902V7.53988H56.7723V6.69332H60.7228V7.53988H60.6317H59.191V12.2902H58.3041ZM69.4324 12.2902V6.69332H70.4325L72.9778 10.7184L72.9559 9.95423V6.69332H73.8428V12.2902H72.9651L70.2974 8.06177L70.3193 8.82537V8.8266V12.2902H69.4324ZM65.7367 11.566C66.3121 11.566 66.7817 11.3721 67.1646 10.9804L67.1652 10.9797L67.1657 10.9792C67.554 10.5955 67.7441 10.1016 67.7441 9.49172C67.7441 8.88334 67.5539 8.38776 67.1657 8.00426L67.1652 8.00372L67.1646 8.00318C66.7818 7.61157 66.3122 7.41889 65.7367 7.41889C65.1603 7.41889 64.6907 7.61123 64.3007 8.00283L64.3003 8.00319C63.9192 8.396 63.7294 8.88351 63.7294 9.49171C63.7294 10.1014 63.9191 10.5873 64.3003 10.9802L64.3007 10.9806C64.6908 11.3723 65.1604 11.5659 65.7367 11.5659V11.566Z"/>
</mask>
<path d="M41.1898 12.4111C40.3729 12.4111 39.6703 12.1272 39.1038 11.5677C38.537 11.0079 38.25 10.3069 38.25 9.49175C38.25 8.67663 38.5372 7.97688 39.1038 7.41578C39.6703 6.8562 40.3729 6.57238 41.1898 6.57238C41.6059 6.57238 41.9943 6.64338 42.3655 6.79123C42.7368 6.93909 43.0406 7.14435 43.2798 7.41296L43.3362 7.47642L42.699 8.10572L42.6353 8.02837C42.4766 7.83582 42.2749 7.68623 42.0192 7.57749C41.7645 7.46903 41.4854 7.41894 41.1898 7.41894C40.6144 7.41894 40.137 7.61194 39.7384 8.00429C39.7383 8.00438 39.7381 8.00437 39.738 8.00447C39.3484 8.40474 39.1526 8.89207 39.1526 9.49176C39.1526 10.0919 39.3487 10.5793 39.7387 10.9797C40.1374 11.3719 40.6147 11.566 41.1897 11.566C41.7164 11.566 42.152 11.4207 42.4945 11.1332H42.4947C42.8135 10.8656 43.0048 10.504 43.0725 10.043H41.0986V9.21332H43.9256L43.9377 9.28926C43.9608 9.4351 43.9772 9.5759 43.9772 9.71113C43.9772 10.4853 43.7383 11.1172 43.2695 11.5821C42.7403 12.1363 42.0444 12.4111 41.1898 12.4111L41.1898 12.4111ZM65.7367 12.4111C64.9186 12.4111 64.2242 12.1271 63.665 11.5677C63.665 11.5677 63.6649 11.5676 63.6648 11.5676C63.6648 11.5675 63.6647 11.5675 63.6647 11.5674C63.1047 11.0141 62.8269 10.3129 62.8269 9.49174C62.8269 8.6706 63.1047 7.96943 63.6647 7.41612C63.6647 7.41606 63.6647 7.41603 63.6648 7.41594L63.665 7.41576C64.2242 6.85632 64.9186 6.57236 65.7367 6.57236C66.5532 6.57236 67.2479 6.85639 67.807 7.4242C68.3672 7.97743 68.6452 8.67725 68.6452 9.49174C68.6452 10.3129 68.3673 11.014 67.8074 11.5674L67.8072 11.5675C67.2477 12.1273 66.5466 12.4111 65.7367 12.4111L65.7367 12.4111ZM44.7862 12.2902V6.69332H44.8773H48.1701V7.53988H45.6731V9.07691H47.9252V9.9066H45.6731V11.445H48.1701V12.2902H44.7862ZM50.2411 12.2902V7.53988H48.7093V6.69332H52.6598V7.53988H52.5687H51.128V12.2902H50.2411ZM55.1846 12.2902V6.69332H56.0715V6.78332V12.2902H55.1846ZM58.3041 12.2902V7.53988H56.7723V6.69332H60.7228V7.53988H60.6317H59.191V12.2902H58.3041ZM69.4324 12.2902V6.69332H70.4325L72.9778 10.7184L72.9559 9.95423V6.69332H73.8428V12.2902H72.9651L70.2974 8.06177L70.3193 8.82537V8.8266V12.2902H69.4324ZM65.7367 11.566C66.3121 11.566 66.7817 11.3721 67.1646 10.9804L67.1652 10.9797L67.1657 10.9792C67.554 10.5955 67.7441 10.1016 67.7441 9.49172C67.7441 8.88334 67.5539 8.38776 67.1657 8.00426L67.1652 8.00372L67.1646 8.00318C66.7818 7.61157 66.3122 7.41889 65.7367 7.41889C65.1603 7.41889 64.6907 7.61123 64.3007 8.00283L64.3003 8.00319C63.9192 8.396 63.7294 8.88351 63.7294 9.49171C63.7294 10.1014 63.9191 10.5873 64.3003 10.9802L64.3007 10.9806C64.6908 11.3723 65.1604 11.5659 65.7367 11.5659V11.566Z" fill="white" stroke="white" stroke-width="1.48148" mask="url(#path-3-inside-2_3064_3978)"/>
<path d="M19.54 17.981L9.83984 28.1511C9.84021 28.1532 9.84094 28.1549 9.8413 28.157C10.1388 29.2613 11.1599 30.0745 12.3717 30.0745C12.8562 30.0745 13.311 29.9451 13.701 29.718L13.732 29.7L24.6508 23.4764L19.54 17.981Z" fill="#EA4335"/>
<path d="M29.3543 16.2493L29.345 16.243L24.6311 13.5437L19.3203 18.2118L24.6496 23.4753L29.3386 20.8028C30.1607 20.3644 30.7188 19.5083 30.7188 18.5211C30.7188 17.541 30.1682 16.6892 29.3543 16.2493Z" fill="#FBBC04"/>
<path d="M9.83896 8.8489C9.78065 9.0613 9.75 9.28378 9.75 9.5148V27.4856C9.75 27.7162 9.78029 27.9395 9.83933 28.1511L19.8733 18.2413L9.83896 8.8489Z" fill="#4285F4"/>
<path d="M19.6119 18.5L24.6326 13.5419L13.7263 7.29572C13.3299 7.06118 12.8672 6.92582 12.3721 6.92582C11.1602 6.92582 10.1378 7.74041 9.84021 8.84606C9.83984 8.84714 9.83984 8.84786 9.83984 8.84885L19.6119 18.5Z" fill="#34A853"/>
<rect x="1.16797" y="1.00024" width="122" height="35" rx="4.5" stroke="black"/>
</svg>
