<svg width="72" height="22" viewBox="0 0 72 22" fill="none" xmlns="http://www.w3.org/2000/svg">
<g clip-path="url(#clip0_3064_1960)">
<path d="M22.9314 15.0936V14.2388C22.9314 14.2388 22.9275 14.2334 22.9249 14.2361C22.5934 14.5228 22.1397 14.769 21.5624 14.9732C20.9811 15.1788 20.4458 15.2815 19.9592 15.2815C17.6275 15.2815 16.4609 14.0089 16.4609 11.4624V5.96353C16.4609 5.29815 16.9857 4.75854 17.6327 4.75854C18.2798 4.75854 18.8045 5.29815 18.8045 5.96353V11.2784C18.8045 12.5997 19.3805 13.2624 20.5326 13.2651C21.0942 13.2651 21.6465 13.092 22.1174 12.7783C22.5198 12.5105 22.7907 12.2035 22.9301 11.8573V5.96353C22.9301 5.29815 23.4549 4.75854 24.1019 4.75854C24.749 4.75854 25.2737 5.29815 25.2737 5.96353V14.7717C25.2737 14.9516 25.1317 15.0963 24.9581 15.0963H22.9341C22.9341 15.0963 22.9301 15.0949 22.9301 15.0922L22.9314 15.0936Z" fill="#D60000"/>
<path d="M27.5508 13.5911L27.5982 13.4829C27.8086 12.9987 28.361 12.7959 28.8291 13.0163C29.3157 13.2462 29.8379 13.3612 30.3968 13.3612C31.3095 13.3612 31.7659 13.0271 31.7659 12.3577C31.7659 11.9655 31.6278 11.6436 31.3529 11.3934C31.078 11.1432 30.5428 10.8471 29.7497 10.5063C28.0177 9.7665 27.1523 8.73192 27.1523 7.40116C27.1523 6.50723 27.4838 5.81209 28.1466 5.31306C28.8094 4.81403 29.6564 4.56519 30.6888 4.56519C31.4147 4.56519 32.1091 4.68149 32.7746 4.9141C33.2599 5.08451 33.5058 5.64034 33.3282 6.13396C33.1546 6.61542 32.6378 6.86832 32.167 6.69656C31.7803 6.55456 31.3319 6.48424 30.8203 6.48424C30.0009 6.48424 29.5919 6.81828 29.5919 7.48771C29.5919 7.75143 29.7261 7.98945 29.9957 8.20178C30.264 8.4141 30.84 8.69811 31.7211 9.05514C32.6023 9.41217 33.2375 9.84494 33.6255 10.3521C34.0134 10.8606 34.2068 11.4746 34.2068 12.1941C34.2068 13.1529 33.8609 13.9062 33.1704 14.4553C32.48 15.0057 31.5397 15.2802 30.3521 15.2802C29.6827 15.2802 29.1474 15.2234 28.7437 15.1112C28.5332 15.053 28.2913 14.9611 28.0177 14.838C27.5535 14.6284 27.347 14.0658 27.5535 13.5897L27.5508 13.5911Z" fill="#D60000"/>
<path d="M36.4321 6.69657H35.2774C35.2774 6.69657 35.2734 6.69522 35.2734 6.69252V4.76265C35.2734 4.76265 35.2748 4.75859 35.2774 4.75859H36.4321C36.4321 4.75859 36.436 4.75724 36.436 4.75453V2.65832C36.436 2.65832 36.436 2.65426 36.4387 2.65426C37.5749 2.2242 38.7809 3.08838 38.7809 4.33394V4.75318C38.7809 4.75318 38.7822 4.75724 38.7849 4.75724H40.5958C41.1166 4.75724 41.5388 5.19136 41.5388 5.72691C41.5388 6.26245 41.1166 6.69657 40.5958 6.69657H38.7849C38.7849 6.69657 38.7809 6.69793 38.7809 6.70063V11.219C38.7809 11.9587 38.894 12.4808 39.1189 12.7864C39.3438 13.0921 39.7383 13.2449 40.3012 13.2449C40.3065 13.2449 40.3131 13.2449 40.3183 13.2449C41.1718 13.2395 41.8768 13.9251 41.8768 14.8042V14.9881C41.8768 14.9881 41.8768 14.9922 41.8741 14.9922C41.331 15.1842 40.5564 15.2802 39.5516 15.2802C38.5468 15.2802 37.7827 14.9895 37.2448 14.4079C36.7069 13.8264 36.4387 12.9987 36.4387 11.9249V6.70198C36.4387 6.70198 36.4373 6.69793 36.4347 6.69793L36.4321 6.69657Z" fill="#D60000"/>
<path d="M43.0391 9.89915C43.0391 8.32361 43.4809 7.04153 44.366 6.05158C45.2511 5.06163 46.419 4.56665 47.8696 4.56665C49.3951 4.56665 50.5801 5.04269 51.4244 5.99343C52.2687 6.94551 52.6909 8.24652 52.6909 9.89915C52.6909 11.5518 52.2608 12.8541 51.4007 13.8252C50.5406 14.7962 49.3636 15.2817 47.8696 15.2817C46.3756 15.2817 45.1578 14.7921 44.3108 13.8103C43.4639 12.8298 43.0404 11.5261 43.0404 9.89915H43.0391ZM45.4773 9.89915C45.4773 12.1752 46.2743 13.3139 47.8696 13.3139C48.6008 13.3139 49.1808 13.0178 49.6095 12.4268C50.0382 11.8358 50.2513 10.9932 50.2513 9.89915C50.2513 7.65552 49.4569 6.53303 47.8696 6.53303C47.1384 6.53303 46.5571 6.82921 46.1257 7.42021C45.6943 8.0112 45.4786 8.83752 45.4786 9.89915H45.4773Z" fill="#D60000"/>
<path d="M63.5304 10.6604H56.3642C56.3642 10.6604 56.3602 10.6631 56.3602 10.6658C56.4049 11.4867 56.6798 12.1251 57.1848 12.5808C57.6911 13.0379 58.3724 13.2651 59.2299 13.2651C59.6139 13.2651 59.965 13.2286 60.2833 13.1543C61.2039 12.9406 62.1495 13.3801 62.5769 14.2456C62.5769 14.2456 62.5769 14.2497 62.5769 14.251C61.7523 14.9381 60.5213 15.2802 58.884 15.2802C57.3518 15.2802 56.1406 14.8191 55.2502 13.8967C54.3599 12.9744 53.9141 11.6869 53.9141 10.0343C53.9141 8.38165 54.4033 7.09011 55.3818 6.07987C56.3602 5.07098 57.5346 4.56519 58.9037 4.56519C60.3609 4.56519 61.53 5.01148 62.4112 5.90541C63.2923 6.79934 63.7329 7.93806 63.7329 9.32021C63.7329 9.61503 63.6671 10.0613 63.5369 10.6577C63.5369 10.6591 63.5343 10.6618 63.533 10.6618L63.5304 10.6604ZM56.4483 8.84687H61.3709C61.3709 8.84687 61.3749 8.84417 61.3749 8.84146C61.2105 7.33354 60.399 6.58026 58.9366 6.58026C57.6004 6.58026 56.7692 7.33354 56.4431 8.84146C56.4431 8.84417 56.4444 8.84687 56.447 8.84687H56.4483Z" fill="#D60000"/>
<path d="M65.3477 13.5911L65.395 13.4829C65.6055 12.9987 66.1578 12.7959 66.626 13.0163C67.1126 13.2462 67.6347 13.3612 68.1937 13.3612C69.1064 13.3612 69.5627 13.0271 69.5627 12.3577C69.5627 11.9655 69.4246 11.6436 69.1498 11.3934C68.8749 11.1432 68.3396 10.8471 67.5466 10.5063C65.8146 9.7665 64.9492 8.73192 64.9492 7.40116C64.9492 6.50723 65.2806 5.81209 65.9435 5.31306C66.6063 4.81538 67.4532 4.56519 68.4856 4.56519C69.2116 4.56519 69.906 4.68149 70.5714 4.9141C71.0567 5.08451 71.3027 5.64034 71.1251 6.13396C70.9515 6.61542 70.4347 6.86832 69.9638 6.69656C69.5772 6.55456 69.1287 6.48424 68.6171 6.48424C67.7978 6.48424 67.3888 6.81828 67.3888 7.48771C67.3888 7.75143 67.5229 7.98945 67.7925 8.20178C68.0608 8.4141 68.6369 8.69811 69.518 9.05514C70.3992 9.41217 71.0344 9.84494 71.4223 10.3521C71.8103 10.8606 72.0036 11.4746 72.0036 12.1941C72.0036 13.1529 71.6577 13.9062 70.9673 14.4553C70.2769 15.0057 69.3365 15.2802 68.149 15.2802C67.4795 15.2802 66.9443 15.2234 66.5405 15.1112C66.3301 15.053 66.0881 14.9611 65.8146 14.838C65.3503 14.6284 65.1439 14.0658 65.3503 13.5897L65.3477 13.5911Z" fill="#D60000"/>
<path d="M12.1008 17.4455C10.6239 18.2434 8.95494 18.6653 7.27551 18.6653C5.59607 18.6653 3.92716 18.2434 2.45026 17.4455C1.91237 17.1547 1.26269 17.2561 0.83395 17.697C0.520947 18.0189 0.378912 18.4625 0.445984 18.9115C0.513056 19.3618 0.776084 19.7418 1.168 19.9542C3.03813 20.9644 5.15024 21.4986 7.27551 21.4986C9.40078 21.4986 11.5142 20.9644 13.383 19.9542C13.7749 19.7418 14.038 19.3618 14.105 18.9115C14.1721 18.4611 14.0301 18.0189 13.7171 17.697C13.2883 17.2561 12.6387 17.1547 12.1008 17.4455Z" fill="#D60000"/>
<path d="M14.4557 6.78458L14.4189 6.54791H9.79354C9.0255 6.54791 8.40081 7.1903 8.40081 7.9801C8.40081 8.7699 9.0255 9.41229 9.79354 9.41229H11.5427C10.9469 11.2881 9.20962 12.5972 7.2711 12.5972C7.24349 12.5972 7.21587 12.5972 7.18693 12.5972C4.77628 12.5498 2.80094 10.4942 2.78516 8.01391C2.77727 6.77376 3.2402 5.608 4.08846 4.72894C4.93804 3.84988 6.06907 3.36573 7.27373 3.36573H13.1103C13.8784 3.36573 14.5031 2.72334 14.5031 1.93354C14.5031 1.14374 13.8784 0.5 13.1103 0.5H7.27373C5.05115 0.5 2.9798 1.52512 1.5897 3.31163C0.92555 4.1677 0.444209 5.17929 0.198277 6.23957C-0.0634355 7.37152 -0.0660658 8.54135 0.190387 9.71658C0.487608 11.0757 1.15438 12.3145 2.11838 13.3004C3.08107 14.2863 4.28968 14.9666 5.61271 15.2682C6.16902 15.3953 6.72664 15.4575 7.27636 15.4575C8.73223 15.4575 10.1394 15.0193 11.3559 14.17C13.0104 13.0151 14.1401 11.1934 14.4557 9.17427C14.5175 8.78072 14.5478 8.37906 14.5478 7.97875C14.5478 7.57844 14.5162 7.17678 14.4557 6.78323V6.78458Z" fill="#D60000"/>
<path d="M5.13524 9.44467C5.92185 9.44467 6.55953 8.78893 6.55953 7.98003C6.55953 7.17112 5.92185 6.51538 5.13524 6.51538C4.34862 6.51538 3.71094 7.17112 3.71094 7.98003C3.71094 8.78893 4.34862 9.44467 5.13524 9.44467Z" fill="#D60000"/>
</g>
<defs>
<clipPath id="clip0_3064_1960">
<rect width="72" height="21" fill="white" transform="translate(0 0.5)"/>
</clipPath>
</defs>
</svg>
