<svg width="165" height="43" viewBox="0 0 165 43" fill="none" xmlns="http://www.w3.org/2000/svg">
<g clip-path="url(#clip0_1391_36615)">
<path d="M61.8166 12.1982L61.6537 11.9895L61.5061 11.7604L61.4094 11.5822L61.3433 11.4345L61.2924 11.2258L61.2415 10.9662L61.2109 10.7065V10.3349L61.2262 10.1872L61.2415 10.0599L61.2567 9.91229L61.3534 9.62209L61.384 9.49481L61.4501 9.34717L61.5163 9.23516L61.5825 9.10788L61.6486 8.96024L61.7301 8.84823L61.8115 8.72096L61.9897 8.49185L62.0864 8.37985L62.295 8.17111L62.519 7.97764L62.6462 7.89619L62.9719 7.67217L63.1195 7.59072L63.2468 7.50926L63.4911 7.38198L63.6387 7.31579L63.8321 7.24961L63.995 7.18342L64.1578 7.13251L64.336 7.06633L64.4988 7.01541L64.6464 7.00014L64.7737 6.96959L64.9213 6.95432L65.0689 6.90341L65.2165 6.87286L65.3437 6.85759L65.4913 6.84231L65.6542 6.82704L65.8476 6.81177H66.1886L66.8655 6.86268L67.2218 6.92886L67.3185 6.94414L67.6442 6.99505L67.7918 7.0256L67.9394 7.07651L68.0666 7.12742L68.2142 7.17833L68.3415 7.22924L68.4687 7.29543L68.596 7.34634L68.7436 7.41253L68.9217 7.50926L69.0998 7.62126L69.2271 7.70272L69.3543 7.81473L69.563 7.96237L69.675 8.0591L69.7717 8.17111L69.8531 8.26784L70.0465 8.49185L70.2094 8.7515L70.2755 8.83296L70.357 8.9806L70.4079 9.10788L70.4588 9.25553L70.5555 9.51518L70.6064 9.66282L70.6216 9.7901L70.6725 10.2279V10.5843L70.6573 10.7931V10.956L70.6267 11.2462L70.5962 11.3938L70.5453 11.5415L70.5147 11.6687L70.418 11.9589L70.3875 12.0862L70.3213 12.2339L70.2552 12.3459L70.189 12.4731L70.1228 12.6208L70.0414 12.7481L69.96 12.8601L69.8785 12.9874L69.7666 13.1146L69.7004 13.1808L69.5884 13.3081L69.4917 13.4201L69.3798 13.5168L69.2831 13.6136L69.1711 13.7103L68.9115 13.8732L68.6672 14.0209L68.5552 14.087L68.428 14.1532L68.2651 14.2194L68.1379 14.25L67.8478 14.3467L67.7002 14.3772L67.573 14.4078L67.4253 14.4231L67.1352 14.4383L66.9876 14.4536H66.2446L66.0817 14.4383L65.8883 14.4078L65.6796 14.3569L65.5167 14.3263L65.2266 14.2449L65.0485 14.2143L64.9009 14.2449L64.8347 14.3569L64.7838 14.5045L64.7329 14.6674L64.7024 14.7642L64.6719 14.9424L64.6413 15.09L64.6108 15.3802L64.5803 15.5278L64.4836 15.818L64.453 15.9657L64.4378 16.1133L64.3869 16.261L64.3563 16.4086L64.3054 16.5563L64.2902 16.7192L64.224 17.0094L64.1731 17.157L64.1426 17.2843L64.0764 17.4319L64.0255 17.5796L63.9593 17.7069L63.8779 17.8545L63.7507 18.0022L63.542 18.1142L63.2824 18.1447L63.0076 18.0938L62.7989 17.9818L62.6869 17.8341L62.6717 17.6865L62.7226 17.5592L62.7887 17.4116L62.8702 17.2334L62.9363 17.0399L62.9872 16.877L63.0381 16.6835L63.1043 16.4748L63.201 16.1846L63.2315 16.0217L63.2824 15.813L63.3129 15.6348L63.3638 15.4871L63.3944 15.3395L63.4096 15.1918L63.4402 15.0442L63.4707 14.9169L63.5013 14.7693L63.5522 14.6216L63.6031 14.4282L63.654 14.2194L63.7201 13.9292L63.7507 13.8019L63.7812 13.6238L63.8117 13.5423L63.8423 13.3641L63.8728 13.2368L63.9033 13.0892L63.9542 12.9415L63.9848 12.7939L64.0357 12.6462L64.0662 12.4375L64.1171 12.244L64.2138 11.9538L64.3105 11.6942L64.3614 11.5466L64.3919 11.3989L64.5039 11.0578L64.5701 10.8338L64.621 10.7371L64.7024 10.513L64.8144 10.2687L64.8958 10.0752L64.9772 9.92756L65.1248 9.68319L65.2063 9.55591L65.2724 9.42863L65.3539 9.31662L65.4506 9.20462L65.6593 8.99588L65.7712 8.89915L66.0308 8.77187L66.1784 8.72096L66.4685 8.65477L66.6314 8.67004L66.779 8.70059L66.9266 8.78205L67.0233 8.89405L67.0538 9.0417L67.0029 9.1537L66.8757 9.23516L66.7637 9.31662L66.6365 9.39808L66.5398 9.49481L66.3464 9.71882L66.2649 9.83083L66.0054 10.3501L65.9392 10.4621L65.873 10.5894L65.8221 10.7371L65.7916 10.8847L65.7407 11.0323L65.6898 11.2258L65.6236 11.4345L65.5575 11.5822L65.5066 11.7909L65.4557 11.9844L65.4251 12.132L65.3742 12.295L65.359 12.3917L65.3081 12.5546L65.2775 12.7022L65.2266 12.8499L65.2114 12.9975L65.1961 13.1757L65.2266 13.3234L65.3386 13.4048L65.532 13.471L65.7611 13.5016L65.8577 13.5168L66.0817 13.5474L66.2904 13.5779H66.4532L66.7433 13.5627L66.9367 13.5474L67.1454 13.5168L67.293 13.4659L67.4203 13.415L67.5679 13.3488L67.7613 13.2674L67.9241 13.1706L68.1837 13.0077L68.2957 12.9263L68.3924 12.8295L68.6825 12.4884L68.7945 12.3102L68.9217 12.0862L69.0184 11.908L69.0998 11.7451L69.166 11.5516L69.2169 11.3582L69.2322 11.1953L69.2627 11.0018L69.3136 10.7931L69.3289 10.6301L69.3441 10.4825L69.3289 10.3349L69.3136 10.1719L69.2831 10.0243L69.2169 9.81556L69.166 9.62209L69.0998 9.47445L69.0489 9.3268L68.9675 9.19953L68.8861 9.08752L68.8046 8.96024L68.596 8.7515L68.4993 8.6395L68.2753 8.44603L68.1481 8.36457L68.0208 8.29839L67.8732 8.2322L67.4864 8.06929L67.3388 8.0031L67.1912 7.95219L66.9164 7.886L66.7535 7.87073L66.6059 7.85546L66.1529 7.84018H66.0054L65.8577 7.85546L65.5676 7.87073L65.42 7.886L65.2928 7.91655L65.1452 7.9471L64.9976 7.99801L64.7228 8.06419L64.4327 8.16093L64.3054 8.22711L63.9644 8.4053L63.8015 8.48676L63.654 8.56822L63.201 8.95515L62.9923 9.16389L62.8956 9.27589L62.8142 9.3879L62.7327 9.51518L62.6666 9.64246L62.6157 9.76974L62.5648 9.91738L62.5139 10.0447L62.463 10.1923L62.4324 10.4825L62.4477 10.6301V10.7931L62.4783 11.0018L62.5088 11.1953L62.5597 11.3429L62.6259 11.4906L62.7531 11.7502L62.8345 11.8775L62.9007 12.0048L62.8854 12.132L62.8193 12.2797L62.7226 12.3917L62.6106 12.4884L62.463 12.5546L62.3154 12.5852L62.1678 12.5546L62.0202 12.4426L61.9082 12.3306L61.7962 12.2033L61.8166 12.1982Z" fill="white"/>
<path d="M75.0339 14.5763V14.7545L74.983 14.9021L74.8558 15.1617L74.7082 15.4061L74.6267 15.5538L74.5606 15.681L74.4639 15.8287L74.413 15.9254L74.3315 16.0731L74.2501 16.2003L74.1687 16.3123L74.072 16.4396L73.9905 16.5516L73.8277 16.8113L73.5376 17.1524L73.3441 17.3611L73.2322 17.4731L73.1355 17.5851L73.0235 17.6819L72.6672 17.9568L72.5553 18.0383L72.4077 18.1044L72.2601 18.1554L72.1328 18.1859L71.8427 18.2521H71.5679L71.3897 18.2368L71.2625 18.1859L71.1149 18.135L70.9877 18.0535L70.8757 17.9568L70.7943 17.8448L70.7128 17.7175L70.6467 17.5699L70.6161 17.4426L70.5856 17.2949L70.5703 17.1473V16.9997L70.6008 16.7095L70.6314 16.5618L70.6823 16.4142L70.7484 16.124L70.7993 15.9967L70.8299 15.8491L70.8808 15.7014L70.9317 15.5741L71.0793 15.1363L71.0945 15.009L71.1251 14.8614L71.176 14.7137L71.2065 14.5661L71.237 14.4388L71.3338 14.1486L71.3846 13.9551L71.4355 13.7464L71.5322 13.4562L71.5628 13.3086L71.5933 13.1966L71.6239 13.0489L71.69 12.886L71.7409 12.7587L71.8376 12.3209L71.8885 12.1732L71.9394 11.9798L72.0056 11.771L72.0565 11.6234L72.1226 11.4961L72.2193 11.4146L72.3669 11.3485L72.4942 11.3332L72.657 11.3485L72.9472 11.379L73.2067 11.4757L73.2882 11.5877V11.7354L73.2576 11.883L73.2067 12.0765L73.1558 12.2852L73.0591 12.5754L73.0286 12.7027L72.998 12.8504L72.9472 13.0133L72.8963 13.2067L72.7334 13.6904L72.7029 13.838L72.6367 14.0468L72.5247 14.3879L72.4942 14.5355L72.4636 14.6628L72.4331 14.8105L72.3211 15.0854L72.2906 15.233L72.1786 15.6352L72.0819 15.9254L72.0514 16.0731L72.0005 16.2818L71.9496 16.5415L71.9191 16.8164L71.9496 17.0607L72.0768 17.2389L72.255 17.2899L72.4026 17.2746L72.5502 17.2084L72.6621 17.1269L72.7894 17.0302L73.3238 16.4956L73.4205 16.3836L73.5019 16.2716L73.5986 16.1443L73.7615 15.8847L73.8582 15.7727L73.9244 15.676L74.0058 15.5487L74.1025 15.401L74.1687 15.2534L74.2959 14.9785L74.4893 14.5915L74.5707 14.4643L74.7183 14.3828L74.927 14.4133L75.0543 14.5763H75.0339ZM72.428 9.60728L72.5095 9.48L72.6367 9.368L72.7639 9.28654L72.9268 9.23562L73.0744 9.20508H73.2373L73.3849 9.23562L73.5121 9.31708L73.6241 9.41382L73.736 9.52582L73.8175 9.6531L73.8684 9.80074L73.8836 9.94839V10.1113L73.8328 10.2589L73.7513 10.3862L73.6546 10.5135L73.5426 10.6102L73.4154 10.707L73.2678 10.7732L73.1049 10.8037L72.9573 10.7884L72.7945 10.7579L72.5349 10.595L72.4382 10.483L72.3568 10.3557L72.3262 10.208L72.311 10.0604L72.3262 9.91275L72.3568 9.74983L72.4229 9.60219L72.428 9.60728Z" fill="white"/>
<path d="M81.985 18.216L81.8374 18.1854L81.6898 18.1345L81.5625 18.0683L81.4353 17.9716L81.2419 17.7476L81.1605 17.6203L81.1096 17.4727L81.0943 17.325L81.079 17.1621L81.1096 16.8719L81.1248 16.709L81.1554 16.4188L81.2215 16.1286L81.2521 16.0166L81.2826 15.8689L81.3335 15.6907L81.364 15.5635L81.4149 15.4158L81.4455 15.2682L81.4964 15.1205L81.5269 14.9729L81.5778 14.7794L81.644 14.5707L81.6745 14.423L81.7254 14.2754L81.7559 14.1278L81.8068 13.9801L81.8374 13.8528L81.9035 13.5626L81.9188 13.415L82.0155 12.9772L82.0308 12.8295L82.0461 12.6666L82.0308 12.519L81.9646 12.3917L81.8679 12.2949L81.7407 12.2644L81.5778 12.2491L81.4302 12.2797L81.303 12.3306L80.9162 12.575L80.7889 12.6717L80.5599 12.8652L80.4632 12.9772L80.3512 13.0739L80.2545 13.1859L80.1578 13.3132L80.0764 13.4405L79.9949 13.5525L79.9135 13.6797L79.8168 13.7917L79.7354 13.919L79.6692 14.0463L79.603 14.1939L79.4554 14.4536L79.4045 14.5809L79.3078 14.8711L79.2773 15.0187L79.2111 15.2122L79.1602 15.4056L79.1093 15.5686L79.0584 15.762L78.9923 15.9555L78.9414 16.1184L78.8447 16.5053L78.8294 16.6683L78.7785 16.877L78.7124 17.1366L78.6462 17.3454L78.5953 17.493L78.5648 17.6203L78.5139 17.7679L78.4477 17.8952L78.351 17.992L78.2034 18.0581L78.0558 18.0887L77.8929 18.104L77.7301 18.0887H77.5672L77.4196 18.0581L77.2924 17.992L77.2109 17.8952L77.2262 17.7476L77.2415 17.5847L77.272 17.3912L77.3229 17.1977L77.3891 17.0348L77.44 16.8261L77.5214 16.5664L77.5876 16.3068L77.6384 16.098L77.669 15.9351L77.7657 15.5482L77.8624 15.1104L77.9133 14.9831L77.9642 14.8354L78.0151 14.642L78.0456 14.4485L78.0965 14.2856L78.127 14.1583L78.2238 13.8172L78.2747 13.6237L78.3255 13.4608L78.3561 13.2521L78.407 12.9924V12.7175L78.3917 12.5088L78.295 12.3815L78.1321 12.3L77.9387 12.2695L77.7911 12.3L77.5977 12.3815L77.4349 12.4782L77.3229 12.5902L77.0939 12.7837L76.9463 12.911L76.7987 13.0586L76.702 13.1706L76.6205 13.2826L76.5544 13.4099L76.4577 13.5575L76.3915 13.639L76.2795 13.8172L76.1676 13.9801L76.0708 14.1278L75.9589 14.306L75.7502 14.7285L75.684 14.8762L75.6331 15.0238L75.6026 15.1714L75.5059 15.4616L75.4754 15.6093L75.4448 15.7722L75.3481 16.21L75.2972 16.3577L75.2311 16.6479L75.1802 16.7955L75.1496 16.9584L75.0987 17.1214L75.0682 17.269L75.0377 17.381L75.0071 17.5287L74.9562 17.6763L74.9053 17.8392L74.7934 17.9869L74.5694 18.0989L74.2946 18.1141L74.035 18.0989L73.7754 18.0021L73.6126 17.8392L73.582 17.6458L73.6126 17.4981L73.6787 17.3352L73.7093 17.2385L73.7602 17.0755L73.7907 16.9279L73.8416 16.7192L73.8925 16.5257L73.923 16.3781L74.0197 16.0879L74.0503 15.9606L74.1012 15.8129L74.1317 15.6653L74.1826 15.538L74.2131 15.3904L74.264 15.2427L74.3149 15.034L74.3658 14.8405L74.3964 14.6929L74.4931 14.4027L74.544 14.1939L74.5949 14.0005L74.6458 13.8528L74.6763 13.7052L74.6916 13.5575L74.7425 13.4099L74.773 13.2623L74.8392 13.0688L74.9053 12.8601L74.9715 12.5699L75.002 12.4426L75.1649 11.7145L75.2158 11.5873L75.282 11.4396L75.3939 11.3582L75.5568 11.3073L75.7197 11.2767L76.0454 11.3073L76.2083 11.3378L76.3559 11.404L76.4831 11.5007L76.5493 11.6127L76.534 11.7604L76.4831 11.9233L76.4322 12.0709L76.4017 12.2186L76.3508 12.3662L76.3202 12.5291L76.2693 12.6768L76.2032 12.967L76.1879 13.0637L76.2541 13.0332L76.3355 12.8855L76.4322 12.7582L76.5136 12.631L76.6103 12.519L76.6918 12.3917L76.7885 12.2797L76.9005 12.132L76.9972 12.0353L77.0786 11.9386L77.3025 11.7451L77.5621 11.5669L77.6741 11.4854L77.8013 11.404L77.9489 11.3378L78.0762 11.2869L78.239 11.236L78.4019 11.2207H78.6767L78.8243 11.236L78.9719 11.2665L79.0992 11.3174L79.2264 11.3836L79.3384 11.4651L79.4351 11.5618L79.5318 11.6738L79.659 11.9335L79.7099 12.0607L79.7608 12.2084L79.7761 12.356V12.5037L79.7608 12.6971L79.7455 12.9059L79.7303 13.0179H79.7455L79.8117 12.9364L79.9084 12.8091L80.0051 12.6971L80.1833 12.468L80.2952 12.3408L80.3614 12.2593L80.5701 12.0149L80.6668 11.9029L80.7787 11.8215L81.023 11.628L81.1503 11.5313L81.2622 11.4498L81.3895 11.3836L81.5371 11.3174L81.6847 11.2869L81.8781 11.2563L82.1529 11.2411L82.2649 11.2258H82.4125L82.5601 11.2563L82.7535 11.3073L82.9469 11.3887L83.0945 11.4854L83.1912 11.5822L83.2726 11.7095L83.3388 11.8367L83.3693 11.964L83.4202 12.1117L83.4355 12.2593L83.4508 12.3866V12.6768L83.4355 12.8244L83.4202 12.9873L83.3541 13.2775L83.3032 13.4863L83.0589 14.2652L82.9927 14.474L82.9418 14.6216L82.9113 14.8303L82.8604 15.0085L82.8095 15.1714L82.7433 15.3649L82.6924 15.5584L82.6415 15.7213L82.5601 16.1082L82.5296 16.2711L82.499 16.4799L82.4685 16.7548L82.4838 17.0145L82.5346 17.2079L82.6314 17.3046L82.7942 17.2894L82.9215 17.2588L83.0334 17.1926L83.1607 17.1265L83.2879 17.0297L83.3999 16.9483L83.6238 16.7243L83.7053 16.6122L83.8987 16.3526L83.9801 16.2711L84.0768 16.1439L84.6417 15.2376L84.7079 15.09L84.8555 14.7998L84.9064 14.7183L85.0031 14.5707L85.0693 14.4434L85.2169 14.362L85.4103 14.3925L85.5375 14.5554V14.7183L85.4714 14.866L85.3899 15.0136L85.339 15.1409L85.2729 15.2529L85.1253 15.5431L85.0133 15.7366L84.9166 15.8995L84.8352 16.0268L84.7537 16.1388L84.5094 16.5257L84.428 16.6377L84.2651 16.8821L84.1684 17.0094L83.9903 17.2334L83.7816 17.4421L83.6849 17.5541L83.5882 17.6508L83.3643 17.8443L83.237 17.9258L82.8502 18.1192L82.7026 18.1701L82.5754 18.2007L82.4125 18.216H82.0868L81.9595 18.2007L81.985 18.216Z" fill="white"/>
<path d="M89.9936 10.2891L89.9122 10.4367L89.7849 10.6964L89.7035 10.8746L89.5915 11.0528L89.5101 11.1648L89.4287 11.292L89.3472 11.4041L89.2658 11.5517L89.1996 11.6484L89.1182 11.7757L89.0062 11.9234L88.8586 12.0863L88.711 12.2339L88.6449 12.3154L88.5329 12.4427L88.3242 12.6514L88.2275 12.7634L88.0494 12.9569L87.9374 13.0536L87.8102 13.1809L87.632 13.3082L87.3877 13.5169L87.2605 13.5983L86.9042 13.8224L86.7922 13.8733L86.665 13.9547L86.4869 14.1024L86.3749 14.25L86.3087 14.3773L86.2782 14.5555L86.2273 14.8457V14.9424L86.1968 15.1053L86.1662 15.253L86.151 15.4159V15.757L86.1357 15.9657V16.2916L86.1662 16.4698L86.1815 16.5665L86.212 16.7294L86.2782 16.8771L86.3444 17.0043L86.4411 17.1163L86.5683 17.1978L86.6955 17.2487L86.8584 17.2793H87.1332L87.2605 17.264L87.4081 17.2131L87.6015 17.1316L87.7796 17.0349L87.9069 16.9382L88.0697 16.8109L88.2173 16.6632L88.4107 16.485L88.538 16.373L88.6347 16.2458L88.7008 16.1643L88.7975 16.037L88.8637 15.925L88.9604 15.7774L89.0266 15.6959L89.1233 15.5483L89.2505 15.3039L89.332 15.1766L89.4287 15.029L89.5101 14.8813L89.5915 14.7184L89.7391 14.5097L89.902 14.3824L90.1107 14.4129L90.2379 14.5759V14.7388L90.187 14.8864L90.1208 15.0137L90.0394 15.141L89.9732 15.2886L89.9071 15.4159L89.8562 15.5432L89.7747 15.6705L89.7086 15.7825L89.6272 15.9097L89.5305 16.0574L89.4999 16.1388L89.4185 16.2865L89.3218 16.4138L89.1589 16.6429L89.0469 16.7905L88.9808 16.8567L88.8688 17.0043L88.7721 17.1163L88.6449 17.2793L88.4973 17.4065L88.3853 17.5185L88.2886 17.6L88.1766 17.6967L88.029 17.7782L87.9018 17.8444L87.7542 17.9106L87.6269 17.9768L87.4997 18.0277L87.3521 18.0939L87.1587 18.16L86.833 18.2262L86.6395 18.2415L86.4614 18.2262H86.3647L86.2018 18.2109L86.0542 18.1804L85.927 18.1295L85.7794 18.0786L85.6522 18.0124L85.5249 17.9309L85.413 17.8342L85.3163 17.7375L85.2196 17.6255L85.1534 17.4982L85.0872 17.3505L85.0363 17.2233L85.0058 17.0756L84.9549 16.928L84.9396 16.7803L84.9091 16.6174V16.5207L84.8785 16.3425L84.8633 16.1948V16.0472L84.8785 15.8996L84.8938 15.7366V15.6399L84.9091 15.4312L84.96 15.0748L84.9753 14.8813V14.7337L85.0058 14.586L85.0363 14.4231L85.1483 13.8885L85.1992 13.6951L85.2501 13.4049L85.2806 13.3234L85.3315 13.13L85.3621 13.0332L85.4282 12.7889L85.4791 12.5801L85.5097 12.4325L85.5606 12.239L85.6267 12.015L85.642 11.903L85.7082 11.679L85.7743 11.4702L85.8252 11.3582L85.8914 11.1495L85.9575 10.956L86.0237 10.8084L86.1866 10.3858L86.2171 10.2891L86.3138 10.0651L86.4258 9.80543L86.5072 9.61196L86.5734 9.46432L86.6243 9.36759L86.7057 9.21994L86.8177 8.94502L86.8991 8.7821L86.9806 8.63446L87.0773 8.48682L87.2045 8.27808L87.4132 7.98788L87.5099 7.8606L87.7186 7.65186L87.7847 7.57041L87.8967 7.4584L88.0087 7.37694L88.2682 7.19875L88.4464 7.08675L88.6245 7.00529L88.7721 6.95437L88.9197 6.92383H89.2098L89.3727 6.95437L89.4694 6.96965L89.6322 7.02056L89.7595 7.08675L89.9834 7.28021L90.0649 7.40749L90.1768 7.57041L90.2583 7.76387L90.3244 7.91151L90.3906 8.10498L90.4211 8.31372V8.60391L90.3906 9.04175L90.3244 9.33195L90.2735 9.45923L90.243 9.62215L90.1158 10.0091L90.0496 10.1364L89.9987 10.284L89.9936 10.2891ZM87.3063 10.7422L87.0773 11.4193L87.0467 11.567L86.9958 11.7146L86.9297 11.9234L86.8177 12.2645L86.7668 12.4274L86.7515 12.5241L86.7006 12.687L86.6497 12.8347L86.6192 12.9976L86.6497 13.0943L86.7464 13.0281L86.9093 12.9009L87.5709 12.239L87.6524 12.127L87.7338 11.9997L87.8305 11.8521L87.8967 11.7859L87.9934 11.6382L88.1054 11.4906L88.2173 11.3277L88.3293 11.1495L88.4107 11.0222L88.4769 10.9102L88.5583 10.7982L88.6856 10.5386L88.7517 10.3756L88.8026 10.2789L88.8688 10.116L88.935 9.96835L88.9655 9.8207L89.0164 9.67306L89.0673 9.49487L89.1335 9.31668L89.1844 9.13849L89.2505 8.9603L89.2658 8.79738L89.2811 8.64973V8.34426L89.2505 8.21698L89.1996 8.08971L89.0876 8.00825L88.9604 7.9777L88.8128 8.00825L88.6652 8.12025L88.5532 8.21698L88.4718 8.31372L88.3904 8.42572L88.3089 8.553L88.1461 8.79738L88.0646 8.94502L87.9985 9.09267L87.9323 9.21994L87.8661 9.36759L87.8 9.49487L87.7338 9.64251L87.6829 9.76979L87.6168 9.94798L87.5201 10.1924L87.4539 10.34L87.291 10.7422H87.3063Z" fill="white"/>
<path d="M93.5573 14.5753V14.7535L93.5064 14.9011L93.3792 15.1608L93.2316 15.4051L93.1502 15.5528L93.084 15.6801L92.9873 15.8277L92.9364 15.9244L92.855 16.0721L92.7735 16.1994L92.6921 16.3114L92.5954 16.4387L92.514 16.5507L92.3511 16.8103L92.061 17.1514L91.8676 17.3602L91.7556 17.4722L91.6589 17.5842L91.5469 17.6809L91.1907 17.9558L91.0787 18.0373L90.9311 18.1035L90.7835 18.1544L90.6563 18.1849L90.3662 18.2511H90.0913L89.9132 18.2358L89.7859 18.1849L89.6383 18.134L89.5111 18.0526L89.3991 17.9558L89.3177 17.8438L89.2363 17.7165L89.1701 17.5689L89.1396 17.4416L89.109 17.294L89.0938 17.1463V16.9987L89.1243 16.7085L89.1548 16.5608L89.2057 16.4132L89.2719 16.123L89.3228 15.9957L89.3533 15.8481L89.4042 15.7004L89.4551 15.5732L89.6027 15.1353L89.618 15.008L89.6485 14.8604L89.6994 14.7127L89.73 14.5651L89.7605 14.4378L89.8572 14.1476L89.9081 13.9542L89.959 13.7454L90.0557 13.4552L90.0862 13.3076L90.1168 13.1956L90.1473 13.0479L90.2135 12.885L90.2644 12.7577L90.3611 12.3199L90.412 12.1723L90.4629 11.9788L90.529 11.7701L90.5799 11.6224L90.6461 11.4951L90.7428 11.4137L90.8904 11.3475L91.0176 11.3322L91.1805 11.3475L91.4706 11.378L91.7302 11.4748L91.8116 11.5868V11.7344L91.7811 11.8821L91.7302 12.0755L91.6793 12.2843L91.5826 12.5745L91.552 12.7017L91.5215 12.8494L91.4706 13.0123L91.4197 13.2058L91.2568 13.6894L91.2263 13.8371L91.1601 14.0458L91.0482 14.3869L91.0176 14.5346L90.9871 14.6618L90.9565 14.8095L90.8446 15.0844L90.814 15.232L90.7021 15.6342L90.6054 15.9244L90.5748 16.0721L90.5239 16.2808L90.473 16.5405L90.4425 16.8154L90.473 17.0598L90.6003 17.238L90.7784 17.2889L90.926 17.2736L91.0736 17.2074L91.1856 17.126L91.3128 17.0292L91.8472 16.4947L91.9439 16.3826L92.0254 16.2706L92.1221 16.1434L92.2849 15.8837L92.3816 15.7717L92.4478 15.675L92.5292 15.5477L92.6259 15.4001L92.6921 15.2524L92.8193 14.9775L93.0127 14.5906L93.0942 14.4633L93.2418 14.3818L93.4505 14.4124L93.5777 14.5753H93.5573ZM90.9515 9.6063L91.0329 9.47903L91.1601 9.36702L91.2874 9.28556L91.4502 9.23465L91.5978 9.2041H91.7607L91.9083 9.23465L92.0355 9.31611L92.1475 9.41284L92.2595 9.52484L92.3409 9.65212L92.3918 9.79977L92.4071 9.94741V10.1103L92.3562 10.258L92.2748 10.3853L92.1781 10.5125L92.0661 10.6093L91.9388 10.706L91.7912 10.7722L91.6284 10.8027L91.4808 10.7875L91.3179 10.7569L91.0583 10.594L90.9616 10.482L90.8802 10.3547L90.8497 10.2071L90.8344 10.0594L90.8497 9.91177L90.8802 9.74886L90.9464 9.60121L90.9515 9.6063Z" fill="white"/>
<path d="M95.0229 18.1856L94.8957 18.1704L94.7481 18.1398L94.6005 18.0889L94.4071 18.0074L94.229 17.9107L94.0814 17.8292L93.9185 17.702L93.7709 17.5543L93.6589 17.4576L93.5622 17.3456L93.4655 17.2489L93.3994 17.1216L93.3179 16.9739L93.2365 16.7805L93.1551 16.6023L93.1042 16.4546L93.0533 16.2459L93.0227 16.0524L93.0075 15.8895L92.9922 15.7419V15.4517L93.0075 15.3244L93.0227 15.1767L93.038 15.0138L93.0685 14.8204L93.1194 14.6116L93.1703 14.464L93.2009 14.3163L93.3128 13.9752L93.3943 13.797L93.4757 13.6494L93.7353 13.1301L93.8167 13.0028L93.9796 12.7737L94.2035 12.5293L94.2544 12.4632L94.3664 12.3359L94.4784 12.2391L94.5751 12.1424L94.687 12.0457L94.799 11.9642L94.9262 11.8675L95.0382 11.786L95.1655 11.7198L95.2927 11.6384L95.4047 11.5722L95.5319 11.506L95.71 11.4246L96.051 11.3278L96.2292 11.2769L96.3768 11.2464L96.5244 11.2311L96.6872 11.2158H96.9621L97.1097 11.2311L97.3184 11.2616L97.5627 11.3278L97.7713 11.394L97.9189 11.4449L98.0309 11.5111L98.1429 11.5926L98.2548 11.6893L98.3515 11.8013L98.4482 11.898L98.5144 12.0457L98.5806 12.2239L98.6315 12.4173L98.6467 12.5803L98.6315 12.7737L98.5806 12.9825L98.5297 13.1301L98.4635 13.2574L98.3821 13.3847L98.2701 13.5476L98.1581 13.6952L98.0614 13.8072L97.9495 13.904L97.8222 13.9701L97.6136 14.0007H97.354L97.0944 13.9345L96.9315 13.8225V13.6596L97.013 13.5119L97.1249 13.3337L97.2216 13.1861L97.2878 13.0385L97.3184 12.9112L97.3489 12.7635V12.6363L97.3184 12.4886L97.2064 12.3257L97.0435 12.2137L96.8959 12.1628L96.7483 12.1475L96.6007 12.1628L96.4073 12.1933L96.2139 12.2595L96.0663 12.3257L95.9543 12.4072L95.8271 12.5039L95.7151 12.5853L95.5879 12.6821L95.4607 12.8297L95.3487 12.9417L95.2367 13.0894L95.0891 13.2676L94.9924 13.4458L94.9262 13.5934L94.8448 13.7207L94.7786 13.8327L94.7125 13.96L94.6616 14.1076L94.6107 14.2349L94.5598 14.3825L94.5089 14.5913L94.458 14.7847L94.4275 14.9476L94.3969 15.1411L94.3816 15.3498L94.3664 15.5128V15.7215L94.3816 15.9812L94.4325 16.2052L94.4834 16.3681L94.6463 16.6939L94.743 16.8212L94.8397 16.9179L94.9517 17.0147L95.1298 17.0961L95.3232 17.1776L95.4708 17.2081L95.6795 17.2387H96.0358L96.4073 17.2081L96.5549 17.1776L96.7331 17.1267L96.8806 17.0605L97.0588 16.9637L97.2369 16.8823L97.6237 16.6379L97.7866 16.5106L97.9342 16.3834L98.1581 16.1899L98.3515 15.9659L98.4482 15.8691L98.6417 15.6451L98.8045 15.4211L98.9012 15.2735L98.9521 15.1767L99.0641 14.9986L99.1608 14.8356L99.227 14.688L99.3389 14.4793L99.5018 14.3673L99.7105 14.3978L99.8377 14.5454V14.7236L99.7868 14.8509L99.7206 14.9782L99.6545 15.1258L99.573 15.2888L99.4611 15.4669L99.3338 15.6451L99.2066 15.8386L98.9623 16.195L98.8656 16.3223L98.7842 16.4343L98.6722 16.5463L98.3821 16.8874L98.3006 16.9994L98.2039 17.0961L98.092 17.1929L97.868 17.3558L97.7713 17.4372L97.6594 17.5187L97.5118 17.6307L97.3845 17.7122L97.2573 17.7783L97.13 17.8598L96.9366 17.9413L96.7432 18.0074L96.5651 18.0584L96.3717 18.0889L96.1783 18.1398L95.8882 18.1907L95.4505 18.2416L95.1604 18.2111L95.0128 18.1805L95.0229 18.1856Z" fill="white"/>
<path d="M103.728 17.3093L103.499 17.5028L103.24 17.6657L103.113 17.7319L102.853 17.8948L102.726 17.961L102.436 18.0577L102.273 18.1086L101.983 18.1595L101.886 18.1901L101.723 18.2206L101.596 18.2359H101.448L101.27 18.2512H101.122L100.832 18.2206L100.654 18.1697L100.507 18.1188L100.395 18.0679L100.247 18.017L100.12 17.9508L99.8603 17.7879L99.7483 17.6912L99.5549 17.4621L99.4735 17.3348L99.4073 17.2075L99.3259 17.0802L99.2292 16.79L99.163 16.4998L99.1325 16.2096L99.1172 16.0467L99.1325 15.8991V15.446L99.163 15.2983L99.1935 15.171L99.2241 15.0234L99.275 14.7332L99.3055 14.5703L99.336 14.4226L99.3869 14.2954L99.4378 14.1477L99.504 14.0001L99.5702 13.8728L99.6211 13.7251L99.7025 13.5317L99.7992 13.3382L99.8806 13.2109L99.9773 13.0837L100.059 12.9716L100.155 12.8596L100.318 12.6L100.415 12.488L100.624 12.2793L100.848 12.0858L100.96 12.0043L101.087 11.9076L101.234 11.8109L101.413 11.6989L101.591 11.6021L101.718 11.5359L101.881 11.4698L101.978 11.4392L102.156 11.373L102.252 11.3425L102.415 11.2916L102.563 11.261L102.726 11.2457L102.873 11.2305H103.245L103.504 11.261L103.713 11.2916L103.861 11.3221L104.008 11.373L104.136 11.4392L104.426 11.6174L104.604 11.7141L104.716 11.8109L104.797 11.9076L104.894 12.0196L104.991 12.1469L105.184 12.5033L105.235 12.6509L105.25 12.7985L105.265 12.9258L105.332 13.216V13.7811L105.301 13.9746L105.286 14.1528L105.271 14.3157L105.174 14.7994L105.108 15.0234L105.057 15.1863L104.991 15.3492L104.924 15.5274L104.874 15.6751L104.777 15.8532L104.629 16.1434L104.548 16.3216L104.563 16.4336L104.69 16.4489H104.787L104.965 16.4336L105.077 16.4184L105.225 16.3878L105.388 16.3216L105.5 16.2555L105.759 16.0925L105.871 15.9958L106.08 15.7871L106.273 15.558L106.355 15.446L106.436 15.3187L106.517 15.2067L106.645 14.947L106.792 14.6721L106.843 14.5754L106.94 14.4277L107.088 14.3463L107.281 14.3768L107.408 14.5245L107.423 14.7026L107.373 14.8503L107.179 15.2372L107.098 15.3492L106.935 15.6089L106.869 15.7362L106.787 15.8482L106.691 15.9754L106.609 16.0874L106.512 16.1842L106.304 16.4082L106.207 16.5049L106.095 16.6017L105.983 16.6831L105.856 16.7798L105.744 16.846L105.484 16.9733L105.337 17.0395L105.209 17.07L104.629 17.1362L104.451 17.121L104.303 17.1057L104.176 17.0751L104.049 17.0599L103.937 17.1108L103.825 17.1922L103.728 17.3042V17.3093ZM100.527 15.5478L100.512 15.7412L100.527 15.9042L100.542 16.1129L100.573 16.3725L100.639 16.6322L100.751 16.8766L100.863 17.0395L100.99 17.1515L101.168 17.233L101.413 17.2991H101.621L101.784 17.2839L101.947 17.2533L102.095 17.1871L102.222 17.121L102.369 17.0395L102.497 16.958L102.609 16.8613L102.736 16.7646L102.802 16.6526V16.5558L102.736 16.4438L102.654 16.3165L102.624 16.1689L102.654 15.9754L102.721 15.782L102.833 15.6852L102.96 15.6038L103.107 15.5885L103.255 15.6191L103.367 15.6496L103.464 15.6343L103.53 15.5376L103.581 15.4103L103.774 14.8299L103.871 14.3921L103.901 14.1833L103.952 13.9084L103.983 13.3586L103.968 13.0989L103.901 12.824L103.805 12.5796L103.693 12.4167L103.566 12.32L103.372 12.2385L103.128 12.1876L102.919 12.1723H102.756L102.629 12.2029L102.481 12.2538L102.319 12.3505L102.191 12.432L102.044 12.5287L101.881 12.656L101.769 12.7527L101.657 12.8647L101.575 12.9767L101.479 13.0887L101.397 13.216L101.234 13.44L101.153 13.5673L100.827 14.2139L100.776 14.3615L100.746 14.4888L100.649 14.779L100.619 14.9063L100.568 15.0539L100.552 15.2016V15.3492L100.522 15.5427L100.527 15.5478Z" fill="white"/>
<path d="M112.833 6.87283L112.996 6.85755L113.144 6.84228L113.47 6.85755H113.582L113.745 6.87283L113.892 6.8881L114.197 6.93901L114.635 7.03574L114.762 7.06629L114.91 7.09684L115.058 7.16302L115.205 7.21393L115.332 7.24448L115.623 7.34121L115.75 7.4074L115.897 7.47358L116.025 7.53977L116.33 7.65177L116.457 7.71796L116.569 7.76887L116.717 7.83506L116.844 7.88597L117.424 8.04889L117.587 8.0998L117.684 8.13034L117.847 8.18126L118.01 8.19653L118.218 8.22708H118.412L118.59 8.24235L118.88 8.2118L119.007 8.19653L119.155 8.16598L119.302 8.11507L119.43 8.04889L119.542 7.96743L119.669 7.88597L119.766 7.80451L119.877 7.70778L119.959 7.59577L120.025 7.46849L120.091 7.32085L120.142 7.11211L120.254 6.90337L120.463 6.80664L120.707 6.82191L120.9 6.93392L120.982 7.09684L121.012 7.25975V7.42267L120.982 7.57032L120.931 7.71796L120.9 7.88088L120.85 8.02852L120.783 8.1558L120.733 8.26781L120.651 8.41545L120.539 8.54273L120.442 8.65473L120.33 8.76674L120.183 8.86347L120.005 8.9602L119.679 9.12312L119.531 9.18931L119.404 9.21985L119.277 9.23513L119.129 9.26567L118.951 9.28095L118.824 9.29622L118.631 9.28095H118.452L118.274 9.26567L118.081 9.23513L117.658 9.18422L117.511 9.15367L117.058 9.02639L116.864 9.01112L116.717 9.09258L116.651 9.21985L116.6 9.38277L116.549 9.56096L116.518 9.72388L116.467 9.93262L116.417 10.1261L116.335 10.4163L116.284 10.5639L116.254 10.7116L116.223 10.8388L116.193 10.9865L116.142 11.1341L116.091 11.2614L116.076 11.4091L116.009 11.6993L115.958 11.8265L115.928 11.9742L115.831 12.2644L115.78 12.4731L115.75 12.6666L115.719 12.8295L115.689 12.9771L115.658 13.1044L115.495 13.5881L115.429 13.7968L115.399 13.9445L115.348 14.0921L115.22 14.6725L115.17 14.8354L115.139 14.9321L115.088 15.0951L115.037 15.2427L114.971 15.37L114.92 15.4973L114.854 15.6449L114.803 15.7722L114.656 16.21L114.589 16.3373L114.523 16.485L114.457 16.6122L114.376 16.7242L114.131 17.1112L114.05 17.2232L113.856 17.4472L113.745 17.5439L113.648 17.6559L113.536 17.7374L113.409 17.8341L113.261 17.9156L113.134 17.9818L113.022 18.0327L112.874 18.0988L112.747 18.1498L112.599 18.1803L112.452 18.1956L112.289 18.2109L112.141 18.2261L112.014 18.2414H111.866L111.704 18.2261L111.495 18.2109L111.235 18.1599L111.072 18.109L110.894 18.0581L110.686 17.9767L110.508 17.8799L110.38 17.7985L110.217 17.6508L110.039 17.4726L109.912 17.3097L109.831 17.1468L109.78 17.0653L109.714 16.9024L109.663 16.7751L109.632 16.6275L109.617 16.4188L109.602 16.2253L109.617 16.0624L109.632 15.8689L109.663 15.6602L109.81 15.2223L109.892 15.0951L109.958 14.9678L110.039 14.8558L110.121 14.7285L110.217 14.6012L110.314 14.5045L110.411 14.3925L110.523 14.311L110.65 14.2448L110.798 14.2143L110.925 14.2296L111.072 14.2805L111.184 14.3619L111.281 14.4739L111.347 14.5859V14.7336L111.266 14.9118L111.139 15.1358L111.042 15.314L110.976 15.4769L110.925 15.6704L110.874 15.93V16.2049L110.905 16.4137L110.955 16.5613L111.052 16.7395L111.164 16.9024L111.291 17.0144L111.454 17.1112L111.698 17.2079L111.907 17.2384L112.07 17.2537H112.218L112.345 17.2232L112.492 17.1723L112.62 17.0908L112.732 17.0093L112.925 16.8159L113.022 16.7039L113.118 16.5562L113.185 16.4086L113.378 16.0217L113.444 15.874L113.495 15.7264L113.561 15.5991L113.612 15.4514L113.678 15.3038L113.729 15.1765L113.826 14.8863L113.877 14.759L113.928 14.5809L113.958 14.4841L114.009 14.3059L114.075 14.0157L114.091 13.8885L114.141 13.7103L114.172 13.6135L114.223 13.3895L114.274 13.1961L114.371 12.9059L114.401 12.7582L114.452 12.6309L114.503 12.4833L114.554 12.356L114.569 12.2084L114.635 11.9182L114.666 11.7909L114.717 11.6432L114.747 11.4956L114.798 11.348L114.849 11.1545L114.915 10.961L114.946 10.7981L114.961 10.6505L115.012 10.5232L115.093 10.233L115.159 10.0243L115.21 9.83079L115.307 9.5406L115.338 9.39295L115.388 9.19949L115.439 8.99075L115.49 8.82783L115.506 8.64964L115.475 8.502L115.378 8.42054L115.103 8.29326L114.976 8.22708L114.798 8.17616L114.411 8.04889L114.233 7.99797L114.106 7.94706L113.816 7.88088L113.653 7.8656L113.505 7.85033L113.327 7.83506H112.889L112.599 7.90124L112.08 8.16089L111.968 8.24235L111.856 8.35436L111.775 8.46636L111.678 8.64455L111.597 8.83802L111.566 8.98566V9.14858L111.581 9.27586L111.632 9.4235L111.698 9.53551L111.81 9.64751L111.922 9.72897L112.05 9.79516L112.197 9.84607L112.345 9.86134H112.492L112.64 9.84607L112.767 9.81552L112.915 9.78497L113.062 9.73406L113.225 9.66788L113.307 9.61696L113.47 9.55078L113.633 9.58133L113.76 9.67806L113.841 9.80534L113.892 9.96826L113.862 10.1159L113.734 10.2432L113.571 10.3705L113.424 10.4519L113.23 10.5486L113.001 10.6454L112.793 10.7268L112.645 10.7778L112.436 10.8083L112.213 10.8236H111.81L111.617 10.7727L111.424 10.7065L111.276 10.6403L111.098 10.5588L110.92 10.4468L110.793 10.3348L110.726 10.2686L110.599 10.1566L110.518 10.0446L110.452 9.91734L110.37 9.72388L110.304 9.54569L110.273 9.38277L110.258 9.21985L110.243 9.07221V8.92457L110.258 8.76165L110.309 8.61401L110.34 8.48673L110.406 8.33908L110.569 8.07943L110.65 7.96743L110.747 7.84015L110.94 7.61105L111.052 7.49904L111.164 7.41758L111.439 7.26994L111.566 7.20375L111.693 7.12229L112.131 6.97465L112.279 6.9441L112.747 6.87792L112.844 6.86264L112.833 6.87283Z" fill="white"/>
<path d="M125.923 15.0137L125.892 15.0951L125.811 15.2581L125.729 15.3701L125.663 15.4973L125.597 15.645L125.531 15.7723L125.368 16.0319L125.287 16.1439L125.205 16.2712L125.139 16.3985L125.057 16.5258L124.961 16.6378L124.864 16.7651L124.767 16.8771L124.589 17.1011L124.493 17.2131L124.396 17.3098L123.943 17.6967L123.816 17.7782L123.668 17.8597L123.49 17.9411L123.296 18.0226L123.149 18.0735L123.001 18.104H122.838L122.645 18.0888L122.452 18.0378L122.304 17.9869L122.192 17.9055L122.08 17.8087L121.968 17.6458L121.856 17.4676L121.805 17.32L121.754 17.1265L121.739 16.9178V16.7549L121.754 16.5461L121.77 16.3527L121.719 16.3221L121.637 16.4341L121.474 16.6938L121.312 16.9178L121.215 17.0298L121.133 17.1418L121.037 17.2538L120.955 17.3658L120.843 17.4625L120.747 17.5593L120.635 17.656L120.523 17.7375L120.395 17.8189L120.217 17.9309L119.973 18.0429L119.713 18.1244L119.505 18.1753L119.215 18.2058L119.052 18.1906L118.858 18.16L118.665 18.1091L118.517 18.0582L118.39 18.0073L118.278 17.9258L118.054 17.7324L117.973 17.6204L117.891 17.4931L117.795 17.3149L117.698 17.0705L117.647 16.8618L117.632 16.6989L117.601 16.4901L117.586 16.2305V16.0217L117.601 15.8588L117.616 15.6501L117.647 15.4566L117.698 15.2937L117.749 15.1002L117.8 14.8915L117.851 14.7439L117.917 14.6166L117.968 14.4689L118.354 13.69L118.436 13.5627L118.517 13.4507L118.599 13.3234L118.762 13.0943L118.858 12.9823L119.067 12.7379L119.133 12.6718L119.245 12.5445L119.469 12.351L119.617 12.2034L119.795 12.0761L120.019 11.8979L120.146 11.8164L120.258 11.735L120.406 11.6688L120.599 11.5873L120.777 11.4906L120.94 11.4091L121.133 11.343L121.327 11.292L121.49 11.2411L121.892 11.2106L122.039 11.1953H122.233L122.558 11.2106L122.93 11.2411L123.286 11.3073L123.434 11.3379L123.612 11.3888L124.258 11.679L124.37 11.7757L124.482 11.8572L124.594 11.9539L124.691 12.0659L124.722 12.2441L124.655 12.4732L124.477 12.6667L124.299 12.7787L124.172 12.7939L124.045 12.743L123.917 12.6463L123.77 12.5648L123.643 12.4834L123.531 12.4325L123.403 12.3663L123.256 12.3001L123.129 12.2695L122.854 12.2034L122.691 12.1525L122.528 12.1219H122.202L122.09 12.1372L121.927 12.1525L121.719 12.2034L121.317 12.351L121.154 12.4325L120.991 12.5292L120.879 12.6107L120.752 12.6921L120.64 12.7736L120.528 12.8703L120.4 12.9823L120.334 13.0485L120.222 13.1758L120.126 13.2878L120.044 13.3998L119.851 13.6238L119.769 13.7358L119.688 13.8631L119.495 14.25L119.413 14.3773L119.316 14.6675L119.25 14.8151L119.184 14.9424L119.087 15.3803L119.036 15.5432L118.986 15.981V16.4341L119.001 16.597L119.052 16.7447L119.118 16.872L119.199 16.9992L119.296 17.096L119.444 17.1622L119.637 17.1927L119.846 17.1774L119.993 17.1265L120.253 16.9992L120.482 16.8058L120.579 16.709L120.691 16.6123L120.787 16.5003L120.869 16.3883L120.965 16.2763L121.047 16.1643L121.225 15.9199L121.306 15.8079L121.551 15.421L121.647 15.2428L121.759 15.0341L121.826 14.9373L122.019 14.5148L122.085 14.3671L122.116 14.2551L122.182 14.1075L122.233 13.9802L122.284 13.8325L122.35 13.6543L122.447 13.3285L122.513 13.1503L122.564 12.9874L122.66 12.8398L122.823 12.7583L122.971 12.7278L123.118 12.743L123.266 12.7736L123.526 12.9009L123.653 12.9823L123.719 13.079L123.734 13.2267L123.683 13.354L123.653 13.5016L123.602 13.6493L123.536 13.9395L123.485 14.0871L123.454 14.2144L123.358 14.5046L123.327 14.6675L123.312 14.7642L123.261 14.9577L123.23 15.1053L123.164 15.3803L123.113 15.5737L123.083 15.7366L123.052 15.9148L123.001 16.1592L122.95 16.4341L122.935 16.6785L122.95 16.8872L123.032 17.0145L123.195 17.096L123.439 17.1112L123.632 17.0451L123.78 16.9636L124.004 16.8007L124.116 16.6887L124.309 16.4799L124.503 16.2559L124.666 16.0268L124.747 15.8996L124.844 15.7723L124.874 15.6755L125.134 15.2886L125.2 15.1613L125.281 15.0341L125.607 14.3875L125.755 14.306L125.948 14.3366L126.075 14.4995L126.091 14.6624L126.025 14.81L125.943 14.973L125.923 15.0137Z" fill="white"/>
<path d="M129.137 12.3408L129.01 12.407L128.898 12.4732L128.786 12.5546L128.658 12.6514L128.546 12.7481L128.287 12.9263L128.175 13.0077L128.063 13.1045L127.951 13.2165L127.757 13.4405L127.646 13.5525L127.452 13.7765L127.289 14.0362L127.193 14.1634L126.999 14.5504L126.821 15.0849L126.77 15.2937L126.704 15.538L126.638 15.7468L126.541 16.1846L126.475 16.3934L126.409 16.6377L126.358 16.8465L126.307 16.9941L126.256 17.2029L126.226 17.3811L126.175 17.544L126.159 17.6916L126.129 17.8189L126.078 17.9462L125.981 18.0276L125.834 18.0785L125.686 18.0938L125.477 18.1091L125.233 18.0938L125.024 18.0633L124.897 17.9971L124.8 17.8494L124.785 17.6712L124.816 17.5083L124.867 17.2996L124.917 17.1061L124.948 16.9585L124.999 16.8108L125.029 16.6632L125.08 16.5359L125.131 16.3883L125.162 16.2406L125.192 16.1134L125.223 15.9657L125.274 15.8181L125.325 15.6908L125.391 15.4006L125.421 15.2733L125.437 15.1257L125.488 14.978L125.518 14.8304L125.569 14.6827L125.62 14.4893L125.686 14.2805L125.767 13.9903L125.798 13.8631L125.829 13.7154L125.879 13.5678L125.91 13.4201L125.961 13.2928L125.991 13.1452L126.042 12.9976L126.093 12.7888L126.144 12.5954L126.175 12.4477L126.271 12.1575L126.302 12.0302L126.353 11.8826L126.419 11.5924L126.531 11.4295L126.74 11.3175L126.999 11.2869L127.259 11.3175L127.503 11.3989L127.666 11.5618L127.696 11.7553L127.666 11.9182L127.635 12.0302L127.584 12.1779L127.554 12.3255L127.503 12.4528L127.472 12.6004L127.422 12.7481L127.391 12.8957L127.376 12.9925L127.391 13.0077L127.457 12.9263L127.554 12.8143L127.635 12.7023L127.829 12.4783L127.941 12.3815L128.149 12.2033L128.261 12.1066L128.47 11.8979L128.796 11.6382L128.923 11.5568L129.05 11.4906L129.177 11.4091L129.305 11.3582L129.452 11.3073L129.661 11.2564L129.854 11.2258H130.226L130.486 11.2564L130.664 11.2869L130.811 11.3531L130.959 11.4346L131.071 11.5466L131.152 11.6586L131.234 11.7859L131.3 11.9131L131.351 12.0608L131.402 12.2542L131.432 12.4477V12.7532L131.417 12.9008V13.0485L131.402 13.1757L131.371 13.3234L131.341 13.4863L131.31 13.583L131.259 13.746L131.208 13.9547L131.142 14.1991L131.076 14.4078L131.025 14.5555L130.974 14.7642L130.908 15.0391L130.842 15.2988L130.776 15.5228L130.745 15.6704L130.715 15.7824L130.684 15.9301L130.633 16.0777L130.603 16.205L130.506 16.6428L130.491 16.7905V17.0807L130.557 17.208L130.669 17.2894L130.816 17.3047L130.964 17.2538L131.112 17.1876L131.239 17.1061L131.351 17.0247L131.478 16.9279L131.687 16.7192L131.768 16.6072L131.865 16.4799L131.946 16.3679L132.058 16.2406L132.14 16.1286L132.236 15.981L132.384 15.7366L132.481 15.589L132.532 15.5075L132.628 15.3599L132.71 15.2122L132.837 14.9526L132.903 14.8049L132.954 14.6776L133.005 14.53L133.086 14.4027L133.234 14.306L133.443 14.3569L133.57 14.5198V14.6827L133.519 14.8304L133.453 14.9577L133.387 15.1053L133.32 15.2326L133.239 15.3599L133.173 15.4871L133.076 15.6348L133.025 15.7315L132.862 16.0217L132.832 16.1184L132.75 16.2661L132.588 16.5257L132.491 16.6734L132.425 16.7548L132.328 16.8821L132.216 17.0298L132.119 17.1418L131.941 17.3352L131.844 17.4472L131.62 17.6407L131.524 17.7374L131.397 17.8342L131.269 17.9156L131.01 18.0429L130.883 18.0938L130.735 18.1447L130.587 18.1753L130.46 18.1905L130.297 18.2058H130.15L130.002 18.1905L129.875 18.16L129.727 18.1091L129.6 18.0582L129.473 17.9767L129.376 17.8953L129.279 17.7833L129.213 17.6356L129.162 17.5083L129.132 17.3607L129.101 17.2334V16.877L129.132 16.6683L129.147 16.5054L129.198 16.2966L129.345 15.7621L129.396 15.4871L129.463 15.2122L129.529 14.9526L129.595 14.7438L129.646 14.5962L129.712 14.3874L129.778 14.1278L129.829 13.8681L129.895 13.6594L129.961 13.3692L129.977 13.2216L130.043 12.9161L130.058 12.7685L130.027 12.6055L129.931 12.4426L129.783 12.295L129.636 12.2441L129.488 12.2288L129.34 12.2441L129.162 12.3102L129.137 12.3408Z" fill="white"/>
<path d="M133.801 12.8604L133.913 12.7484L134.106 12.5244L134.447 12.2342L134.559 12.1527L134.686 12.056L134.798 11.9746L134.925 11.9084L135.073 11.8422L135.317 11.7149L135.465 11.6334L135.755 11.5367L135.882 11.4858L136.172 11.4196L136.32 11.4043L136.483 11.3891L136.773 11.3585H137.144L137.353 11.3891L137.531 11.4196L137.643 11.4349L137.74 11.384L137.806 11.272L137.837 11.1243L137.933 10.8341L137.964 10.7069L138.015 10.5592L138.127 10.2843L138.178 10.1214L138.208 10.0246L138.274 9.86172L138.305 9.73444L138.402 9.44424L138.452 9.31696L138.615 8.8333L138.697 8.63984L138.793 8.34964L138.844 8.22236L138.911 8.05944L138.941 7.96271L139.068 7.67252L139.119 7.54524L139.267 7.27031L139.333 7.14303L139.481 7.03103L139.659 6.96484H139.822L139.969 6.98012L140.132 7.01066L140.229 7.04121L140.392 7.09212L140.504 7.17358L140.554 7.30086L140.524 7.42814L140.493 7.57578L140.427 7.72343L140.361 7.85071L140.31 7.97799L140.259 8.12563L140.178 8.31909L140.112 8.51256L140.046 8.69075L139.852 9.21005L139.786 9.40351L139.705 9.59698L139.654 9.74462L139.603 9.8719L139.491 10.213L139.409 10.4065L139.358 10.5694L139.18 11.104L139.15 11.2516L139.099 11.3789L139.048 11.5265L138.997 11.6538L138.946 11.8015L138.895 11.9287L138.865 12.0764L138.834 12.2037L138.804 12.3513L138.753 12.4989L138.702 12.6262L138.651 12.7739L138.62 12.9215L138.59 13.0488L138.559 13.1964L138.508 13.3441L138.458 13.5528L138.391 13.7616L138.361 13.8583L138.31 14.0365L138.279 14.1841L138.249 14.3776L138.218 14.5863L138.122 15.0242L138.106 15.1718L138.076 15.3194L138.045 15.5282L138.015 15.7217L138 15.8693L137.969 16.0169L137.954 16.1646V16.3122L137.969 16.4751L137.984 16.6839L138.035 16.8773L138.086 17.025L138.183 17.1217L138.31 17.1726L138.458 17.1879L138.585 17.1574L138.732 17.1064L138.86 17.025L139.15 16.7653L139.262 16.6533L139.425 16.4242L139.587 16.1646L139.811 15.8387L139.893 15.7115L139.959 15.5842L140.04 15.4365L140.203 15.0802L140.285 14.9325L140.351 14.8205L140.417 14.6729L140.498 14.4947L140.677 14.3674L140.87 14.3979L140.982 14.5609V14.7696L140.901 14.9631L140.819 15.126L140.722 15.3042L140.626 15.5129L140.56 15.6096L140.366 15.9966L140.269 16.1442L140.061 16.4853L139.898 16.745L139.816 16.857L139.72 16.9843L139.638 17.0963L139.542 17.193L139.43 17.2897L139.318 17.417L139.252 17.4832L139.14 17.6105L139.028 17.7072L138.9 17.7887L138.788 17.8549L138.661 17.921L138.239 18.0687L138.091 18.0992H137.964L137.816 18.1145L137.669 18.0992L137.521 18.0687L137.394 18.0025L137.267 17.921L137.17 17.8396L137.058 17.7276L136.895 17.5036L136.829 17.3763L136.778 17.2286L136.747 17.1014L136.697 16.6635V16.358L136.666 16.3428L136.585 16.4548L136.503 16.5821L136.356 16.8417L136.274 16.9537L136.177 17.0657L135.999 17.2897L135.903 17.3865L135.562 17.6767L135.414 17.7887L135.251 17.9159L135.104 18.0127L134.976 18.0789L134.813 18.1298L134.442 18.2112L134.279 18.2418L134.131 18.2571L134.004 18.2418L133.857 18.2265L133.709 18.196L133.582 18.1654L133.434 18.0992L133.322 18.033L133.195 17.9363L133.047 17.7887L132.9 17.6614L132.818 17.5341L132.752 17.4068L132.701 17.2592L132.605 16.9995L132.554 16.8519L132.538 16.7042L132.523 16.5108V16.302L132.508 16.1544V16.0068L132.523 15.8438L132.538 15.6504L132.569 15.4416L132.599 15.294L132.65 15.1311L132.666 15.0343L132.716 14.8714L132.767 14.7238L132.915 14.3369L132.966 14.1892L133.093 13.9296L133.19 13.7514L133.271 13.5732L133.368 13.4103L133.434 13.3288L133.531 13.2015L133.694 12.9724L133.79 12.8604H133.801ZM137.099 12.2953L136.793 12.3106H136.646L136.498 12.3411L136.335 12.3717L136.238 12.4022L136.076 12.4684L135.928 12.5193L135.78 12.5855L135.653 12.667L135.541 12.7484L135.429 12.8451L135.317 12.9571L135.093 13.1506L134.997 13.2473L134.9 13.3594L134.707 13.6037L134.625 13.7157L134.544 13.8634L134.35 14.2198L134.269 14.347L134.218 14.4743L134.167 14.622L134.116 14.7492L134.05 14.8969L133.953 15.2838L133.902 15.4315L133.872 15.6402L133.857 15.8337L133.841 15.9966L133.872 16.2053L133.902 16.465L133.933 16.6737L133.984 16.8213L134.065 16.9333L134.162 17.0301L134.274 17.1268L134.421 17.193L134.615 17.2235L134.808 17.2083L134.971 17.1421L135.068 17.0912L135.215 17.0097L135.327 16.9283L135.521 16.7348L135.633 16.6075L135.73 16.4955L135.841 16.3835L135.923 16.2715L136.004 16.1442L136.101 15.9966L136.213 15.8031L136.325 15.6555L136.391 15.5282L136.457 15.3805L136.508 15.2533L136.574 15.1056L136.656 14.9122L136.737 14.734L136.803 14.5863L136.854 14.459L137.083 13.7819L137.15 13.5732L137.277 13.0539L137.328 12.8451L137.379 12.6822L137.409 12.504L137.358 12.3564L137.246 12.2902H137.099V12.2953Z" fill="white"/>
<path d="M144.877 17.3093L144.648 17.5028L144.388 17.6657L144.261 17.7319L144.001 17.8948L143.874 17.961L143.584 18.0577L143.421 18.1086L143.131 18.1595L143.034 18.1901L142.872 18.2206L142.744 18.2359H142.597L142.419 18.2512H142.271L141.981 18.2206L141.803 18.1697L141.655 18.1188L141.543 18.0679L141.396 18.017L141.268 17.9508L141.009 17.7879L140.897 17.6912L140.703 17.4621L140.622 17.3348L140.556 17.2075L140.474 17.0802L140.378 16.79L140.311 16.4998L140.281 16.2096L140.266 16.0467L140.281 15.8991V15.446L140.311 15.2983L140.342 15.171L140.373 15.0234L140.423 14.7332L140.454 14.5703L140.484 14.4226L140.535 14.2954L140.586 14.1477L140.652 14.0001L140.719 13.8728L140.769 13.7251L140.851 13.5317L140.948 13.3382L141.029 13.2109L141.126 13.0837L141.207 12.9716L141.304 12.8596L141.467 12.6L141.563 12.488L141.772 12.2793L141.996 12.0858L142.108 12.0043L142.235 11.9076L142.383 11.8109L142.561 11.6989L142.739 11.6021L142.866 11.5359L143.029 11.4698L143.126 11.4392L143.304 11.373L143.401 11.3425L143.564 11.2916L143.711 11.261L143.874 11.2457L144.022 11.2305H144.393L144.653 11.261L144.862 11.2916L145.009 11.3221L145.157 11.373L145.284 11.4392L145.574 11.6174L145.752 11.7141L145.864 11.8109L145.946 11.9076L146.042 12.0196L146.139 12.1469L146.332 12.5033L146.383 12.6509L146.399 12.7985L146.414 12.9258L146.48 13.216V13.7811L146.449 13.9746L146.434 14.1528L146.419 14.3157L146.322 14.7994L146.256 15.0234L146.205 15.1863L146.139 15.3492L146.073 15.5274L146.022 15.6751L145.925 15.8532L145.778 16.1434L145.696 16.3216L145.711 16.4336L145.839 16.4489H145.935L146.114 16.4336L146.226 16.4184L146.373 16.3878L146.536 16.3216L146.648 16.2555L146.908 16.0925L147.02 15.9958L147.228 15.7871L147.422 15.558L147.503 15.446L147.584 15.3187L147.666 15.2067L147.793 14.947L147.941 14.6721L147.992 14.5754L148.088 14.4277L148.236 14.3463L148.429 14.3768L148.557 14.5245L148.572 14.7026L148.521 14.8503L148.328 15.2372L148.246 15.3492L148.083 15.6089L148.017 15.7362L147.936 15.8482L147.839 15.9754L147.758 16.0874L147.661 16.1842L147.452 16.4082L147.355 16.5049L147.243 16.6017L147.132 16.6831L147.004 16.7798L146.892 16.846L146.633 16.9733L146.485 17.0395L146.358 17.07L145.778 17.1362L145.6 17.121L145.452 17.1057L145.325 17.0751L145.197 17.0599L145.085 17.1108L144.974 17.1922L144.877 17.3042V17.3093ZM141.675 15.5478L141.66 15.7412L141.675 15.9042L141.691 16.1129L141.721 16.3725L141.787 16.6322L141.899 16.8766L142.011 17.0395L142.139 17.1515L142.317 17.233L142.561 17.2991H142.77L142.933 17.2839L143.095 17.2533L143.243 17.1871L143.37 17.121L143.518 17.0395L143.645 16.958L143.757 16.8613L143.884 16.7646L143.95 16.6526V16.5558L143.884 16.4438L143.803 16.3165L143.772 16.1689L143.803 15.9754L143.869 15.782L143.981 15.6852L144.108 15.6038L144.256 15.5885L144.403 15.6191L144.515 15.6496L144.612 15.6343L144.678 15.5376L144.729 15.4103L144.923 14.8299L145.019 14.3921L145.05 14.1833L145.101 13.9084L145.131 13.3586L145.116 13.0989L145.05 12.824L144.953 12.5796L144.841 12.4167L144.714 12.32L144.521 12.2385L144.276 12.1876L144.068 12.1723H143.905L143.777 12.2029L143.63 12.2538L143.467 12.3505L143.34 12.432L143.192 12.5287L143.029 12.656L142.917 12.7527L142.805 12.8647L142.724 12.9767L142.627 13.0887L142.546 13.216L142.383 13.44L142.301 13.5673L141.976 14.2139L141.925 14.3615L141.894 14.4888L141.798 14.779L141.767 14.9063L141.716 15.0539L141.701 15.2016V15.3492L141.67 15.5427L141.675 15.5478Z" fill="white"/>
<path d="M152.416 17.3093L152.187 17.5028L151.927 17.6657L151.8 17.7319L151.54 17.8948L151.413 17.961L151.123 18.0577L150.96 18.1086L150.67 18.1595L150.573 18.1901L150.411 18.2206L150.283 18.2359H150.136L149.958 18.2512H149.81L149.52 18.2206L149.342 18.1697L149.194 18.1188L149.082 18.0679L148.935 18.017L148.807 17.9508L148.548 17.7879L148.436 17.6912L148.242 17.4621L148.161 17.3348L148.095 17.2075L148.013 17.0802L147.917 16.79L147.85 16.4998L147.82 16.2096L147.805 16.0467L147.82 15.8991V15.446L147.85 15.2983L147.881 15.171L147.912 15.0234L147.962 14.7332L147.993 14.5703L148.024 14.4226L148.074 14.2954L148.125 14.1477L148.192 14.0001L148.258 13.8728L148.309 13.7251L148.39 13.5317L148.487 13.3382L148.568 13.2109L148.665 13.0837L148.746 12.9716L148.843 12.8596L149.006 12.6L149.103 12.488L149.311 12.2793L149.535 12.0858L149.647 12.0043L149.774 11.9076L149.922 11.8109L150.1 11.6989L150.278 11.6021L150.405 11.5359L150.568 11.4698L150.665 11.4392L150.843 11.373L150.94 11.3425L151.103 11.2916L151.25 11.261L151.413 11.2457L151.561 11.2305H151.932L152.192 11.261L152.401 11.2916L152.548 11.3221L152.696 11.373L152.823 11.4392L153.113 11.6174L153.291 11.7141L153.403 11.8109L153.485 11.9076L153.581 12.0196L153.678 12.1469L153.871 12.5033L153.922 12.6509L153.938 12.7985L153.953 12.9258L154.019 13.216V13.7811L153.989 13.9746L153.973 14.1528L153.958 14.3157L153.861 14.7994L153.795 15.0234L153.744 15.1863L153.678 15.3492L153.612 15.5274L153.561 15.6751L153.464 15.8532L153.317 16.1434L153.235 16.3216L153.251 16.4336L153.378 16.4489H153.475L153.653 16.4336L153.765 16.4184L153.912 16.3878L154.075 16.3216L154.187 16.2555L154.447 16.0925L154.559 15.9958L154.767 15.7871L154.961 15.558L155.042 15.446L155.124 15.3187L155.205 15.2067L155.332 14.947L155.48 14.6721L155.531 14.5754L155.627 14.4277L155.775 14.3463L155.968 14.3768L156.096 14.5245L156.111 14.7026L156.06 14.8503L155.867 15.2372L155.785 15.3492L155.622 15.6089L155.556 15.7362L155.475 15.8482L155.378 15.9754L155.297 16.0874L155.2 16.1842L154.991 16.4082L154.895 16.5049L154.783 16.6017L154.671 16.6831L154.543 16.7798L154.431 16.846L154.172 16.9733L154.024 17.0395L153.897 17.07L153.317 17.1362L153.139 17.121L152.991 17.1057L152.864 17.0751L152.737 17.0599L152.625 17.1108L152.513 17.1922L152.416 17.3042V17.3093ZM149.215 15.5478L149.199 15.7412L149.215 15.9042L149.23 16.1129L149.26 16.3725L149.326 16.6322L149.438 16.8766L149.55 17.0395L149.678 17.1515L149.856 17.233L150.1 17.2991H150.309L150.472 17.2839L150.635 17.2533L150.782 17.1871L150.909 17.121L151.057 17.0395L151.184 16.958L151.296 16.8613L151.423 16.7646L151.49 16.6526V16.5558L151.423 16.4438L151.342 16.3165L151.311 16.1689L151.342 15.9754L151.408 15.782L151.52 15.6852L151.647 15.6038L151.795 15.5885L151.943 15.6191L152.055 15.6496L152.151 15.6343L152.217 15.5376L152.268 15.4103L152.462 14.8299L152.558 14.3921L152.589 14.1833L152.64 13.9084L152.67 13.3586L152.655 13.0989L152.589 12.824L152.492 12.5796L152.38 12.4167L152.253 12.32L152.06 12.2385L151.815 12.1876L151.607 12.1723H151.444L151.317 12.2029L151.169 12.2538L151.006 12.3505L150.879 12.432L150.731 12.5287L150.568 12.656L150.456 12.7527L150.344 12.8647L150.263 12.9767L150.166 13.0887L150.085 13.216L149.922 13.44L149.841 13.5673L149.515 14.2139L149.464 14.3615L149.433 14.4888L149.337 14.779L149.306 14.9063L149.255 15.0539L149.24 15.2016V15.3492L149.209 15.5427L149.215 15.5478Z" fill="white"/>
<path d="M156.491 10.9664L156.343 10.5286L156.328 10.3809V10.2333L156.359 10.0856L156.425 9.93798L156.506 9.82598L156.603 9.71397L156.715 9.61724L156.842 9.55105L156.99 9.52051H157.137L157.285 9.55105L157.412 9.63251L157.509 9.72925L157.575 9.85652L157.626 10.0042V10.442L157.595 10.6049V10.7322L157.626 10.8595L157.707 10.9715L157.819 11.0835L157.931 11.1802L158.043 11.3075L158.222 11.5162L158.333 11.613L158.542 11.8217L158.654 11.949L158.72 12.0305L158.832 12.1577L158.944 12.2545L159.041 12.3665L159.204 12.6261L159.255 12.7738L159.306 12.9672L159.356 13.176L159.341 13.3236L159.29 13.4713L159.224 13.5985L159.127 13.7105L158.965 13.9702L158.868 14.0822L158.786 14.2095L158.705 14.3215L158.608 14.4488L158.527 14.576L158.43 14.7033L158.349 14.8306L158.074 15.3804L158.023 15.5281L157.972 15.6554L157.942 15.803L157.911 15.9659L157.881 16.1136L157.865 16.2612V16.4241L157.931 16.75L158.013 16.8772L158.094 17.0249L158.206 17.1216L158.333 17.2031L158.496 17.2336H158.802L158.949 17.2031L159.097 17.1522L159.245 17.086L159.356 17.0045L159.601 16.8416L159.728 16.7449L159.84 16.6481L159.937 16.5514L160.033 16.4241L160.324 16.083L160.568 15.6961L160.649 15.5841L160.731 15.4364L160.812 15.3092L160.878 15.1819L160.96 15.0342L161.011 14.9375L161.107 14.7593L161.173 14.632L161.224 14.5048L161.291 14.3775L161.438 14.296L161.647 14.3469L161.794 14.5099V14.688L161.744 14.8357L161.616 15.1106L161.55 15.2379L161.469 15.3652L161.341 15.6248L161.179 15.8845L161.097 16.0321L161.031 16.1136L160.95 16.2612L160.787 16.5209L160.593 16.7805L160.466 16.9587L160.354 17.1216L160.161 17.3507L160.049 17.4475L159.855 17.6409L159.728 17.7377L159.58 17.8344L159.321 17.9617L159.173 18.0278L159.046 18.094L158.898 18.1449L158.771 18.1755L158.608 18.206H158.237L158.028 18.1908L157.702 18.1246L157.575 18.0737L157.412 17.9922L157.168 17.8293L157.056 17.7326L156.959 17.6358L156.863 17.5085L156.781 17.3965L156.715 17.2489L156.649 17.1216L156.618 16.974L156.588 16.8111L156.557 16.6634L156.542 16.5158V16.3681L156.608 15.7877L156.659 15.6401L156.71 15.5128L156.776 15.3652L156.858 15.187L156.954 15.0088L157.036 14.8611L157.148 14.683L157.26 14.52L157.341 14.3724L157.438 14.1942L157.565 14.016L157.662 13.8887L157.789 13.6596L157.967 13.4L158.048 13.2218L158.099 12.9774L158.069 12.7839L157.906 12.5243L157.809 12.397L157.55 12.1068L157.453 11.9948L157.326 11.8981L157.198 11.9286L157.132 12.0763L157.102 12.2239L157.051 12.3716L157.02 12.5192L156.99 12.6465L156.939 12.7941L156.791 13.1811L156.74 13.3287L156.69 13.456L156.639 13.6036L156.557 13.7971L156.476 13.9753L156.41 14.1229L156.328 14.3164L156.247 14.4946L156.165 14.6575L156.084 14.8357L155.987 15.0139L155.906 15.1412L155.809 15.2226H155.661L155.534 15.1412L155.438 15.0292L155.453 14.9019L155.504 14.7542L155.57 14.6066L155.621 14.4793L155.672 14.3317L155.799 14.0415L155.85 13.9447L155.916 13.7818L155.982 13.6545L156.033 13.5069L156.099 13.3592L156.15 13.2116L156.201 13.0843L156.328 12.7941L156.359 12.6465L156.41 12.4988L156.44 12.3512L156.506 12.2036L156.537 12.0559L156.567 11.9286L156.598 11.781L156.649 11.6333L156.679 11.4704V11.3228L156.649 11.1955L156.522 10.9359L156.491 10.9664Z" fill="white"/>
<path d="M164.995 14.5763V14.7545L164.944 14.9021L164.817 15.1617L164.669 15.4061L164.588 15.5538L164.522 15.681L164.425 15.8287L164.374 15.9254L164.292 16.0731L164.211 16.2003L164.13 16.3123L164.033 16.4396L163.951 16.5516L163.789 16.8113L163.498 17.1524L163.305 17.3611L163.193 17.4731L163.096 17.5851L162.984 17.6819L162.628 17.9568L162.516 18.0383L162.369 18.1044L162.221 18.1554L162.094 18.1859L161.804 18.2521H161.529L161.351 18.2368L161.223 18.1859L161.076 18.135L160.949 18.0535L160.837 17.9568L160.755 17.8448L160.674 17.7175L160.608 17.5699L160.577 17.4426L160.547 17.2949L160.531 17.1473V16.9997L160.562 16.7095L160.592 16.5618L160.643 16.4142L160.709 16.124L160.76 15.9967L160.791 15.8491L160.842 15.7014L160.893 15.5741L161.04 15.1363L161.055 15.009L161.086 14.8614L161.137 14.7137L161.167 14.5661L161.198 14.4388L161.295 14.1486L161.346 13.9551L161.396 13.7464L161.493 13.4562L161.524 13.3086L161.554 13.1966L161.585 13.0489L161.651 12.886L161.702 12.7587L161.799 12.3209L161.849 12.1732L161.9 11.9798L161.967 11.771L162.017 11.6234L162.084 11.4961L162.18 11.4146L162.328 11.3485L162.455 11.3332L162.618 11.3485L162.908 11.379L163.168 11.4757L163.249 11.5877V11.7354L163.219 11.883L163.168 12.0765L163.117 12.2852L163.02 12.5754L162.99 12.7027L162.959 12.8504L162.908 13.0133L162.857 13.2067L162.694 13.6904L162.664 13.838L162.598 14.0468L162.486 14.3879L162.455 14.5355L162.425 14.6628L162.394 14.8105L162.282 15.0854L162.252 15.233L162.14 15.6352L162.043 15.9254L162.012 16.0731L161.961 16.2818L161.911 16.5415L161.88 16.8164L161.911 17.0607L162.038 17.2389L162.216 17.2899L162.363 17.2746L162.511 17.2084L162.623 17.1269L162.75 17.0302L163.285 16.4956L163.381 16.3836L163.463 16.2716L163.56 16.1443L163.722 15.8847L163.819 15.7727L163.885 15.676L163.967 15.5487L164.063 15.401L164.13 15.2534L164.257 14.9785L164.45 14.5915L164.532 14.4643L164.679 14.3828L164.888 14.4133L165.015 14.5763H164.995ZM162.389 9.60728L162.47 9.48L162.598 9.368L162.725 9.28654L162.888 9.23562L163.035 9.20508H163.198L163.346 9.23562L163.473 9.31708L163.585 9.41382L163.697 9.52582L163.778 9.6531L163.829 9.80074L163.845 9.94839V10.1113L163.794 10.2589L163.712 10.3862L163.616 10.5135L163.504 10.6102L163.376 10.707L163.229 10.7732L163.066 10.8037L162.918 10.7884L162.755 10.7579L162.496 10.595L162.399 10.483L162.318 10.3557L162.287 10.208L162.272 10.0604L162.287 9.91275L162.318 9.74983L162.384 9.60219L162.389 9.60728Z" fill="white"/>
<path d="M22.5438 40.0013C21.4699 38.7285 19.8208 37.7358 17.6476 37.0383C17.5661 37.023 17.2455 37.0179 17.0114 37.0128C16.6958 37.0077 16.3904 37.0026 16.08 36.9772L15.6524 36.9466C12.7463 36.7532 5.01516 36.2441 1.37609 27.5127C-0.812437 22.2637 -0.379821 16.9129 2.5976 12.4479C5.3409 8.32919 9.92155 5.6665 14.2681 5.6665H14.4208C19.261 5.6665 22.7117 2.37252 22.7423 2.33688L25.0886 0.00512695L27.4349 2.35725C27.4349 2.35725 30.906 5.6716 35.7462 5.6716H35.8276C40.22 5.6716 44.821 8.33428 47.5694 12.453C50.5468 16.918 50.9794 22.2688 48.7909 27.5178C45.1518 36.2491 37.4207 36.7583 34.5094 36.9517L34.0717 36.9823C33.7765 37.0026 33.4661 37.0128 33.1607 37.0179C32.9215 37.0179 32.6008 37.0281 32.494 37.0535C30.3411 37.7459 28.6971 38.7387 27.6232 40.0115L25.0835 43.0153L22.5438 40.0115V40.0013Z" fill="black"/>
<path d="M23.818 38.9271C22.5405 37.415 20.637 36.244 18.1584 35.4549C17.8733 35.3633 17.4865 35.3582 17.0336 35.348C16.7587 35.348 16.4839 35.3378 16.209 35.3174L15.7713 35.2869C12.8957 35.0985 6.15707 34.6556 2.91499 26.8712C0.945308 22.1517 1.32703 17.3558 3.9838 13.3643C6.42682 9.6936 10.468 7.32112 14.2699 7.32112H14.4175C20.0212 7.32112 23.8689 3.55365 23.9096 3.51801L25.0904 2.34705L26.2661 3.52311C26.3017 3.55874 30.1495 7.32112 35.7531 7.32112H35.8397C39.7078 7.32112 43.7438 9.6936 46.1868 13.3592C48.8436 17.3507 49.2253 22.1466 47.2556 26.8661C44.0136 34.6454 37.2749 35.0934 34.3993 35.2818L33.9616 35.3124C33.6868 35.3327 33.4119 35.3378 33.1371 35.3429C32.6892 35.3531 32.2973 35.3582 32.0123 35.4498C29.5387 36.244 27.6352 37.4099 26.3526 38.922L25.0853 40.4239L23.818 38.922V38.9271Z" fill="#ED8A3E"/>
<path d="M24.9892 37.8123C23.0449 35.5111 20.322 34.3911 18.5712 33.826C17.823 33.5867 17.0239 33.6732 16.2401 33.6172C13.7004 33.4237 7.36895 33.4187 4.35081 26.1892C0.314751 16.5058 8.14766 8.90469 14.2247 8.94542C20.6885 8.99124 24.9892 4.65356 24.9892 4.65356C24.9892 4.65356 29.2899 8.98615 35.7537 8.94542C41.8307 8.90469 49.6687 16.5007 45.6275 26.1892C42.6145 33.4187 36.2779 33.4237 33.7382 33.6172C32.9544 33.6783 32.1553 33.5867 31.4072 33.826C29.6563 34.386 26.9334 35.506 24.9892 37.8123Z" fill="#20743B"/>
<path d="M21.8742 16.9333C21.8742 16.9333 18.2504 13.4458 25.559 11.7505C27.9919 11.1853 29.7529 11.3177 31.0151 11.7505C33.4785 12.5803 34.4709 15.523 33.2545 17.8191C32.3333 19.5552 30.384 21.2149 26.2614 20.4869C26.2614 20.4869 26.0731 20.4615 26.0273 20.66C25.9815 20.8586 25.5387 24.3256 25.5387 24.3256C25.5387 24.3256 26.124 25.0282 26.638 24.957C27.1521 24.8857 33.5548 26.9425 36.3795 18.1704C36.7816 16.9231 36.8376 15.5637 36.3948 14.3317C35.7892 12.6211 34.1656 10.6966 29.9819 10.4166C22.261 9.90237 19.7569 12.5701 18.8866 13.9753C18.0162 15.3805 18.9578 18.3741 20.3371 18.2824C21.7164 18.1908 21.8742 16.9333 21.8742 16.9333Z" fill="white"/>
<path d="M27.2535 12.4581C27.2535 12.4581 24.388 15.3957 21.5277 20.9095C18.6673 26.4232 17.7461 28.1949 17.7461 28.1949C17.7461 28.1949 20.2196 29.539 21.8839 29.0808C21.8839 29.0808 22.4642 28.587 23.3752 25.6748C23.8027 24.3104 27.1873 13.2727 28.251 13.0283C28.251 13.0283 27.793 12.4378 27.2637 12.4632L27.2535 12.4581Z" fill="white"/>
<path d="M86.3263 29.0349C86.3263 29.325 86.4128 29.5745 86.5807 29.7833C86.7487 29.992 87.0083 30.1702 87.3595 30.3229C88.2094 30.7048 88.7896 30.995 89.1001 31.1935C89.4106 31.3921 89.66 31.6059 89.8432 31.8299C90.0264 32.0539 90.1638 32.2881 90.2504 32.5274C90.3369 32.7667 90.3776 33.0416 90.3776 33.3573C90.3776 33.8256 90.2554 34.2278 90.0111 34.5588C89.7668 34.8897 89.4309 35.1443 88.9983 35.3174C88.5657 35.4905 88.0771 35.5821 87.5325 35.5821C87.3086 35.5821 87.0592 35.5465 86.7843 35.4803C86.5095 35.4141 86.2601 35.3123 86.0311 35.1799C85.9904 35.1646 85.9496 35.1493 85.914 35.1341C85.8784 35.1188 85.8377 35.1086 85.7817 35.1086C85.6341 35.1086 85.517 35.2155 85.4356 35.4243C85.3949 35.5006 85.3338 35.5414 85.2473 35.5414C85.2015 35.5414 85.1607 35.5312 85.1251 35.5057C85.0895 35.4803 85.0742 35.4497 85.0742 35.4141C85.1353 34.9508 85.1658 34.5639 85.1658 34.2431C85.1658 33.7951 85.1404 33.3776 85.0844 32.9907V32.9703C85.0844 32.9296 85.1048 32.899 85.1404 32.8685C85.176 32.838 85.2218 32.8227 85.2829 32.8227C85.3949 32.8227 85.4559 32.8634 85.4712 32.95C85.573 33.6169 85.8275 34.1362 86.2245 34.518C86.6215 34.8999 87.0948 35.0882 87.6343 35.0882C88.0924 35.0882 88.4741 34.9661 88.7795 34.7217C89.0848 34.4773 89.2426 34.1515 89.2426 33.7391C89.2426 33.454 89.1815 33.2045 89.0594 32.9958C88.9372 32.7819 88.7845 32.6038 88.6013 32.4459C88.4232 32.2932 88.2196 32.1608 88.0007 32.0437C87.7819 31.9317 87.5732 31.8248 87.3747 31.7281C87.1152 31.611 86.8556 31.4888 86.5909 31.3615C86.3314 31.2342 86.1023 31.0866 85.8936 30.9084C85.6901 30.7302 85.5221 30.5215 85.4 30.272C85.2727 30.0225 85.2116 29.712 85.2116 29.3403C85.2116 28.7039 85.4509 28.205 85.9344 27.8537C86.4128 27.5024 87.0744 27.3242 87.9193 27.3242C88.1433 27.3242 88.3316 27.3395 88.4792 27.3649C88.6268 27.3904 88.8049 27.4362 88.9932 27.5024C89.2172 27.5737 89.3648 27.6042 89.436 27.6042C89.5327 27.6042 89.5989 27.5635 89.6396 27.4871C89.665 27.4311 89.7261 27.4057 89.8177 27.4057C89.8585 27.4057 89.8941 27.4159 89.9348 27.4311C89.9755 27.4464 89.9959 27.4668 89.9959 27.4922V27.5075C89.9297 27.7264 89.8992 28.0166 89.8992 28.3781C89.8992 28.5868 89.9093 28.7701 89.9348 28.9381C89.9602 29.101 89.9806 29.2996 89.9959 29.5287C89.9959 29.5542 89.9755 29.5796 89.9348 29.6C89.8941 29.6203 89.8483 29.6305 89.8076 29.6305C89.7109 29.6305 89.6549 29.5949 89.6396 29.5287C89.5327 29.0501 89.4106 28.6937 89.2782 28.4596C89.1459 28.2304 88.9678 28.0624 88.7387 27.9657C88.5097 27.8639 88.1941 27.8181 87.787 27.8181C87.3493 27.8181 86.993 27.9301 86.7283 28.1541C86.4586 28.3781 86.3263 28.6734 86.3263 29.0349Z" fill="white"/>
<path d="M92.9531 33.9838C92.9531 34.3555 92.9735 34.5999 93.0142 34.717C93.0549 34.834 93.1261 34.9257 93.2228 34.9868C93.3195 35.0479 93.4773 35.0937 93.686 35.1192C93.7725 35.1344 93.8132 35.1904 93.8132 35.2923C93.8132 35.333 93.8031 35.3737 93.7827 35.4144C93.7623 35.4552 93.7318 35.4704 93.686 35.4704C93.5689 35.4704 93.3857 35.4552 93.1312 35.4297C92.8717 35.4043 92.6426 35.389 92.434 35.389C92.1795 35.389 91.9352 35.4043 91.696 35.4297C91.4568 35.4552 91.2277 35.4704 91.0038 35.4704C90.9274 35.4704 90.8867 35.4144 90.8867 35.3024C90.8867 35.1904 90.9274 35.1344 91.014 35.1192C91.2226 35.0937 91.3804 35.0631 91.4975 35.0173C91.6094 34.9715 91.696 34.9053 91.7469 34.8188C91.7978 34.7322 91.8283 34.6304 91.8385 34.5082C91.8487 34.386 91.8487 34.2333 91.8487 34.05V32.151C91.8487 31.6215 91.8283 31.2702 91.7927 31.0971C91.757 30.924 91.6909 30.7968 91.5891 30.7204C91.4924 30.644 91.299 30.588 91.014 30.5524C90.9427 30.5524 90.9122 30.4964 90.9122 30.3793C90.9122 30.3385 90.9223 30.2978 90.9376 30.2571C90.9529 30.2164 90.9783 30.2011 91.014 30.2011C91.3346 30.1756 91.696 30.1298 92.0879 30.0636C92.4696 29.9974 92.6833 29.9669 92.7292 29.9669C92.8768 29.9669 92.9531 30.0433 92.9531 30.2011V33.9787V33.9838ZM92.3322 28.7501C92.1388 28.7501 91.9708 28.689 91.8283 28.5719C91.6858 28.4548 91.6145 28.3021 91.6145 28.1086C91.6145 27.9152 91.6807 27.7675 91.8181 27.6453C91.9504 27.5231 92.1184 27.462 92.3118 27.462C92.4899 27.462 92.6477 27.5231 92.7699 27.6504C92.8971 27.7777 92.9582 27.9355 92.9582 28.1188C92.9582 28.3021 92.8971 28.4446 92.78 28.5668C92.663 28.689 92.5154 28.7501 92.3373 28.7501H92.3322Z" fill="white"/>
<path d="M96.3296 33.9841C96.3296 34.3812 96.3907 34.6613 96.518 34.8191C96.6452 34.982 96.8539 35.0838 97.1542 35.1296C97.2407 35.1449 97.2865 35.206 97.2865 35.3078C97.2865 35.3537 97.2763 35.3944 97.2509 35.43C97.2254 35.4657 97.1949 35.4809 97.1542 35.4809L96.2024 35.4046L95.8105 35.3893C95.556 35.3893 95.3168 35.4046 95.0878 35.43C94.8587 35.4555 94.645 35.4708 94.4363 35.4708C94.3956 35.4708 94.3701 35.4555 94.3498 35.4198C94.3294 35.3842 94.3192 35.3486 94.3192 35.3027C94.3192 35.1958 94.36 35.1347 94.4465 35.1195C94.6806 35.0787 94.8486 35.038 94.9504 34.9871C95.0521 34.9362 95.1183 34.8649 95.159 34.7733C95.1997 34.6765 95.2201 34.4372 95.2201 34.0554V32.5688C95.2201 32.1768 95.2201 31.8509 95.215 31.5964C95.215 31.3418 95.1845 31.1382 95.1336 30.9854C95.0827 30.8378 95.0012 30.7309 94.8893 30.6647C94.7773 30.5985 94.6195 30.568 94.4007 30.5578C94.3142 30.5578 94.2734 30.4967 94.2734 30.3796C94.2734 30.3389 94.2836 30.3032 94.2989 30.2625C94.3142 30.2218 94.3396 30.2065 94.3701 30.2065C94.818 30.1759 95.1997 30.1301 95.5051 30.0639C95.8105 30.0028 96.009 29.9672 96.0955 29.9672C96.2533 29.9672 96.3296 30.0487 96.3296 30.2167L96.3144 30.3338C96.2482 30.6952 96.2177 30.904 96.2177 30.96C96.2177 30.9753 96.2228 30.9854 96.2329 30.9854L96.2635 30.96C96.3602 30.7869 96.5078 30.6138 96.7114 30.4356C96.9149 30.2625 97.1338 30.125 97.373 30.0283C97.6122 29.9316 97.8565 29.8857 98.111 29.8857C99.302 29.8857 99.8975 30.5781 99.8975 31.9629V33.9841C99.8975 34.3201 99.9178 34.5493 99.9534 34.6816C99.9891 34.814 100.06 34.9107 100.157 34.9769C100.254 35.0431 100.412 35.0889 100.625 35.1195C100.702 35.1347 100.742 35.1958 100.742 35.2977C100.742 35.4148 100.702 35.4708 100.625 35.4708C100.523 35.4708 100.345 35.4555 100.096 35.43C99.8466 35.4046 99.6073 35.3893 99.3732 35.3893C99.1187 35.3893 98.8897 35.4046 98.6759 35.43C98.4622 35.4555 98.2891 35.4708 98.1415 35.4708C98.1008 35.4708 98.0652 35.4504 98.0448 35.4097C98.0245 35.3689 98.0143 35.3282 98.0143 35.2824C98.0143 35.1856 98.0499 35.1347 98.1263 35.1195C98.3095 35.0838 98.4469 35.038 98.5385 34.9769C98.6301 34.9158 98.6912 34.8344 98.7268 34.7274C98.7625 34.6256 98.7777 34.3965 98.7777 34.0503V32.2582C98.7777 31.7746 98.7472 31.4335 98.681 31.24C98.6149 31.0465 98.5131 30.8887 98.3807 30.7716C98.2433 30.6545 98.0499 30.5934 97.8005 30.5934C97.3272 30.5934 96.9658 30.7461 96.7063 31.0516C96.4467 31.3571 96.3245 31.7898 96.3245 32.36V33.9892L96.3296 33.9841Z" fill="white"/>
<path d="M102.578 32.5176C102.578 33.1692 102.766 33.7089 103.138 34.1366C103.509 34.5591 103.977 34.7729 104.537 34.7729C105.097 34.7729 105.535 34.6457 105.906 34.386L105.978 34.3606C106.018 34.3606 106.059 34.386 106.1 34.4318C106.141 34.4777 106.161 34.5235 106.161 34.5642C106.161 34.6406 106.044 34.778 105.82 34.9715C105.591 35.165 105.316 35.3075 104.99 35.3941C104.67 35.4806 104.334 35.5213 103.993 35.5213C103.514 35.5213 103.066 35.4043 102.659 35.165C102.252 34.9257 101.931 34.5897 101.692 34.1518C101.458 33.714 101.336 33.2201 101.336 32.6652C101.336 32.1103 101.453 31.6419 101.692 31.2142C101.931 30.7917 102.272 30.4607 102.72 30.2265C103.168 29.9923 103.682 29.8752 104.268 29.8752C104.782 29.8752 105.214 29.9923 105.555 30.2265C105.901 30.4607 106.069 30.7611 106.069 31.1277C106.069 31.2702 106.023 31.4026 105.927 31.5248C105.83 31.647 105.682 31.7132 105.484 31.7132C105.321 31.7132 105.184 31.6724 105.077 31.5859C104.97 31.4993 104.914 31.372 104.914 31.2091C104.914 31.0971 104.944 31.0055 105 30.9393C105.062 30.868 105.092 30.7967 105.092 30.7357C105.092 30.5931 104.995 30.4862 104.802 30.4098C104.609 30.3334 104.4 30.2978 104.181 30.2978C103.682 30.2978 103.29 30.4964 103.005 30.8884C102.72 31.2804 102.578 31.8201 102.578 32.5074V32.5176Z" fill="white"/>
<path d="M108.149 32.401C108.109 32.401 108.088 32.4163 108.088 32.4417C108.088 32.4672 108.083 32.5028 108.083 32.5384C108.083 33.2614 108.246 33.8163 108.572 34.1982C108.898 34.58 109.366 34.7735 109.977 34.7735C110.587 34.7735 111.091 34.6462 111.437 34.3967C111.463 34.3713 111.483 34.3611 111.514 34.3611C111.554 34.3611 111.59 34.3865 111.636 34.4425C111.677 34.4985 111.697 34.5393 111.697 34.5749C111.697 34.6411 111.585 34.7735 111.361 34.9771C111.137 35.1808 110.888 35.3233 110.618 35.4048C110.343 35.4862 110.022 35.527 109.646 35.527C108.775 35.527 108.088 35.2775 107.595 34.7786C107.101 34.2796 106.852 33.5872 106.852 32.7065C106.852 32.1872 106.964 31.7086 107.193 31.2758C107.422 30.8431 107.737 30.502 108.149 30.2525C108.557 30.0081 109.01 29.8809 109.508 29.8809C110.16 29.8809 110.684 30.0947 111.096 30.5173C111.503 30.9398 111.707 31.4846 111.707 32.1464C111.707 32.3093 111.646 32.3959 111.529 32.3959H108.16L108.149 32.401ZM110.312 31.9835C110.389 31.9835 110.445 31.9631 110.475 31.9224C110.506 31.8817 110.526 31.7646 110.526 31.5813C110.526 31.2351 110.424 30.9347 110.221 30.6853C110.017 30.4358 109.753 30.3085 109.427 30.3085C109.066 30.3085 108.775 30.4256 108.551 30.6598C108.328 30.894 108.19 31.23 108.129 31.673L108.114 31.8613C108.114 31.9479 108.129 31.9886 108.165 31.9886H110.318L110.312 31.9835Z" fill="white"/>
<path d="M118.991 33.8918C118.991 34.1515 119.037 34.3653 119.129 34.5181C119.22 34.6759 119.363 34.7981 119.561 34.8897C119.76 34.9763 120.08 35.0526 120.528 35.1086C120.569 35.1188 120.605 35.1392 120.63 35.1799C120.656 35.2206 120.666 35.2614 120.666 35.3072C120.666 35.353 120.65 35.3937 120.625 35.4345C120.6 35.4752 120.554 35.4905 120.498 35.4905L119.979 35.4752C119.037 35.4192 118.472 35.3886 118.279 35.3886L117.765 35.4039C116.803 35.4599 116.248 35.4905 116.1 35.4905C116.044 35.4905 116.004 35.4701 115.978 35.4294C115.953 35.3886 115.938 35.3428 115.938 35.2919C115.938 35.1748 115.993 35.1137 116.105 35.0934C116.594 35.0323 116.94 34.9559 117.139 34.8693C117.342 34.7828 117.495 34.6606 117.597 34.5079C117.699 34.3551 117.754 34.1464 117.754 33.8918V29.2589C117.754 28.9279 117.704 28.7141 117.607 28.6174C117.505 28.5207 117.302 28.4697 116.986 28.4697C116.787 28.4697 116.518 28.485 116.177 28.5156H116.146C116.095 28.5156 116.055 28.4952 116.029 28.4545C115.999 28.4137 115.988 28.3628 115.988 28.3068C115.988 28.1948 116.029 28.1286 116.111 28.1032C116.564 27.9963 117.006 27.8792 117.439 27.757C118.279 27.5126 118.737 27.3955 118.813 27.3955C118.94 27.3955 119.001 27.4464 119.001 27.5533V33.8969L118.991 33.8918Z" fill="white"/>
<path d="M121.728 30.0279C121.728 29.5188 121.845 29.0606 122.074 28.6533C122.303 28.2511 122.634 27.9406 123.056 27.7165C123.479 27.4976 123.962 27.3856 124.507 27.3856C125.092 27.3856 125.575 27.5333 125.967 27.8235C126.354 28.1137 126.649 28.521 126.848 29.0301C127.046 29.5443 127.148 30.1705 127.148 30.9087C127.148 31.7997 127.011 32.6142 126.741 33.3525C126.471 34.0907 126.1 34.6354 125.631 34.9918C125.163 35.3482 124.608 35.5213 123.977 35.5213C123.346 35.5213 122.817 35.4195 122.45 35.2158C122.079 35.0122 121.896 34.7322 121.896 34.3809C121.896 34.2027 121.952 34.0449 122.069 33.9074C122.186 33.775 122.344 33.7038 122.547 33.7038C122.674 33.7038 122.797 33.7445 122.914 33.831C123.031 33.9176 123.092 34.05 123.092 34.2332C123.092 34.3147 123.076 34.3758 123.041 34.4216C123.005 34.4674 122.99 34.5234 122.99 34.5896C122.99 34.9358 123.341 35.1089 124.049 35.1089C125.285 35.1089 125.927 33.8972 125.962 31.4789C125.703 31.8302 125.418 32.0746 125.107 32.212C124.802 32.3444 124.456 32.4157 124.079 32.4157C123.321 32.4157 122.741 32.207 122.333 31.7844C121.926 31.3669 121.723 30.7763 121.723 30.0127L121.728 30.0279ZM122.924 30.0025C122.924 30.6694 123.046 31.1582 123.295 31.4636C123.54 31.7691 123.886 31.9219 124.334 31.9219C124.802 31.9219 125.194 31.7487 125.499 31.3975C125.81 31.0462 125.962 30.6236 125.962 30.1247C125.962 29.3661 125.83 28.7959 125.565 28.414C125.301 28.0271 124.919 27.8387 124.41 27.8387C123.937 27.8387 123.57 28.022 123.311 28.3835C123.051 28.745 122.924 29.2897 122.924 30.0127V30.0025Z" fill="white"/>
<path d="M129.344 28.4901C129.075 28.4901 128.886 28.5257 128.784 28.597C128.683 28.6682 128.586 28.8057 128.499 29.0144L128.281 29.549C128.255 29.605 128.204 29.6356 128.113 29.6356C128.057 29.6356 128.001 29.6203 127.945 29.5948C127.889 29.5694 127.863 29.5388 127.863 29.5032C127.94 28.7446 128.082 28.2202 128.286 27.93C128.489 27.6398 128.805 27.4922 129.237 27.4922C129.823 27.4922 130.423 27.5278 131.034 27.6042C131.645 27.6806 132.088 27.7213 132.368 27.7213C132.648 27.7213 132.978 27.6602 133.37 27.5431H133.401C133.457 27.5431 133.513 27.5736 133.564 27.6347C133.615 27.6958 133.64 27.762 133.64 27.8231V27.8588C133.309 28.4951 132.729 29.3963 131.899 30.5723C131.482 31.1629 131.141 31.6669 130.866 32.0946C130.591 32.5223 130.378 32.8939 130.215 33.2147C130.052 33.5354 129.97 33.8561 129.97 34.1718C129.97 34.3144 130.001 34.4671 130.057 34.63C130.118 34.7878 130.149 34.9304 130.149 35.0628C130.149 35.1951 130.087 35.3071 129.96 35.3988C129.833 35.4853 129.685 35.5311 129.512 35.5311C129.38 35.5311 129.263 35.4853 129.161 35.3988C129.064 35.3122 129.014 35.1849 129.014 35.022C129.014 34.7827 129.07 34.4773 129.176 34.1056C129.288 33.734 129.441 33.3623 129.645 32.9957C129.848 32.6292 130.21 32.059 130.734 31.3004C131.263 30.5214 131.599 30.0225 131.736 29.8138C131.874 29.605 132.006 29.3963 132.139 29.1875C132.266 28.9788 132.332 28.8566 132.332 28.8261C132.332 28.7701 132.276 28.7395 132.169 28.7395C131.95 28.7395 131.569 28.6988 131.024 28.6122C130.479 28.5308 129.919 28.4901 129.344 28.4901Z" fill="white"/>
<path d="M135.126 27.5333C135.34 27.5333 135.777 27.5638 136.439 27.6249C137.096 27.6911 137.62 27.7216 138.007 27.7216C138.394 27.7216 138.653 27.518 138.831 27.1056C138.852 27.07 138.887 27.0547 138.933 27.0547C139.009 27.0547 139.07 27.07 139.116 27.0954C139.162 27.1209 139.182 27.1514 139.188 27.1871C139.188 27.2074 139.152 27.3398 139.086 27.574C139.02 27.8082 138.938 28.0169 138.841 28.19C138.745 28.3631 138.628 28.4955 138.485 28.5871C138.343 28.6788 138.185 28.7246 138.002 28.7297C137.584 28.7297 137.177 28.7042 136.78 28.6533C136.358 28.5973 135.889 28.5668 135.38 28.5617C135.324 29.0912 135.294 29.6206 135.294 30.1603V30.593C135.421 30.532 135.594 30.481 135.813 30.4454C136.032 30.4047 136.251 30.3894 136.475 30.3894C136.984 30.3894 137.452 30.4963 137.885 30.7051C138.317 30.9138 138.658 31.204 138.908 31.5756C139.157 31.9473 139.279 32.3546 139.279 32.8077C139.279 33.6681 138.994 34.3401 138.419 34.8187C137.844 35.2973 137.05 35.5366 136.032 35.5366C135.457 35.5366 135.004 35.45 134.668 35.2769C134.332 35.1038 134.164 34.8696 134.164 34.5743C134.164 34.4216 134.21 34.274 134.301 34.1365C134.393 33.999 134.531 33.9329 134.704 33.9329C134.866 33.9329 135.004 33.9838 135.111 34.0805C135.218 34.1772 135.274 34.2994 135.274 34.442C135.274 34.498 135.258 34.554 135.223 34.6202C135.182 34.6914 135.167 34.7424 135.167 34.7831C135.167 34.8849 135.258 34.9715 135.436 35.0325C135.615 35.0936 135.874 35.1293 136.22 35.1293C136.826 35.1293 137.269 34.9307 137.538 34.5285C137.808 34.1263 137.946 33.6019 137.946 32.9401C137.946 32.3495 137.788 31.8709 137.467 31.5146C137.147 31.1582 136.653 30.98 135.986 30.98C135.732 30.98 135.523 31.0105 135.36 31.0665L135.085 31.148C134.943 31.148 134.851 31.1225 134.805 31.0716C134.76 31.0207 134.739 30.9342 134.739 30.8171C134.739 29.7428 134.785 28.7093 134.882 27.7267C134.882 27.6962 134.902 27.6605 134.938 27.6147C134.978 27.5689 135.039 27.5485 135.126 27.5485V27.5333Z" fill="white"/>
</g>
<defs>
<clipPath id="clip0_1391_36615">
<rect width="165" height="43" fill="white"/>
</clipPath>
</defs>
</svg>
