<svg width="164" height="163" viewBox="0 0 164 163" fill="none" xmlns="http://www.w3.org/2000/svg">
<g clip-path="url(#clip0_3064_3956)">
<path d="M74.3596 96.5585C74.2345 96.554 74.0913 96.5513 73.9728 96.5494C73.658 96.544 73.361 96.5369 73.067 96.5145L73.0629 96.5143L72.6353 96.4853L72.6343 96.4852C69.7292 96.2939 62.2634 95.7944 58.7329 87.3272C56.5964 82.2029 57.0252 77.0131 59.9125 72.6787C62.5891 68.662 67.0425 66.0971 71.2116 66.0971H71.3638C73.9057 66.0971 76.0706 65.2332 77.5947 64.376C79.1079 63.525 80.0155 62.666 80.0702 62.612C80.0705 62.6116 80.0709 62.6113 80.0711 62.611L82.0704 60.6225L84.0735 62.6272L84.0737 62.6273C84.1115 62.6651 85.0176 63.5257 86.5386 64.3796C88.0609 65.2342 90.2257 66.0971 92.7683 66.0971H92.848C97.0642 66.0971 101.54 68.6637 104.214 72.6786L104.214 72.6787C107.101 77.0112 107.53 82.2027 105.394 87.3271C101.862 95.7944 94.3975 96.2939 91.4888 96.4852L91.4885 96.4852L91.0518 96.5142L91.0518 96.5142L91.0451 96.5147C90.7675 96.5368 90.4716 96.544 90.1621 96.5476L90.1604 96.5476C90.0392 96.5494 89.8931 96.5522 89.7628 96.5575C89.6502 96.562 89.4988 96.5697 89.3981 96.5909L89.373 96.5962L89.3485 96.604C87.1308 97.3147 85.3855 98.3565 84.2284 99.7255C84.2284 99.7255 84.2284 99.7256 84.2284 99.7256L82.0624 102.287L79.8982 99.7275L79.8983 99.7274C78.741 98.358 76.9953 97.3163 74.7561 96.6003L74.7294 96.5917L74.7019 96.5862C74.6121 96.5683 74.4632 96.5622 74.3596 96.5585Z" fill="black" stroke="black"/>
<path d="M80.7884 98.9734C79.5054 97.4567 77.5954 96.2825 75.1111 95.487C74.8248 95.3946 74.4351 95.3891 73.9839 95.3801C73.7085 95.3764 73.4312 95.3692 73.154 95.3492L72.7137 95.3184C69.827 95.1282 63.066 94.6824 59.8097 86.876C57.8345 82.141 58.2151 77.3281 60.8825 73.3253C63.3361 69.6431 67.3897 67.2639 71.2096 67.2639H71.3582C76.9811 67.2639 80.8464 63.4857 80.8844 63.4476L82.0677 62.2698L83.2474 63.4512C83.2818 63.4857 87.147 67.2639 92.7681 67.2639H92.8551C96.7348 67.2639 100.788 69.6431 103.244 73.3253C105.911 77.3281 106.292 82.141 104.317 86.876C101.06 94.6842 94.2994 95.13 91.4127 95.3184L90.9724 95.3492C90.6969 95.371 90.4197 95.3764 90.1424 95.3801C89.6912 95.3873 89.3016 95.3946 89.0153 95.487C86.5309 96.2825 84.6209 97.4549 83.338 98.9734L82.0641 100.481L80.7902 98.9734H80.7884Z" fill="#FFA033"/>
<path d="M81.9703 97.8559C80.0168 95.5455 77.286 94.422 75.5264 93.8585C74.7744 93.6175 73.9753 93.7063 73.187 93.6465C70.6374 93.4544 64.2806 93.449 61.2544 86.1934C57.2007 76.4734 65.0652 68.85 71.1647 68.8917C77.6538 68.9352 81.9684 64.5862 81.9684 64.5862C81.9684 64.5862 86.283 68.9352 92.7722 68.8917C98.8717 68.85 106.736 76.4752 102.683 86.1934C99.6563 93.449 93.3013 93.4544 90.7499 93.6465C89.9616 93.7063 89.1643 93.6175 88.4105 93.8585C86.6509 94.422 83.9201 95.5455 81.9666 97.8559H81.9703Z" fill="#136E2B"/>
<path d="M78.8398 76.9042C78.8398 76.9042 75.2029 73.4033 82.5364 71.7053C84.981 71.14 86.746 71.2723 88.0126 71.6999C90.4843 72.5353 91.4828 75.4872 90.2614 77.7903C89.3373 79.5317 87.382 81.1952 83.2414 80.4667C83.2414 80.4667 83.0511 80.4432 83.0058 80.6425C82.9605 80.8418 82.5129 84.3192 82.5129 84.3192C82.5129 84.3192 83.1 85.0241 83.6165 84.9534C84.1329 84.8828 90.5604 86.9467 93.3945 78.1455C93.7968 76.8951 93.853 75.5306 93.4127 74.2948C92.802 72.5806 91.1747 70.6471 86.9761 70.3662C79.2239 69.8498 76.7106 72.528 75.8426 73.936C74.9746 75.344 75.9132 78.352 77.2995 78.2578C78.6857 78.1636 78.8416 76.9024 78.8416 76.9024L78.8398 76.9042Z" fill="white"/>
<path d="M84.2396 72.4143C84.2396 72.4143 81.3656 75.3589 78.4917 80.8948C75.6177 86.4307 74.6953 88.2048 74.6953 88.2048C74.6953 88.2048 77.1797 89.5529 78.8468 89.0927C78.8468 89.0927 79.4267 88.5962 80.3418 85.6733C80.7713 84.3033 84.169 73.2316 85.2345 72.9833C85.2345 72.9833 84.7778 72.3926 84.2414 72.4161L84.2396 72.4143Z" fill="white"/>
<mask id="path-6-inside-1_3064_3956" fill="white">
<path d="M40.1016 50.4648H45.5469V28.0693H51.1463V22.47H56.7783V16.8381H62.3487V11.4254H51.3891V16.9124H45.6212V0.0238011H51.342V5.51983H56.762V0.00930453H62.5752V11.121H67.997V0.0256132H73.7704V11.3366H68.2797V22.3667H73.6326V16.8344H84.835V11.4127H79.3335V0.000244141H90.6156V5.70829H85.1376V11.1645H90.6537V16.7348H101.682V11.391H96.1915V0.00568037H107.49V5.50715H112.944V0.020177H118.714V5.69742H113.212V11.1536H118.7V16.9377H113.198V28.1944H107.582V39.2045H112.959V33.7013H118.703V39.4184H113.185V45.0249H107.579V50.6641H101.939V56.2344H96.1733V50.5481H101.722V44.9162H107.289V39.4637H101.76V22.6639H96.3346V45.0231H90.6954V50.6623H85.0887V56.2489H79.3045V50.742H73.8465V56.2381H68.0623V45.1373H62.6042V56.2834H51.4218V61.7105H56.907V67.4947H51.4036V73.1339H45.788V78.5592H51.3457V89.8104H56.9124V95.5928H51.4272V101.051H56.9523V106.652H68.2036V112.258H73.6236V106.735H90.6392V112.284H96.273V117.851H112.915V112.503H107.421V106.723H112.897V101.27H107.407V95.4877H112.955V89.8775H118.738V95.4098H124.339V101.004H129.775V90.0514H124.228V84.4177H113.01V78.7876H107.399V73.0088H112.923V67.5889H107.421V61.7758H118.551V44.9506H135.599V50.443H146.669V44.9361H163.649V56.2526H157.948V50.742H152.519V61.7178H158.056V67.3171H163.65V78.726H152.325V73.2082H146.899V78.7568H135.67V84.1821H146.82V89.7814H163.65V101.216H152.544V106.672H163.669V112.456H152.524V117.883H163.656V123.638H152.316V118.142H146.89V123.675H141.314V129.133H146.829V134.703H152.281V129.201H158.062V134.732H163.638V140.505H157.939V135.015H152.531V145.987H158.031V157.388H152.51V162.98H135.492V151.861H130.038V162.966H124.254V151.849H101.767V134.998H96.3437V151.782H85.0887V157.388H62.6314V162.962H56.8164V151.82H45.6339V134.821H51.3221V140.328H56.7548V129.37H51.2025V123.736H45.5995V118.133H28.7615V112.539H23.3034V118.024H11.9162V112.347H23.0733V84.2474H28.6437V73.2172H23.3016V78.7368H12.0938V84.1948H17.5935V106.81H11.8963V95.6816H6.44006V118.032H0.675781V95.4859H6.18818V90.0315H0.693902V78.6335H11.7894V73.181H6.2951V67.4005H17.4612V61.7685H23.028V56.316H17.4975V50.7511H12.0739V61.8483H6.30053V50.5318H11.8274V44.9452H28.843V50.4467H34.2956V44.9633H40.0998V50.4648H40.1016ZM118.812 134.706H135.374V118.146H118.812V134.706ZM45.5089 112.26V95.6888H34.5801V101.098H40.0617V106.904H28.9391V112.26H45.5089ZM51.4254 28.2523V39.2027H56.8345V33.7212H62.6386V39.2281H67.9807V28.2542H51.4236L51.4254 28.2523ZM152.258 106.92H130.074V112.354H141.28V117.86H146.724V112.275H152.258V106.92ZM68.2072 129.357H62.664V145.963H68.0423V134.75H73.591V123.787H68.209V129.355L68.2072 129.357ZM79.2066 151.582V135.024H73.7885V146.217H68.2598V151.582H79.2066ZM73.87 28.0711H79.4658V33.5925H84.9401V28.0041H90.4471V22.6639H73.87V28.0711ZM51.4218 106.904V123.472H56.8254V117.912H62.3578V112.438H56.7711V106.904H51.4218ZM39.8805 67.328V62.0005H23.327V67.328H39.8805ZM96.0628 134.73V118.169H90.7298V134.73H96.0628ZM73.8936 112.523V123.466H79.2266V112.523H73.8936ZM135.664 72.9164H146.608V67.5907H135.664V72.9164ZM118.808 112.258H124.159V101.308H118.808V112.258ZM130.081 84.4267V89.7832H135.389V84.4267H130.081ZM135.666 145.943H140.994V140.616H135.666V145.943ZM118.553 101.033V95.6797H113.216V101.033H118.553ZM146.62 101.027V95.6997H141.289V101.027H146.62ZM40.1958 78.8147V84.1731H45.5161V78.8147H40.1958ZM135.414 73.2317H130.054V78.5447H135.414V73.2317ZM39.9113 73.2064H34.5638V78.5375H39.9113V73.2064ZM34.5457 89.7669H39.9041V84.4467H34.5457V89.7669ZM40.1886 67.5835V72.911H45.5198V67.5835H40.1886ZM152.281 61.9787H146.923V67.2917H152.281V61.9787ZM130.047 67.299H135.374V61.9697H130.047V67.299ZM45.7771 95.3789H51.1373V90.0641H45.7771V95.3789ZM62.3415 129.134V123.776H57.0465V129.134H62.3415ZM141.305 56.345V61.6725H146.631V56.345H141.305ZM84.8368 129.113V123.772H79.5147V129.113H84.8368ZM34.5856 50.7058V56.0659H39.8805V50.7058H34.5856ZM28.6763 50.7529H23.3487V56.0768H28.6763V50.7529ZM90.4743 33.9078H85.1159V39.2172H90.4743V33.9078ZM73.8954 33.877V39.2045H79.2266V33.877H73.8954ZM107.6 134.991V140.318H112.932V134.991H107.6ZM124.429 145.941H129.757V140.616H124.429V145.941ZM11.8002 89.7887V84.4612H6.46906V89.7887H11.8002ZM62.3813 146.229H57.0375V151.557H62.3813V146.229ZM107.296 22.3794V17.0519H101.968V22.3794H107.296ZM152.265 151.869H146.907V157.185H152.265V151.869ZM107.301 11.1681V5.81339H101.996V11.1681H107.301ZM124.431 72.9146H129.759V67.5871H124.431V72.9146Z"/>
</mask>
<path d="M40.1016 50.4648H45.5469V28.0693H51.1463V22.47H56.7783V16.8381H62.3487V11.4254H51.3891V16.9124H45.6212V0.0238011H51.342V5.51983H56.762V0.00930453H62.5752V11.121H67.997V0.0256132H73.7704V11.3366H68.2797V22.3667H73.6326V16.8344H84.835V11.4127H79.3335V0.000244141H90.6156V5.70829H85.1376V11.1645H90.6537V16.7348H101.682V11.391H96.1915V0.00568037H107.49V5.50715H112.944V0.020177H118.714V5.69742H113.212V11.1536H118.7V16.9377H113.198V28.1944H107.582V39.2045H112.959V33.7013H118.703V39.4184H113.185V45.0249H107.579V50.6641H101.939V56.2344H96.1733V50.5481H101.722V44.9162H107.289V39.4637H101.76V22.6639H96.3346V45.0231H90.6954V50.6623H85.0887V56.2489H79.3045V50.742H73.8465V56.2381H68.0623V45.1373H62.6042V56.2834H51.4218V61.7105H56.907V67.4947H51.4036V73.1339H45.788V78.5592H51.3457V89.8104H56.9124V95.5928H51.4272V101.051H56.9523V106.652H68.2036V112.258H73.6236V106.735H90.6392V112.284H96.273V117.851H112.915V112.503H107.421V106.723H112.897V101.27H107.407V95.4877H112.955V89.8775H118.738V95.4098H124.339V101.004H129.775V90.0514H124.228V84.4177H113.01V78.7876H107.399V73.0088H112.923V67.5889H107.421V61.7758H118.551V44.9506H135.599V50.443H146.669V44.9361H163.649V56.2526H157.948V50.742H152.519V61.7178H158.056V67.3171H163.65V78.726H152.325V73.2082H146.899V78.7568H135.67V84.1821H146.82V89.7814H163.65V101.216H152.544V106.672H163.669V112.456H152.524V117.883H163.656V123.638H152.316V118.142H146.89V123.675H141.314V129.133H146.829V134.703H152.281V129.201H158.062V134.732H163.638V140.505H157.939V135.015H152.531V145.987H158.031V157.388H152.51V162.98H135.492V151.861H130.038V162.966H124.254V151.849H101.767V134.998H96.3437V151.782H85.0887V157.388H62.6314V162.962H56.8164V151.82H45.6339V134.821H51.3221V140.328H56.7548V129.37H51.2025V123.736H45.5995V118.133H28.7615V112.539H23.3034V118.024H11.9162V112.347H23.0733V84.2474H28.6437V73.2172H23.3016V78.7368H12.0938V84.1948H17.5935V106.81H11.8963V95.6816H6.44006V118.032H0.675781V95.4859H6.18818V90.0315H0.693902V78.6335H11.7894V73.181H6.2951V67.4005H17.4612V61.7685H23.028V56.316H17.4975V50.7511H12.0739V61.8483H6.30053V50.5318H11.8274V44.9452H28.843V50.4467H34.2956V44.9633H40.0998V50.4648H40.1016ZM118.812 134.706H135.374V118.146H118.812V134.706ZM45.5089 112.26V95.6888H34.5801V101.098H40.0617V106.904H28.9391V112.26H45.5089ZM51.4254 28.2523V39.2027H56.8345V33.7212H62.6386V39.2281H67.9807V28.2542H51.4236L51.4254 28.2523ZM152.258 106.92H130.074V112.354H141.28V117.86H146.724V112.275H152.258V106.92ZM68.2072 129.357H62.664V145.963H68.0423V134.75H73.591V123.787H68.209V129.355L68.2072 129.357ZM79.2066 151.582V135.024H73.7885V146.217H68.2598V151.582H79.2066ZM73.87 28.0711H79.4658V33.5925H84.9401V28.0041H90.4471V22.6639H73.87V28.0711ZM51.4218 106.904V123.472H56.8254V117.912H62.3578V112.438H56.7711V106.904H51.4218ZM39.8805 67.328V62.0005H23.327V67.328H39.8805ZM96.0628 134.73V118.169H90.7298V134.73H96.0628ZM73.8936 112.523V123.466H79.2266V112.523H73.8936ZM135.664 72.9164H146.608V67.5907H135.664V72.9164ZM118.808 112.258H124.159V101.308H118.808V112.258ZM130.081 84.4267V89.7832H135.389V84.4267H130.081ZM135.666 145.943H140.994V140.616H135.666V145.943ZM118.553 101.033V95.6797H113.216V101.033H118.553ZM146.62 101.027V95.6997H141.289V101.027H146.62ZM40.1958 78.8147V84.1731H45.5161V78.8147H40.1958ZM135.414 73.2317H130.054V78.5447H135.414V73.2317ZM39.9113 73.2064H34.5638V78.5375H39.9113V73.2064ZM34.5457 89.7669H39.9041V84.4467H34.5457V89.7669ZM40.1886 67.5835V72.911H45.5198V67.5835H40.1886ZM152.281 61.9787H146.923V67.2917H152.281V61.9787ZM130.047 67.299H135.374V61.9697H130.047V67.299ZM45.7771 95.3789H51.1373V90.0641H45.7771V95.3789ZM62.3415 129.134V123.776H57.0465V129.134H62.3415ZM141.305 56.345V61.6725H146.631V56.345H141.305ZM84.8368 129.113V123.772H79.5147V129.113H84.8368ZM34.5856 50.7058V56.0659H39.8805V50.7058H34.5856ZM28.6763 50.7529H23.3487V56.0768H28.6763V50.7529ZM90.4743 33.9078H85.1159V39.2172H90.4743V33.9078ZM73.8954 33.877V39.2045H79.2266V33.877H73.8954ZM107.6 134.991V140.318H112.932V134.991H107.6ZM124.429 145.941H129.757V140.616H124.429V145.941ZM11.8002 89.7887V84.4612H6.46906V89.7887H11.8002ZM62.3813 146.229H57.0375V151.557H62.3813V146.229ZM107.296 22.3794V17.0519H101.968V22.3794H107.296ZM152.265 151.869H146.907V157.185H152.265V151.869ZM107.301 11.1681V5.81339H101.996V11.1681H107.301ZM124.431 72.9146H129.759V67.5871H124.431V72.9146Z" fill="black" stroke="black" stroke-width="2" mask="url(#path-6-inside-1_3064_3956)"/>
<path d="M5.7802 33.5909V34.0909H6.2802H34.2554H34.7554V33.5909V5.61784V5.11784H34.2554H6.2802H5.7802V5.61784V33.5909ZM39.4055 0.514893V38.7264H1.19531V0.514893H39.4055Z" fill="black" stroke="black"/>
<path d="M157.854 34.1142H158.354V33.6142V5.63931V5.13931H157.854H129.877H129.377V5.63931V33.6142V34.1142H129.877H157.854ZM162.972 38.7316H124.762V0.523682H162.972V38.7316Z" fill="black" stroke="black"/>
<path d="M5.78547 157.176V157.676H6.28547H34.2606H34.7606V157.176V129.198V128.698H34.2606H6.28547H5.78547V129.198V157.176ZM1.16797 162.294V124.082H39.3781V162.294H1.16797Z" fill="black" stroke="black"/>
<path d="M91.0469 162.467V157.788H101.376V162.467H91.0469Z" fill="black" stroke="black"/>
<path d="M112.58 162.5H107.914V157.788H112.58V162.5Z" fill="black" stroke="black"/>
<path d="M124.75 128.762V124.086H129.464V128.762H124.75Z" fill="black" stroke="black"/>
<path d="M12.4219 11.7278H28.1638V27.4678H12.4219V11.7278Z" fill="black" stroke="black"/>
<path d="M151.76 11.7512V27.4894H136.02V11.7512H151.76Z" fill="black" stroke="black"/>
<path d="M28.1738 135.333V151.073H12.4336V135.333H28.1738Z" fill="black" stroke="black"/>
<path d="M85.558 69.9719C86.8011 70.1912 88.4193 70.3017 89.9216 70.7819C93.0384 71.7786 94.5497 74.6199 93.5766 77.7312C93.0909 79.286 92.3461 80.8317 91.4057 82.16C89.4577 84.9071 86.6054 85.5123 83.4361 84.927C82.7946 84.8092 82.3796 84.387 82.5264 83.6132C82.6659 82.8739 82.8272 82.1237 82.8344 81.3771C82.8435 80.4349 83.2838 80.3515 84.0902 80.3805C85.1594 80.4185 86.281 80.4222 87.2994 80.1431C89.6733 79.4926 91.1139 77.097 90.6681 74.7631C90.3347 73.0216 89.2855 71.8855 87.5459 71.5231C84.6157 70.9142 81.8378 71.4796 79.2664 72.9347C77.8874 73.7139 77.6156 75.0023 78.5053 76.2345C79.0055 76.9267 78.8496 77.3906 78.3042 77.8526C77.6355 78.418 76.8509 78.3546 76.2855 77.7312C75.2273 76.5679 75.1493 74.5492 76.1351 73.2971C77.4851 71.5829 79.3751 70.8218 81.4301 70.4413C82.6713 70.2129 83.9434 70.1495 85.5616 69.9719H85.558Z" fill="white"/>
<path d="M85.0591 72.5852C84.0516 75.162 83.0586 77.5159 82.2123 79.9205C81.5056 81.9338 80.9892 84.0122 80.3477 86.0508C80.1411 86.7068 79.8385 87.3392 79.5268 87.9571C78.8708 89.26 78.6932 89.385 77.2726 89.1132C76.4009 88.9465 75.5656 88.5931 74.7392 88.3304C74.7392 88.0966 74.7084 87.9952 74.7429 87.9281C76.9083 83.9633 79.0412 79.9785 81.2755 76.0517C81.9405 74.883 82.9064 73.8863 83.7127 72.7954C84.2238 72.105 84.6967 72.1014 85.0555 72.5852H85.0591Z" fill="white"/>
</g>
<defs>
<clipPath id="clip0_3064_3956">
<rect width="163" height="163" fill="white" transform="translate(0.667969 0.000244141)"/>
</clipPath>
</defs>
</svg>
